<svg width="155" height="34" viewBox="0 0 155 34" fill="none" xmlns="http://www.w3.org/2000/svg">
<path d="M41.8098 16.6969C41.8098 15.571 42.0534 14.5696 42.5406 13.6927C43.0277 12.8049 43.7044 12.1175 44.5704 11.6303C45.4473 11.1323 46.4379 10.8833 47.5422 10.8833C48.8954 10.8833 50.0538 11.2406 51.0173 11.9551C51.9808 12.6696 52.625 13.6439 52.9497 14.8781H49.8968C49.6695 14.4018 49.3447 14.0391 48.9225 13.7901C48.5111 13.5411 48.0402 13.4166 47.5097 13.4166C46.6544 13.4166 45.9616 13.7143 45.4311 14.3097C44.9006 14.9052 44.6354 15.7009 44.6354 16.6969C44.6354 17.6929 44.9006 18.4886 45.4311 19.084C45.9616 19.6794 46.6544 19.9771 47.5097 19.9771C48.0402 19.9771 48.5111 19.8526 48.9225 19.6036C49.3447 19.3546 49.6695 18.992 49.8968 18.5156H52.9497C52.625 19.7498 51.9808 20.7241 51.0173 21.4386C50.0538 22.1423 48.8954 22.4942 47.5422 22.4942C46.4379 22.4942 45.4473 22.2506 44.5704 21.7634C43.7044 21.2654 43.0277 20.578 42.5406 19.7011C42.0534 18.8242 41.8098 17.8228 41.8098 16.6969Z" fill="#06032B"/>
<path d="M63.9065 13.3516L58.2228 26.7163H55.2349L57.3134 22.1044L53.6272 13.3516H56.7288L58.8237 19.019L60.9022 13.3516H63.9065Z" fill="#06032B"/>
<path d="M67.6875 14.6345C67.9473 14.2123 68.3208 13.8713 68.808 13.6115C69.2951 13.3516 69.8527 13.2217 70.4806 13.2217C71.2276 13.2217 71.9042 13.4112 72.5104 13.7901C73.1167 14.169 73.593 14.7103 73.9395 15.414C74.2967 16.1177 74.4753 16.935 74.4753 17.8661C74.4753 18.7971 74.2967 19.6199 73.9395 20.3344C73.593 21.0381 73.1167 21.5848 72.5104 21.9745C71.9042 22.3534 71.2276 22.5429 70.4806 22.5429C69.8418 22.5429 69.2843 22.4184 68.808 22.1694C68.3316 21.9096 67.9581 21.5686 67.6875 21.1463V22.413H64.9106V10.3962H67.6875V14.6345ZM71.6498 17.8661C71.6498 17.1732 71.4549 16.6319 71.0652 16.2422C70.6863 15.8416 70.2153 15.6413 69.6524 15.6413C69.1003 15.6413 68.6293 15.8416 68.2396 16.2422C67.8607 16.6427 67.6712 17.1895 67.6712 17.8823C67.6712 18.5752 67.8607 19.1219 68.2396 19.5224C68.6293 19.923 69.1003 20.1233 69.6524 20.1233C70.2045 20.1233 70.6754 19.923 71.0652 19.5224C71.4549 19.1111 71.6498 18.5589 71.6498 17.8661Z" fill="#06032B"/>
<path d="M84.4738 17.7362C84.4738 17.996 84.4576 18.2666 84.4251 18.5481H78.1406C78.184 19.1111 78.3626 19.5441 78.6765 19.8472C79.0013 20.1395 79.3965 20.2857 79.862 20.2857C80.5548 20.2857 81.0366 19.9934 81.3072 19.4088H84.2627C84.1112 20.0042 83.8351 20.5401 83.4345 21.0164C83.0448 21.4928 82.5522 21.8663 81.9568 22.1369C81.3614 22.4076 80.6956 22.5429 79.9594 22.5429C79.0717 22.5429 78.2814 22.3534 77.5885 21.9745C76.8957 21.5956 76.3544 21.0543 75.9646 20.3506C75.5749 19.6469 75.38 18.8242 75.38 17.8823C75.38 16.9405 75.5695 16.1177 75.9484 15.414C76.3381 14.7103 76.8794 14.169 77.5723 13.7901C78.2651 13.4112 79.0609 13.2217 79.9594 13.2217C80.8363 13.2217 81.6158 13.4058 82.2978 13.7739C82.9799 14.1419 83.5103 14.667 83.8892 15.349C84.279 16.0311 84.4738 16.8268 84.4738 17.7362ZM81.632 17.0054C81.632 16.5291 81.4696 16.1502 81.1449 15.8687C80.8201 15.5872 80.4141 15.4465 79.9269 15.4465C79.4614 15.4465 79.0663 15.5818 78.7415 15.8524C78.4275 16.1231 78.2327 16.5074 78.1569 17.0054H81.632Z" fill="#06032B"/>
<path d="M88.7156 14.8619C89.0404 14.3639 89.4464 13.9741 89.9335 13.6927C90.4207 13.4004 90.962 13.2542 91.5574 13.2542V16.1935H90.7942C90.1014 16.1935 89.5817 16.345 89.2353 16.6482C88.8888 16.9405 88.7156 17.4601 88.7156 18.2071V22.413H85.9388V13.3516H88.7156V14.8619Z" fill="#06032B"/>
<path d="M98.4222 22.413L95.6616 18.6131V22.413H92.8847V10.3962H95.6616V17.0379L98.406 13.3516H101.832L98.0649 17.8986L101.865 22.413H98.4222Z" fill="#06032B"/>
<path d="M110.635 11.0132C111.837 11.0132 112.887 11.2514 113.786 11.7278C114.684 12.2041 115.377 12.8753 115.864 13.7414C116.362 14.5966 116.611 15.5872 116.611 16.7131C116.611 17.8282 116.362 18.8188 115.864 19.6848C115.377 20.5509 114.679 21.2221 113.769 21.6985C112.871 22.1748 111.826 22.413 110.635 22.413H106.364V11.0132H110.635ZM110.457 20.0096C111.507 20.0096 112.324 19.7227 112.909 19.149C113.493 18.5752 113.786 17.7632 113.786 16.7131C113.786 15.663 113.493 14.8456 112.909 14.261C112.324 13.6764 111.507 13.3841 110.457 13.3841H109.141V20.0096H110.457Z" fill="#06032B"/>
<path d="M126.705 17.7362C126.705 17.996 126.688 18.2666 126.656 18.5481H120.371C120.415 19.1111 120.593 19.5441 120.907 19.8472C121.232 20.1395 121.627 20.2857 122.093 20.2857C122.786 20.2857 123.267 19.9934 123.538 19.4088H126.494C126.342 20.0042 126.066 20.5401 125.665 21.0164C125.276 21.4928 124.783 21.8663 124.188 22.1369C123.592 22.4076 122.926 22.5429 122.19 22.5429C121.302 22.5429 120.512 22.3534 119.819 21.9745C119.126 21.5956 118.585 21.0543 118.195 20.3506C117.806 19.6469 117.611 18.8242 117.611 17.8823C117.611 16.9405 117.8 16.1177 118.179 15.414C118.569 14.7103 119.11 14.169 119.803 13.7901C120.496 13.4112 121.292 13.2217 122.19 13.2217C123.067 13.2217 123.847 13.4058 124.529 13.7739C125.211 14.1419 125.741 14.667 126.12 15.349C126.51 16.0311 126.705 16.8268 126.705 17.7362ZM123.863 17.0054C123.863 16.5291 123.7 16.1502 123.376 15.8687C123.051 15.5872 122.645 15.4465 122.158 15.4465C121.692 15.4465 121.297 15.5818 120.972 15.8524C120.658 16.1231 120.463 16.5074 120.388 17.0054H123.863Z" fill="#06032B"/>
<path d="M139.732 13.2542C140.858 13.2542 141.751 13.5952 142.411 14.2773C143.082 14.9593 143.418 15.9066 143.418 17.1191V22.413H140.657V17.4926C140.657 16.908 140.5 16.4587 140.186 16.1447C139.883 15.82 139.461 15.6576 138.92 15.6576C138.378 15.6576 137.951 15.82 137.637 16.1447C137.334 16.4587 137.182 16.908 137.182 17.4926V22.413H134.422V17.4926C134.422 16.908 134.265 16.4587 133.951 16.1447C133.647 15.82 133.225 15.6576 132.684 15.6576C132.143 15.6576 131.715 15.82 131.401 16.1447C131.098 16.4587 130.946 16.908 130.946 17.4926V22.413H128.17V13.3516H130.946V14.4884C131.228 14.1095 131.596 13.8118 132.051 13.5952C132.505 13.3679 133.02 13.2542 133.593 13.2542C134.275 13.2542 134.882 13.4004 135.412 13.6927C135.953 13.985 136.376 14.4018 136.679 14.9431C136.993 14.4451 137.42 14.0391 137.962 13.7251C138.503 13.4112 139.093 13.2542 139.732 13.2542Z" fill="#06032B"/>
<path d="M149.485 22.5429C148.597 22.5429 147.796 22.3534 147.081 21.9745C146.378 21.5956 145.82 21.0543 145.409 20.3506C145.008 19.6469 144.808 18.8242 144.808 17.8823C144.808 16.9513 145.014 16.1339 145.425 15.4302C145.836 14.7157 146.399 14.169 147.114 13.7901C147.828 13.4112 148.629 13.2217 149.517 13.2217C150.405 13.2217 151.206 13.4112 151.921 13.7901C152.635 14.169 153.198 14.7157 153.609 15.4302C154.021 16.1339 154.226 16.9513 154.226 17.8823C154.226 18.8133 154.015 19.6361 153.593 20.3506C153.182 21.0543 152.613 21.5956 151.888 21.9745C151.174 22.3534 150.372 22.5429 149.485 22.5429ZM149.485 20.1395C150.015 20.1395 150.464 19.9447 150.833 19.5549C151.211 19.1652 151.401 18.6077 151.401 17.8823C151.401 17.157 151.217 16.5994 150.849 16.2097C150.491 15.82 150.048 15.6251 149.517 15.6251C148.976 15.6251 148.527 15.82 148.169 16.2097C147.812 16.5886 147.633 17.1461 147.633 17.8823C147.633 18.6077 147.807 19.1652 148.153 19.5549C148.51 19.9447 148.954 20.1395 149.485 20.1395Z" fill="#06032B"/>
<path d="M14.0631 33.1575L0.0703125 25.0789V8.9211L14.0631 0.842491L28.0558 8.92138V25.0789L14.0631 33.1575ZM1.35742 24.3357L14.0631 31.6711L26.7687 24.3354V9.66428L14.0631 2.32885L1.35742 9.66428V24.3357Z" fill="#06032B"/>
<path d="M14.0633 33.2389L0 25.1195V8.88053L14.0633 0.761055L28.1265 8.88053V25.1195L14.0633 33.2389ZM0.140914 25.038L14.0633 33.0761L27.9856 25.038V8.96198L14.0633 0.92367L0.140914 8.96198V25.038ZM14.0633 31.7526L1.28711 24.3763V9.62371L14.0633 2.24742L26.8394 9.62371V24.3763L14.0633 31.7526ZM1.42803 24.2948L14.0633 31.59L26.6985 24.2951V9.70516L14.0633 2.41003L1.42803 9.70516V24.2948Z" fill="#06032B"/>
<path d="M14.7222 16.9713H13.4351V32.4146H14.7222V16.9713Z" fill="#06032B"/>
<path d="M14.793 32.4848H13.365V16.9008H14.793V32.4848ZM13.5056 32.3439H14.6518V17.0417H13.5056V32.3439Z" fill="#06032B"/>
<path d="M1.05154 8.73524L0.407471 9.84962L13.7483 17.5601L14.3924 16.4457L1.05154 8.73524Z" fill="#06032B"/>
<path d="M13.7734 17.6575L0.311279 9.87567L1.026 8.63929L14.4884 16.4211L13.7734 17.6575ZM0.503768 9.82437L13.7221 17.465L14.2959 16.4727L1.07757 8.83177L0.503768 9.82437Z" fill="#06032B"/>
<path d="M27.1045 8.73532L13.7407 16.4575L14.3847 17.5719L27.7484 9.8497L27.1045 8.73532Z" fill="#06032B"/>
<path d="M14.3595 17.6685L13.645 16.4318L13.7062 16.3966L27.1319 8.639L27.8463 9.87566L14.3595 17.6685ZM13.8375 16.4837L14.411 17.4763L27.6536 9.82437L27.0801 8.83177L13.8375 16.4837Z" fill="#06032B"/>
<path d="M25.183 10.5816L14.0638 29.8395L2.95213 10.5816H25.183ZM27.4126 9.29454H0.723145L14.0632 32.4143L27.4126 9.29454Z" fill="#06032B"/>
<path d="M14.0631 32.5552L0.601318 9.22408H27.5345L14.0631 32.5552ZM0.8451 9.365L14.0631 32.2734L27.2905 9.36471H0.8451V9.365ZM14.0634 29.9804L2.83002 10.5112H25.305L14.0634 29.9804ZM3.07408 10.6521L14.0637 29.6986L25.0609 10.6521H3.07408V10.6521Z" fill="#06032B"/>
</svg>
