<svg width="66" height="67" viewBox="0 0 66 67" fill="none" xmlns="http://www.w3.org/2000/svg">
<path d="M33 65.5C50.6731 65.5 65 51.1731 65 33.5C65 15.8269 50.6731 1.5 33 1.5C15.3269 1.5 1 15.8269 1 33.5C1 51.1731 15.3269 65.5 33 65.5Z" fill="#252D72" stroke="url(#paint0_linear_1367_7808)" stroke-width="2"/>
<path fill-rule="evenodd" clip-rule="evenodd" d="M52.6783 37.4093L46.9482 43.1882H41.5038C40.8888 43.1902 40.3888 43.6921 40.3888 44.312V47.6054C40.3828 47.9653 40.0911 48.2553 39.732 48.2553H35.5753C35.2122 48.2553 34.9186 47.9593 34.9186 47.5934V39.5929L38.3213 36.1635C38.5792 35.9196 38.982 35.9236 39.234 36.1755L40.736 37.6892H44.6725L47.2121 35.1317V31.7743L44.6109 29.1408H41.111L27.1964 43.1642H19.0873L13.3076 37.3433V29.4888L19.0933 23.6579H27.002L30.4305 27.1132C30.6745 27.3692 30.6745 27.7751 30.4305 28.031L27.5158 30.9585C27.2837 31.2284 26.877 31.2584 26.6091 31.0245C26.5932 31.0105 26.5774 30.9945 26.5615 30.9805L24.744 29.1548H21.3512L18.7619 31.7643V35.0717L21.3433 37.6772H24.9365L38.8531 23.6539H46.8708L52.6783 29.5068V37.4093Z" fill="white"/>
<defs>
<linearGradient id="paint0_linear_1367_7808" x1="1" y1="33.5001" x2="73.7364" y2="33.5001" gradientUnits="userSpaceOnUse">
<stop stop-color="#0276F0"/>
<stop offset="1" stop-color="#00E5FF"/>
</linearGradient>
</defs>
</svg>
