<svg width="33" height="33" viewBox="0 0 33 33" fill="none" xmlns="http://www.w3.org/2000/svg">
<path
    fill-rule="evenodd"
    clip-rule="evenodd"
    d="M16.4131 6.52383L22.5637 12.6845L20.1241 15.124L16.4131 11.4033L12.7021 15.124L10.2626 12.6845L16.4131 6.52383ZM16.4131 7.04281L10.7809 12.6843L12.7018 14.6051L16.4131 10.8841L20.1245 14.6051L22.0453 12.6843L16.4131 7.04281Z"
    fill="#F1B101"
  />
<path
    fill-rule="evenodd"
    clip-rule="evenodd"
    d="M12.702 17.7351L16.4131 21.4463L20.1243 17.7351L22.5638 20.1746L16.4131 26.3252L10.2625 20.1746L12.702 17.7351ZM10.781 20.1746L16.4131 25.8067L22.0452 20.1746L20.1243 18.2537L16.4131 21.9648L12.702 18.2537L10.781 20.1746Z"
    fill="#F1B101"
  />
<path
    fill-rule="evenodd"
    clip-rule="evenodd"
    d="M23.8774 13.9971L26.3087 16.4284L23.8774 18.8596L21.4462 16.4284L23.8774 13.9971ZM23.8774 14.5157L21.9647 16.4284L23.8774 18.3411L25.7901 16.4284L23.8774 14.5157Z"
    fill="#F1B101"
  />
<path
    fill-rule="evenodd"
    clip-rule="evenodd"
    d="M16.408 13.9939L18.8393 16.4252L16.408 18.8564L13.9768 16.4252L16.408 13.9939ZM16.408 14.5125L14.4953 16.4252L16.408 18.3379L18.3207 16.4252L16.408 14.5125Z"
    fill="#F1B101"
  />
<path
    fill-rule="evenodd"
    clip-rule="evenodd"
    d="M8.95528 13.9973L11.3865 16.4285L8.95528 18.8597L6.52404 16.4285L8.95528 13.9973ZM8.95528 14.5158L7.04258 16.4285L8.95528 18.3412L10.868 16.4285L8.95528 14.5158Z"
    fill="#F1B101"
  />
<rect x="0.25" y="0.25" width="32.5" height="32.5" rx="16.25" stroke="#FCE8C0" stroke-width="0.5" />
</svg>
