<svg width="24" height="25" viewBox="0 0 24 25" fill="none" xmlns="http://www.w3.org/2000/svg">
    <path d="M16.9645 3.07178L16.8678 3.1685L16.3807 3.65559L15.8936 4.14267L15.4951 4.54119L15.0965 4.93972C15.0289 5.00734 14.9582 5.05271 14.873 5.06407C14.7917 5.07492 14.7131 5.05223 14.6359 5.02147C10.7314 3.59456 6.27112 5.57657 4.66798 9.42402C2.88968 13.739 5.10481 18.5484 9.5364 20.0064L16.9645 3.07178ZM16.9645 3.07178L16.843 3.00896M16.9645 3.07178L16.843 3.00896M16.843 3.00896C12.4625 0.744234 6.77056 1.69778 3.43342 6.07772C0.24366 10.2513 0.691751 16.2704 4.44589 20.0246C8.2005 23.7792 14.2198 24.1969 18.4224 20.9484C22.8328 17.581 23.5778 11.889 21.5209 7.83483L21.4585 7.71186L21.361 7.80937L20.4459 8.72449L19.537 9.63339C19.5069 9.6552 19.4828 9.682 19.4664 9.71406C19.4484 9.74902 19.4424 9.78473 19.4424 9.81735C19.4424 9.87455 19.4618 9.9324 19.4751 9.97228L19.4771 9.97812C19.9435 11.3773 20.0019 12.7758 19.681 14.205L19.6808 14.2061M16.843 3.00896L19.6808 14.2061M19.6808 14.2061C18.7192 18.7226 13.9388 21.4347 9.53678 20.0065L19.6808 14.2061ZM23.6046 5.59534L23.6045 5.59526L23.6013 5.59879C23.4055 5.81418 23.1985 6.01456 22.9932 6.21323C22.891 6.31219 22.7892 6.41072 22.6894 6.51047C22.6066 6.59334 22.5533 6.67982 22.5426 6.78105C22.5322 6.87963 22.5645 6.97433 22.6117 7.06871C23.2272 8.2997 23.6363 9.55755 23.7825 10.9312L23.7826 10.9326C23.8703 11.6629 23.8705 12.4244 23.841 13.1899L23.841 13.1905C23.8118 14.0967 23.6656 14.9738 23.4024 15.8513L23.4021 15.8521C22.9336 17.4627 22.1727 18.8963 21.0902 20.1543L21.0895 20.1552C20.0058 21.4439 18.7179 22.4682 17.2255 23.1998C15.9641 23.8158 14.6192 24.2536 13.2189 24.3412C11.3374 24.4587 9.49386 24.3405 7.71189 23.6394C6.30535 23.0826 5.04678 22.3214 3.93491 21.2973L3.93406 21.2965C2.76324 20.2428 1.85591 19.0136 1.18243 17.6081L1.18217 17.6075C0.655318 16.5246 0.304477 15.3839 0.158306 14.1853L0.158268 14.185C0.143988 14.0708 0.136768 13.9487 0.129348 13.8225L0.129243 13.8208C0.122061 13.6987 0.114654 13.5727 0.1 13.4532V11.5488C0.129444 11.3692 0.14425 11.1833 0.158734 10.9986L0.159465 10.9893C0.174008 10.8038 0.188489 10.6191 0.216775 10.435C0.597579 8.23896 1.50482 6.30796 2.96816 4.63975L2.96817 4.63976L2.96918 4.63857C3.96393 3.46827 5.16357 2.53181 6.53955 1.82912C7.711 1.24344 8.96929 0.833901 10.2852 0.658314C10.3863 0.647146 10.4866 0.644903 10.592 0.642548C10.6191 0.641942 10.6465 0.64133 10.6744 0.640556C10.8049 0.636929 10.942 0.629703 11.0809 0.600004H11.3024C11.6893 0.629551 12.1049 0.629498 12.5202 0.600004H12.6553C12.8222 0.62961 12.9806 0.63691 13.1304 0.640565C13.1613 0.641318 13.1917 0.641919 13.2216 0.642512C13.3411 0.644875 13.4542 0.647111 13.5679 0.658396C14.6789 0.804761 15.7629 1.12675 16.7917 1.50888C17.0277 1.59737 17.3143 1.71246 17.5411 1.85418L17.5411 1.85419L17.5426 1.85513C17.6312 1.90823 17.7219 1.93215 17.8144 1.91583C17.9049 1.89986 17.9816 1.84806 18.0486 1.78105C18.1535 1.67607 18.2628 1.57001 18.3737 1.46232C18.6007 1.24191 18.8347 1.01467 19.0538 0.775859C19.1875 0.642483 19.3144 0.567574 19.4907 0.540964H19.8038C19.9562 0.554481 20.0655 0.610953 20.147 0.692486C20.2311 0.776542 20.2909 0.892592 20.3323 1.03058L20.3322 1.03061L20.3336 1.0347L20.6878 2.05315L21.0421 3.0716L21.042 3.07164L21.0437 3.07589C21.1086 3.23808 21.2122 3.38283 21.3932 3.45574C22.0718 3.75082 22.7496 4.0455 23.3977 4.34012C23.7 4.4775 23.8561 4.68223 23.8902 4.89582C23.9244 5.11056 23.8394 5.36047 23.6046 5.59534ZM21.0073 4.72218L21.0076 4.72155L20.9965 4.71712C20.9111 4.68294 20.8289 4.66895 20.7455 4.6912C20.6647 4.71273 20.5979 4.7644 20.5345 4.82782C20.0329 5.32936 19.5239 5.83095 19.0147 6.33284C18.5055 6.83464 17.996 7.33674 17.4939 7.83889L17.4824 7.85036L17.4751 7.86488C17.4752 7.86483 17.4746 7.86597 17.4726 7.86847C17.4706 7.87105 17.4676 7.87441 17.463 7.87902C17.4582 7.88374 17.453 7.88861 17.4461 7.89502C17.4428 7.89813 17.439 7.90163 17.4351 7.90538C17.4314 7.90886 17.4276 7.91256 17.4238 7.91638C17.3912 7.94895 17.3465 8.00275 17.3465 8.08672V8.16058L17.4171 8.1823C17.6107 8.24186 17.804 8.29391 17.9953 8.34543L17.9961 8.34564C18.1879 8.39728 18.3778 8.44839 18.5673 8.50669C18.6726 8.54156 18.7684 8.54361 18.8582 8.51369C18.9457 8.48453 19.0177 8.42813 19.0818 8.36407L19.0839 8.362L19.0859 8.35992L19.0901 8.35577L19.0921 8.3537L19.0942 8.35163L19.0963 8.34956L19.0984 8.34749L19.1004 8.34542L19.1025 8.34335L19.1046 8.34128L19.1066 8.33921L19.1108 8.33508L19.1149 8.33095L19.1314 8.31444L19.1396 8.30621L19.1438 8.30209L19.1458 8.30004L19.1479 8.29798L19.1499 8.29593L19.152 8.29387L19.154 8.29182L19.1561 8.28977L19.1643 8.28156L19.1663 8.27951L19.1684 8.27746L19.1704 8.27541L19.1725 8.27336L19.1807 8.26517L19.1848 8.26108L19.1889 8.25699L19.197 8.24882L19.1991 8.24678L19.2011 8.24473L19.2032 8.24269L19.2052 8.24065L19.2093 8.23658L19.2134 8.2325L19.2174 8.22842L19.2195 8.22639L19.2215 8.22435L19.2235 8.22232L19.2256 8.22028L19.2296 8.21621L19.2459 8.19996L19.2621 8.18373L19.2641 8.1817L19.2662 8.17968L19.2682 8.17765L19.2702 8.17563L19.2722 8.1736L19.2743 8.17158L19.2783 8.16753L19.3106 8.13522L19.3126 8.1332L19.3147 8.13119L19.3187 8.12716L19.3207 8.12514L19.3227 8.12313L19.3268 8.1191L19.3428 8.103L19.3449 8.10099L19.3469 8.09898L19.3489 8.09697L19.3509 8.09496L19.3529 8.09295L19.3549 8.09094L19.3569 8.08893L19.3589 8.08693L19.3609 8.08492L19.3629 8.08291L19.367 8.0789L19.371 8.07488L19.373 8.07288L19.375 8.07087L19.377 8.06886L19.379 8.06686L19.383 8.06285L19.387 8.05884L19.389 8.05684L19.391 8.05483L19.393 8.05283L19.395 8.05083L19.397 8.04882L19.399 8.04682L19.407 8.03881L19.415 8.03081L19.419 8.02681L19.421 8.02481L19.423 8.02281L19.425 8.02081L19.427 8.01881L19.429 8.01681L19.431 8.01482L19.435 8.01082L19.437 8.00882L19.439 8.00682L19.443 8.00283L19.445 8.00083L19.447 7.99884L19.455 7.99085L19.459 7.98686L19.461 7.98486L19.463 7.98287L19.467 7.97888L19.469 7.97688L19.471 7.97489L19.473 7.97289L19.475 7.9709L19.4769 7.9689L19.4789 7.96691L19.4869 7.95894L19.4949 7.95096L19.4969 7.94897L19.4989 7.94698L19.5029 7.94299L19.5049 7.941L19.5068 7.93901L19.5088 7.93702L19.5108 7.93503L19.5128 7.93303L19.5148 7.93104L19.5188 7.92706L19.5208 7.92507L19.5228 7.92308L19.5268 7.9191L19.5307 7.91511L19.5327 7.91312L19.5347 7.91113L19.5427 7.90317L19.5467 7.89919L19.5506 7.89521L19.5666 7.87929L19.5685 7.87731L19.5705 7.87532L19.5745 7.87134L19.5825 7.86338L19.5865 7.8594L19.5884 7.85741L19.5904 7.85542L19.5944 7.85144L19.5964 7.84946L19.5984 7.84747L19.6302 7.81564L19.6342 7.81166L19.6382 7.80768L19.6422 7.8037L19.6461 7.79972L19.6621 7.7838L19.664 7.78181L19.666 7.77982L19.668 7.77783L19.67 7.77584L19.678 7.76787L19.68 7.76588L19.682 7.76389L19.6859 7.75991L19.6899 7.75592L19.6919 7.75393L19.6939 7.75194L19.7019 7.74397L19.7039 7.74198L19.7059 7.73998L19.7099 7.736L19.7258 7.72004L19.7418 7.70408L19.7498 7.6961L19.7518 7.6941L19.7537 7.6921L19.7557 7.69011L19.7577 7.68811L19.7657 7.68012L19.7677 7.67812L19.7697 7.67612L19.7717 7.67412L19.7737 7.67212L19.7897 7.65612L19.8539 7.59193L19.8559 7.58992L19.8579 7.58791L19.862 7.58389L19.87 7.57583L19.8781 7.56778L19.8861 7.55971L19.8882 7.5577L19.8902 7.55568L19.8942 7.55164L19.8982 7.54761L19.9023 7.54357L19.9043 7.54155L19.9063 7.53953L19.9083 7.53751L19.9104 7.53549L19.9144 7.53144L19.9164 7.52942L19.9185 7.5274L19.9265 7.5193L19.9306 7.51525L19.9326 7.51323L19.9347 7.5112L19.9367 7.50917L19.9387 7.50715L19.9428 7.50309L19.9468 7.49903L19.9509 7.49498L19.9529 7.49295L19.9549 7.49091L19.957 7.48888L19.959 7.48685L19.9671 7.47872L19.9712 7.47465L19.9753 7.47058L19.9773 7.46854L19.9793 7.46651L19.9834 7.46243L19.9997 7.44612L20.0038 7.44203L20.0059 7.43999L20.0079 7.43794L20.01 7.4359L20.012 7.43385L20.014 7.43181L20.0161 7.42976L20.0202 7.42567L20.0243 7.42157L20.0263 7.41952L20.0284 7.41747L20.0304 7.41542L20.0325 7.41337L20.0366 7.40927L20.0407 7.40517L20.0448 7.40106L20.0468 7.39901L20.0489 7.39695L20.115 7.33086L21.0928 6.353L22.0928 5.353L22.1943 5.25159L22.064 5.1915C21.9098 5.12029 21.7598 5.05833 21.6166 4.9992C21.5796 4.98392 21.5431 4.96883 21.5071 4.95382C21.3305 4.88022 21.1648 4.80808 21.0073 4.72218ZM14.373 11.0454L14.2912 10.9125L14.2046 11.0423C14.1849 11.0719 14.1694 11.0964 14.156 11.1175C14.1242 11.1676 14.1045 11.1988 14.0695 11.2337L13.6488 11.6544L13.6226 11.6807L13.6094 11.6938L13.5963 11.707L13.5897 11.7135L13.5864 11.7168L13.5831 11.7201L13.57 11.7333L13.5568 11.7464L13.5535 11.7497L13.5503 11.753L13.5437 11.7595L13.5404 11.7628L13.5371 11.7661L13.5338 11.7694L13.5305 11.7727L13.5272 11.776L13.524 11.7793L13.5207 11.7826L13.5174 11.7858L13.5141 11.7891L13.5108 11.7924L13.5075 11.7957L13.5042 11.799L13.4977 11.8056L13.4911 11.8121L13.4385 11.8647L13.3333 11.9699L13.3268 11.9765L13.3235 11.9797L13.3202 11.983L13.3136 11.9896L13.3103 11.9929L13.3071 11.9962L13.2939 12.0093L13.2808 12.0225L13.2775 12.0258L13.2742 12.029L13.2709 12.0323L13.2676 12.0356L13.261 12.0422L13.2578 12.0455L13.2545 12.0488L13.2512 12.052L13.2479 12.0553L13.2446 12.0586L13.2413 12.0619L13.2282 12.075L13.123 12.1802L13.0178 12.2854L13.0113 12.292L13.008 12.2952L13.0047 12.2985L13.0014 12.3018L12.9981 12.3051L12.9948 12.3084L12.9916 12.3117L12.9883 12.315L12.985 12.3182L12.9817 12.3215L12.9784 12.3248L12.9751 12.3281L12.9718 12.3314L12.9686 12.3347L12.9653 12.338L12.9587 12.3445L12.9554 12.3478L12.9521 12.3511L12.9488 12.3544L12.9455 12.3577L12.9423 12.361L12.939 12.3643L12.9258 12.3774L12.9225 12.3807L12.9193 12.384L12.916 12.3873L12.9127 12.3905L12.8601 12.4431L12.8568 12.4464L12.8535 12.4497L12.8502 12.453L12.847 12.4563L12.8437 12.4596L12.8404 12.4628L12.8371 12.4661L12.8338 12.4694L12.8075 12.4957L12.3869 12.9164C12.2939 13.0093 12.1989 13.0648 12.0982 13.0892C11.9977 13.1135 11.8837 13.1088 11.7497 13.0689C11.6318 13.0293 11.545 12.972 11.4812 12.8991C11.4169 12.8256 11.3715 12.7312 11.3449 12.6111C11.2958 12.3906 11.3908 12.187 11.5279 12.0213C11.8371 11.712 12.139 11.4028 12.4404 11.094L12.4406 11.0938C12.7432 10.7838 13.0454 10.4743 13.3548 10.1648L13.4492 10.0705L13.3322 10.0064C12.0487 9.30352 10.5172 9.6399 9.66069 10.8325C8.83378 11.966 8.98783 13.5565 9.99681 14.5349L9.99788 14.5359C11.0391 15.5159 12.6302 15.5454 13.7305 14.6592C14.8017 13.8021 15.1088 12.241 14.373 11.0454ZM14.1452 9.08597L14.1557 9.09275L14.1676 9.09672C14.1802 9.10089 14.1926 9.10746 14.2144 9.11909L14.2157 9.11982C14.2343 9.12976 14.2627 9.14493 14.2947 9.15367C14.3309 9.16355 14.3726 9.16572 14.4177 9.15068C14.4606 9.13636 14.4993 9.10891 14.5357 9.07256L14.5389 9.06935C14.7686 8.83964 15.0045 8.60371 15.1847 8.3662C15.2345 8.32971 15.2723 8.28382 15.2858 8.2228C15.2989 8.16372 15.2851 8.10669 15.2701 8.0605C15.2421 7.9303 15.2118 7.80202 15.1815 7.67401C15.1141 7.3889 15.047 7.10508 15.0069 6.80413L15.0067 6.8032C14.9902 6.68747 14.9556 6.59501 14.8931 6.51812C14.8319 6.44281 14.7507 6.39083 14.6573 6.34414L14.6573 6.34405L14.6532 6.3422C13.3041 5.74261 11.8946 5.62309 10.4284 5.95222C6.77062 6.76184 4.49387 10.5973 5.48284 14.1942C6.32189 17.3101 9.31797 19.468 12.6151 19.1383L12.616 19.1382C14.2615 18.9586 15.6714 18.2993 16.8105 17.1002C17.9789 15.8719 18.5783 14.4026 18.6681 12.7564L18.6681 12.7564L18.6682 12.7539C18.6981 11.7387 18.5489 10.7791 18.1289 9.84823C18.0946 9.7633 18.0492 9.69745 17.9902 9.64827C17.931 9.59889 17.8641 9.57143 17.7955 9.55428L17.7955 9.55411L17.7896 9.55301C17.4907 9.49695 17.2082 9.41816 16.9177 9.33712C16.753 9.2912 16.5858 9.24455 16.4116 9.20093C16.3602 9.18422 16.2991 9.17257 16.2367 9.1839C16.1706 9.19593 16.1121 9.23228 16.0684 9.29469C15.8668 9.52476 15.6652 9.72629 15.435 9.92792C15.3674 9.97934 15.317 10.0416 15.317 10.1273C15.317 10.1654 15.3273 10.1999 15.3386 10.2289C15.3495 10.2566 15.3642 10.2859 15.378 10.3135L15.3792 10.3159L15.3789 10.3161L15.3832 10.3232C15.7883 10.9887 16.0181 11.709 16.0181 12.4852C16.0181 12.6338 16.0179 12.8029 15.9899 12.9706L15.9898 12.9706L15.9894 12.9745C15.7012 15.2506 13.5402 16.8631 11.2659 16.4313L11.2651 16.4311C9.67718 16.1424 8.61511 15.2233 8.12474 13.6946C7.63458 12.1664 7.9785 10.7878 9.10468 9.63268C10.4289 8.27962 12.5314 8.04852 14.1452 9.08597ZM14.6125 6.43358C14.7897 6.52214 14.8782 6.6107 14.9077 6.81735L5.57934 14.1679C4.60517 10.6255 6.84871 6.84687 10.4502 6.04982C11.8967 5.7251 13.2841 5.84318 14.6125 6.43358ZM19.7903 3.84747L19.8017 3.83599L19.809 3.82148C19.8121 3.81534 19.8167 3.80842 19.8246 3.79806C19.8259 3.79643 19.8275 3.79434 19.8294 3.79193C19.8364 3.78316 19.8467 3.77003 19.8544 3.75842C19.8655 3.74179 19.8798 3.71658 19.8848 3.68403C19.89 3.6505 19.884 3.61803 19.8698 3.58809C19.7976 3.41455 19.7323 3.23323 19.6663 3.04606C19.6564 3.01804 19.6465 2.98989 19.6365 2.96162C19.5799 2.80078 19.522 2.6361 19.4586 2.47149L19.3773 2.25988L19.2759 2.46266C19.2715 2.47135 19.2683 2.47561 19.2667 2.47757C19.2652 2.47932 19.2637 2.4807 19.261 2.48273C19.2581 2.48497 19.2564 2.48606 19.2535 2.48796C19.2511 2.48955 19.2478 2.4917 19.2422 2.49555C19.2324 2.50231 19.2195 2.51177 19.206 2.52523L17.7005 4.03077L16.195 5.5363C16.0736 5.65769 16.0749 5.81536 16.109 5.92527C16.1592 6.24913 16.2302 6.55282 16.3034 6.86632C16.3174 6.92595 16.3314 6.98593 16.3454 7.04647L16.3739 7.17023L16.4875 7.11343C16.5611 7.07665 16.5998 7.03796 16.6313 7.00643L16.6316 7.00615L16.6326 7.00514C17.3197 6.2984 18.0193 5.60528 18.7241 4.90707C19.0785 4.55595 19.4342 4.20354 19.7903 3.84747Z" fill="#5F6267" stroke="white" stroke-width="0.2" />
</svg>