<svg width="54" height="54" viewBox="0 0 54 54" fill="none" xmlns="http://www.w3.org/2000/svg">
<path d="M38.5961 22.2968C38.0872 21.7879 37.5782 21.7879 36.9239 21.9333C35.5426 22.2968 34.2339 22.6603 32.8526 23.0238C32.5618 23.0965 32.3437 23.0965 32.1256 22.8057C30.8896 21.2063 29.6537 19.6068 28.4177 18.0074C27.618 16.9168 26.5275 16.9168 25.6551 18.0074C24.4191 19.6068 23.1832 21.2063 21.9472 22.8057C21.7291 23.0965 21.5837 23.1692 21.2929 23.0238C19.9116 22.6603 18.5302 22.2968 17.1489 21.8606C16.4946 21.7152 15.9856 21.7879 15.4767 22.2241C15.0405 22.733 14.9678 23.2419 15.1132 23.8962C16.0584 27.0951 16.9308 30.3668 17.8759 33.5657C18.1667 34.5835 18.6756 34.947 19.7662 34.947C22.1653 34.947 24.6372 34.947 27.0364 34.947C29.5083 34.947 31.9802 34.947 34.452 34.947C35.4699 34.947 35.9061 34.5835 36.1969 33.6384C37.142 30.3668 38.0872 27.1678 38.9596 23.8962C39.1777 23.3873 39.105 22.8057 38.5961 22.2968ZM34.3066 28.9854C34.0885 29.8578 33.7977 30.7303 33.5796 31.53C33.5069 31.8208 33.3615 31.8935 33.0707 31.8935C29.0721 31.8935 25.0007 31.8935 21.0021 31.8935C20.784 31.8935 20.6386 31.8935 20.5659 31.6754C19.9843 29.6397 19.4754 27.6768 18.821 25.5684C19.6935 25.7865 20.4932 26.0046 21.2202 26.2227C22.6016 26.5862 22.9651 26.5135 23.8375 25.3503C24.7826 24.1144 25.8005 22.8784 26.7456 21.5698C27.0364 21.2063 27.1091 21.279 27.3272 21.5698C28.345 22.8784 29.3629 24.1871 30.3807 25.4957C31.035 26.2954 31.4712 26.5135 32.4891 26.2227C33.3615 26.0046 34.2339 25.7138 35.2518 25.4957C34.961 26.8043 34.5974 27.8949 34.3066 28.9854Z" fill="black"/>
<path d="M53.3546 23.3874C52.9184 20.1884 51.9005 17.2077 50.3011 14.3723C48.847 11.6823 46.9568 9.3558 44.6303 7.32014C42.4492 5.21177 39.832 3.61232 36.9239 2.44908C34.3793 1.43125 31.762 0.704224 28.9993 0.776926H28.9266C28.5631 0.776926 28.2723 0.849628 27.9815 0.704224H26.0912C25.7277 0.849628 25.4369 0.704224 25.0734 0.776926H25.0007C22.965 0.776926 21.0021 1.14044 19.0391 1.79476C14.7497 3.1761 11.0418 5.42987 7.91563 8.62878C5.66186 10.9553 3.917 13.6452 2.53566 16.626C0.6454 20.9155 0.136484 25.3503 0.499995 29.9306C1.00891 34.4381 2.60836 38.5094 5.15294 42.29C7.18861 45.2708 9.80589 47.7426 12.8594 49.7056C15.7675 51.5232 18.9664 52.7591 22.3834 53.4134C24.5645 53.7769 26.7455 53.7769 28.9993 53.7042C31.8347 53.6315 34.5247 52.9045 37.142 51.814C41.0679 50.2145 44.4122 47.7426 47.1749 44.5437C50.3011 40.8359 52.3368 36.6192 53.2092 31.8935C53.3546 31.0211 53.3546 30.2214 53.5 29.3489V25.423C53.4273 24.696 53.4273 23.969 53.3546 23.3874ZM27.0363 3.83042C39.9047 3.83042 50.3738 14.2996 50.3738 27.1679C50.3738 40.0362 39.9047 50.5053 27.0363 50.5053C14.168 50.5053 3.6989 40.0362 3.6262 27.1679C3.6989 14.2996 14.168 3.83042 27.0363 3.83042ZM27.0363 47.4518C38.1598 47.4518 47.3203 38.364 47.3203 27.1679C47.3203 16.0444 38.2325 6.88392 27.109 6.88392C15.9129 6.88392 6.8251 15.9717 6.8251 27.1679C6.7524 38.2913 15.8402 47.3791 27.0363 47.4518ZM27.0363 10.0101C36.4876 10.0101 44.1941 17.7166 44.1941 27.1679C44.1941 36.6192 36.4876 44.3256 27.0363 44.3256C17.585 44.3256 9.8786 36.6192 9.8786 27.1679C9.8786 17.7166 17.585 10.0101 27.0363 10.0101Z" fill="black"/>
<path d="M38.5961 22.2968C38.0872 21.7879 37.5782 21.7879 36.9239 21.9333C35.5426 22.2968 34.2339 22.6603 32.8526 23.0238C32.5618 23.0965 32.3437 23.0965 32.1256 22.8057C30.8896 21.2063 29.6537 19.6068 28.4177 18.0074C27.618 16.9168 26.5275 16.9168 25.6551 18.0074C24.4191 19.6068 23.1832 21.2063 21.9472 22.8057C21.7291 23.0965 21.5837 23.1692 21.2929 23.0238C19.9116 22.6603 18.5302 22.2968 17.1489 21.8606C16.4946 21.7152 15.9856 21.7879 15.4767 22.2241C15.0405 22.733 14.9678 23.2419 15.1132 23.8962C16.0584 27.0951 16.9308 30.3668 17.8759 33.5657C18.1667 34.5835 18.6756 34.947 19.7662 34.947C22.1653 34.947 24.6372 34.947 27.0364 34.947C29.5083 34.947 31.9802 34.947 34.452 34.947C35.4699 34.947 35.9061 34.5835 36.1969 33.6384C37.142 30.3668 38.0872 27.1678 38.9596 23.8962C39.1777 23.3873 39.105 22.8057 38.5961 22.2968ZM34.3066 28.9854C34.0885 29.8578 33.7977 30.7303 33.5796 31.53C33.5069 31.8208 33.3615 31.8935 33.0707 31.8935C29.0721 31.8935 25.0007 31.8935 21.0021 31.8935C20.784 31.8935 20.6386 31.8935 20.5659 31.6754C19.9843 29.6397 19.4754 27.6768 18.821 25.5684C19.6935 25.7865 20.4932 26.0046 21.2202 26.2227C22.6016 26.5862 22.9651 26.5135 23.8375 25.3503C24.7826 24.1144 25.8005 22.8784 26.7456 21.5698C27.0364 21.2063 27.1091 21.279 27.3272 21.5698C28.345 22.8784 29.3629 24.1871 30.3807 25.4957C31.035 26.2954 31.4712 26.5135 32.4891 26.2227C33.3615 26.0046 34.2339 25.7138 35.2518 25.4957C34.961 26.8043 34.5974 27.8949 34.3066 28.9854Z" fill="#FEFEFE"/>
<path d="M27.0364 6.88391C15.913 6.88391 6.8252 15.9717 6.8252 27.1679C6.8252 38.2913 15.913 47.4518 27.1091 47.4518C38.2326 47.4518 47.3931 38.364 47.3931 27.1679C47.3204 16.0444 38.2326 6.88391 27.0364 6.88391ZM27.0364 44.3256C17.5851 44.3256 9.87869 36.6192 9.87869 27.1679C9.87869 17.7166 17.5851 10.0101 27.0364 10.0101C36.4877 10.0101 44.1942 17.7166 44.1942 27.1679C44.1942 36.6192 36.4877 44.3256 27.0364 44.3256Z" fill="#FEFEFE"/>
<path d="M38.5961 22.2968C38.0872 21.7879 37.5782 21.7879 36.9239 21.9333C35.5426 22.2968 34.2339 22.6603 32.8526 23.0238C32.5618 23.0965 32.3437 23.0965 32.1256 22.8057C30.8896 21.2063 29.6537 19.6068 28.4177 18.0074C27.618 16.9168 26.5275 16.9168 25.6551 18.0074C24.4191 19.6068 23.1832 21.2063 21.9472 22.8057C21.7291 23.0965 21.5837 23.1692 21.2929 23.0238C19.9116 22.6603 18.5302 22.2968 17.1489 21.8606C16.4946 21.7152 15.9856 21.7879 15.4767 22.2241C15.0405 22.733 14.9678 23.2419 15.1132 23.8962C16.0584 27.0951 16.9308 30.3668 17.8759 33.5657C18.1667 34.5835 18.6756 34.947 19.7662 34.947C22.1653 34.947 24.6372 34.947 27.0364 34.947C29.5083 34.947 31.9802 34.947 34.452 34.947C35.4699 34.947 35.9061 34.5835 36.1969 33.6384C37.142 30.3668 38.0872 27.1678 38.9596 23.8962C39.1777 23.3873 39.105 22.8057 38.5961 22.2968ZM34.3066 28.9854C34.0885 29.8578 33.7977 30.7303 33.5796 31.53C33.5069 31.8208 33.3615 31.8935 33.0707 31.8935C29.0721 31.8935 25.0007 31.8935 21.0021 31.8935C20.784 31.8935 20.6386 31.8935 20.5659 31.6754C19.9843 29.6397 19.4754 27.6768 18.821 25.5684C19.6935 25.7865 20.4932 26.0046 21.2202 26.2227C22.6016 26.5862 22.9651 26.5135 23.8375 25.3503C24.7826 24.1144 25.8005 22.8784 26.7456 21.5698C27.0364 21.2063 27.1091 21.279 27.3272 21.5698C28.345 22.8784 29.3629 24.1871 30.3807 25.4957C31.035 26.2954 31.4712 26.5135 32.4891 26.2227C33.3615 26.0046 34.2339 25.7138 35.2518 25.4957C34.961 26.8043 34.5974 27.8949 34.3066 28.9854Z" fill="black"/>
<path d="M27.0364 6.88391C15.913 6.88391 6.8252 15.9717 6.8252 27.1679C6.8252 38.2913 15.913 47.4518 27.1091 47.4518C38.2326 47.4518 47.3931 38.364 47.3931 27.1679C47.3204 16.0444 38.2326 6.88391 27.0364 6.88391ZM27.0364 44.3256C17.5851 44.3256 9.87869 36.6192 9.87869 27.1679C9.87869 17.7166 17.5851 10.0101 27.0364 10.0101C36.4877 10.0101 44.1942 17.7166 44.1942 27.1679C44.1942 36.6192 36.4877 44.3256 27.0364 44.3256Z" fill="black"/>
<path d="M38.5961 22.2968C38.0872 21.7879 37.5782 21.7879 36.9239 21.9333C35.5426 22.2968 34.2339 22.6603 32.8526 23.0238C32.5618 23.0965 32.3437 23.0965 32.1256 22.8057C30.8896 21.2063 29.6537 19.6068 28.4177 18.0074C27.618 16.9168 26.5275 16.9168 25.6551 18.0074C24.4191 19.6068 23.1832 21.2063 21.9472 22.8057C21.7291 23.0965 21.5837 23.1692 21.2929 23.0238C19.9116 22.6603 18.5302 22.2968 17.1489 21.8606C16.4946 21.7152 15.9856 21.7879 15.4767 22.2241C15.0405 22.733 14.9678 23.2419 15.1132 23.8962C16.0584 27.0951 16.9308 30.3668 17.8759 33.5657C18.1667 34.5835 18.6756 34.947 19.7662 34.947C22.1653 34.947 24.6372 34.947 27.0364 34.947C29.5083 34.947 31.9802 34.947 34.452 34.947C35.4699 34.947 35.9061 34.5835 36.1969 33.6384C37.142 30.3668 38.0872 27.1678 38.9596 23.8962C39.1777 23.3873 39.105 22.8057 38.5961 22.2968ZM34.3066 28.9854C34.0885 29.8578 33.7977 30.7303 33.5796 31.53C33.5069 31.8208 33.3615 31.8935 33.0707 31.8935C29.0721 31.8935 25.0007 31.8935 21.0021 31.8935C20.784 31.8935 20.6386 31.8935 20.5659 31.6754C19.9843 29.6397 19.4754 27.6768 18.821 25.5684C19.6935 25.7865 20.4932 26.0046 21.2202 26.2227C22.6016 26.5862 22.9651 26.5135 23.8375 25.3503C24.7826 24.1144 25.8005 22.8784 26.7456 21.5698C27.0364 21.2063 27.1091 21.279 27.3272 21.5698C28.345 22.8784 29.3629 24.1871 30.3807 25.4957C31.035 26.2954 31.4712 26.5135 32.4891 26.2227C33.3615 26.0046 34.2339 25.7138 35.2518 25.4957C34.961 26.8043 34.5974 27.8949 34.3066 28.9854Z" fill="#FEFEFE"/>
<path d="M38.5961 22.2968C38.0872 21.7879 37.5782 21.7879 36.9239 21.9333C35.5426 22.2968 34.2339 22.6603 32.8526 23.0238C32.5618 23.0965 32.3437 23.0965 32.1256 22.8057C30.8896 21.2063 29.6537 19.6068 28.4177 18.0074C27.618 16.9168 26.5275 16.9168 25.6551 18.0074C24.4191 19.6068 23.1832 21.2063 21.9472 22.8057C21.7291 23.0965 21.5837 23.1692 21.2929 23.0238C19.9116 22.6603 18.5302 22.2968 17.1489 21.8606C16.4946 21.7152 15.9856 21.7879 15.4767 22.2241C15.0405 22.733 14.9678 23.2419 15.1132 23.8962C16.0584 27.0951 16.9308 30.3668 17.8759 33.5657C18.1667 34.5835 18.6756 34.947 19.7662 34.947C22.1653 34.947 24.6372 34.947 27.0364 34.947C29.5083 34.947 31.9802 34.947 34.452 34.947C35.4699 34.947 35.9061 34.5835 36.1969 33.6384C37.142 30.3668 38.0872 27.1678 38.9596 23.8962C39.1777 23.3873 39.105 22.8057 38.5961 22.2968ZM34.3066 28.9854C34.0885 29.8578 33.7977 30.7303 33.5796 31.53C33.5069 31.8208 33.3615 31.8935 33.0707 31.8935C29.0721 31.8935 25.0007 31.8935 21.0021 31.8935C20.784 31.8935 20.6386 31.8935 20.5659 31.6754C19.9843 29.6397 19.4754 27.6768 18.821 25.5684C19.6935 25.7865 20.4932 26.0046 21.2202 26.2227C22.6016 26.5862 22.9651 26.5135 23.8375 25.3503C24.7826 24.1144 25.8005 22.8784 26.7456 21.5698C27.0364 21.2063 27.1091 21.279 27.3272 21.5698C28.345 22.8784 29.3629 24.1871 30.3807 25.4957C31.035 26.2954 31.4712 26.5135 32.4891 26.2227C33.3615 26.0046 34.2339 25.7138 35.2518 25.4957C34.961 26.8043 34.5974 27.8949 34.3066 28.9854Z" fill="black"/>
</svg>
