<svg width="20" height="21" viewBox="0 0 20 21" fill="none" xmlns="http://www.w3.org/2000/svg">
<path d="M14.3759 8.65999C14.1839 8.46795 13.9918 8.46795 13.7449 8.52282C13.2236 8.65999 12.7298 8.79717 12.2086 8.93434C12.0988 8.96178 12.0165 8.96178 11.9342 8.85204C11.4678 8.24847 11.0014 7.6449 10.535 7.04134C10.2332 6.62982 9.82172 6.62982 9.4925 7.04134C9.02611 7.6449 8.55972 8.24847 8.09333 8.85204C8.01102 8.96178 7.95615 8.98921 7.84641 8.93434C7.32515 8.79717 6.80389 8.65999 6.28263 8.49539C6.03571 8.44052 5.84367 8.46795 5.65163 8.63256C5.48702 8.8246 5.45958 9.01665 5.51445 9.26356C5.8711 10.4707 6.20032 11.7053 6.55697 12.9124C6.66671 13.2965 6.85876 13.4337 7.27028 13.4337C8.17563 13.4337 9.10842 13.4337 10.0138 13.4337C10.9465 13.4337 11.8793 13.4337 12.8121 13.4337C13.1962 13.4337 13.3608 13.2965 13.4706 12.9398C13.8272 11.7053 14.1839 10.4981 14.5131 9.26356C14.5954 9.07152 14.5679 8.85204 14.3759 8.65999ZM12.7572 11.184C12.6749 11.5132 12.5652 11.8424 12.4829 12.1442C12.4555 12.254 12.4006 12.2814 12.2909 12.2814C10.7819 12.2814 9.24559 12.2814 7.73667 12.2814C7.65437 12.2814 7.5995 12.2814 7.57206 12.1991C7.35259 11.4309 7.16054 10.6902 6.91363 9.89456C7.24285 9.97687 7.54463 10.0592 7.81898 10.1415C8.34024 10.2786 8.47741 10.2512 8.80663 9.81226C9.16328 9.34587 9.54737 8.87947 9.90403 8.38565C10.0138 8.24847 10.0412 8.27591 10.1235 8.38565C10.5076 8.87947 10.8917 9.3733 11.2758 9.86713C11.5227 10.1689 11.6873 10.2512 12.0714 10.1415C12.4006 10.0592 12.7298 9.94943 13.1139 9.86713C13.0042 10.361 12.867 10.7725 12.7572 11.184Z" fill="#5F6267"/>
<path d="M19.9451 9.07151C19.7805 7.86438 19.3964 6.73955 18.7929 5.66959C18.2442 4.6545 17.5309 3.77659 16.653 3.00841C15.8299 2.2128 14.8423 1.60923 13.7449 1.17028C12.7846 0.786189 11.797 0.511841 10.7545 0.539276H10.727C10.5899 0.539276 10.4801 0.566711 10.3704 0.511841H9.65708C9.5199 0.566711 9.41016 0.511841 9.27299 0.539276H9.24555C8.47738 0.539276 7.73664 0.67645 6.9959 0.923363C5.37724 1.44463 3.97806 2.29511 2.79837 3.50224C1.94789 4.38015 1.28945 5.39524 0.768188 6.52007C0.0548818 8.13873 -0.137162 9.81225 1.20662e-05 11.5406C0.192056 13.2416 0.795623 14.778 1.75584 16.2046C2.52402 17.3294 3.51167 18.2622 4.66394 19.0029C5.76133 19.6888 6.96846 20.1552 8.2579 20.4021C9.08095 20.5393 9.90399 20.5393 10.7545 20.5118C11.8244 20.4844 12.8395 20.2101 13.8272 19.7985C15.3087 19.195 16.5707 18.2622 17.6132 17.055C18.7929 15.6559 19.5611 14.0647 19.8903 12.2814C19.9451 11.9522 19.9451 11.6504 20 11.3212V9.83969C19.9726 9.56534 19.9726 9.29099 19.9451 9.07151ZM10.0137 1.69154C14.8697 1.69154 18.8203 5.64216 18.8203 10.4981C18.8203 15.3541 14.8697 19.3047 10.0137 19.3047C5.15776 19.3047 1.20715 15.3541 1.17971 10.4981C1.20715 5.64216 5.15776 1.69154 10.0137 1.69154ZM10.0137 18.1524C14.2113 18.1524 17.6681 14.7231 17.6681 10.4981C17.6681 6.30059 14.2387 2.8438 10.0412 2.8438C5.8162 2.8438 2.38684 6.27316 2.38684 10.4981C2.35941 14.6957 5.78876 18.125 10.0137 18.1524ZM10.0137 4.0235C13.5803 4.0235 16.4884 6.93159 16.4884 10.4981C16.4884 14.0647 13.5803 16.9727 10.0137 16.9727C6.4472 16.9727 3.53911 14.0647 3.53911 10.4981C3.53911 6.93159 6.4472 4.0235 10.0137 4.0235Z" fill="#5F6267"/>
<path d="M14.3759 8.65999C14.1839 8.46795 13.9918 8.46795 13.7449 8.52282C13.2236 8.65999 12.7298 8.79717 12.2086 8.93434C12.0988 8.96178 12.0165 8.96178 11.9342 8.85204C11.4678 8.24847 11.0014 7.6449 10.535 7.04134C10.2332 6.62982 9.82172 6.62982 9.4925 7.04134C9.02611 7.6449 8.55972 8.24847 8.09333 8.85204C8.01102 8.96178 7.95615 8.98921 7.84641 8.93434C7.32515 8.79717 6.80389 8.65999 6.28263 8.49539C6.03571 8.44052 5.84367 8.46795 5.65163 8.63256C5.48702 8.8246 5.45958 9.01665 5.51445 9.26356C5.8711 10.4707 6.20032 11.7053 6.55697 12.9124C6.66671 13.2965 6.85876 13.4337 7.27028 13.4337C8.17563 13.4337 9.10842 13.4337 10.0138 13.4337C10.9465 13.4337 11.8793 13.4337 12.8121 13.4337C13.1962 13.4337 13.3608 13.2965 13.4706 12.9398C13.8272 11.7053 14.1839 10.4981 14.5131 9.26356C14.5954 9.07152 14.5679 8.85204 14.3759 8.65999ZM12.7572 11.184C12.6749 11.5132 12.5652 11.8424 12.4829 12.1442C12.4555 12.254 12.4006 12.2814 12.2909 12.2814C10.7819 12.2814 9.24559 12.2814 7.73667 12.2814C7.65437 12.2814 7.5995 12.2814 7.57206 12.1991C7.35259 11.4309 7.16054 10.6902 6.91363 9.89456C7.24285 9.97687 7.54463 10.0592 7.81898 10.1415C8.34024 10.2786 8.47741 10.2512 8.80663 9.81226C9.16328 9.34587 9.54737 8.87947 9.90403 8.38565C10.0138 8.24847 10.0412 8.27591 10.1235 8.38565C10.5076 8.87947 10.8917 9.3733 11.2758 9.86713C11.5227 10.1689 11.6873 10.2512 12.0714 10.1415C12.4006 10.0592 12.7298 9.94943 13.1139 9.86713C13.0042 10.361 12.867 10.7725 12.7572 11.184Z" fill="#FEFEFE"/>
<path d="M10.0137 2.8438C5.8162 2.8438 2.38684 6.27315 2.38684 10.4981C2.38684 14.6956 5.8162 18.1524 10.0412 18.1524C14.2387 18.1524 17.6955 14.7231 17.6955 10.4981C17.668 6.30059 14.2387 2.8438 10.0137 2.8438ZM10.0137 16.9727C6.4472 16.9727 3.5391 14.0646 3.5391 10.4981C3.5391 6.93159 6.4472 4.02349 10.0137 4.02349C13.5803 4.02349 16.4883 6.93159 16.4883 10.4981C16.4883 14.0646 13.5803 16.9727 10.0137 16.9727Z" fill="#FEFEFE"/>
<path d="M14.3759 8.65999C14.1839 8.46795 13.9918 8.46795 13.7449 8.52282C13.2236 8.65999 12.7298 8.79717 12.2086 8.93434C12.0988 8.96178 12.0165 8.96178 11.9342 8.85204C11.4678 8.24847 11.0014 7.6449 10.535 7.04134C10.2332 6.62982 9.82172 6.62982 9.4925 7.04134C9.02611 7.6449 8.55972 8.24847 8.09333 8.85204C8.01102 8.96178 7.95615 8.98921 7.84641 8.93434C7.32515 8.79717 6.80389 8.65999 6.28263 8.49539C6.03571 8.44052 5.84367 8.46795 5.65163 8.63256C5.48702 8.8246 5.45958 9.01665 5.51445 9.26356C5.8711 10.4707 6.20032 11.7053 6.55697 12.9124C6.66671 13.2965 6.85876 13.4337 7.27028 13.4337C8.17563 13.4337 9.10842 13.4337 10.0138 13.4337C10.9465 13.4337 11.8793 13.4337 12.8121 13.4337C13.1962 13.4337 13.3608 13.2965 13.4706 12.9398C13.8272 11.7053 14.1839 10.4981 14.5131 9.26356C14.5954 9.07152 14.5679 8.85204 14.3759 8.65999ZM12.7572 11.184C12.6749 11.5132 12.5652 11.8424 12.4829 12.1442C12.4555 12.254 12.4006 12.2814 12.2909 12.2814C10.7819 12.2814 9.24559 12.2814 7.73667 12.2814C7.65437 12.2814 7.5995 12.2814 7.57206 12.1991C7.35259 11.4309 7.16054 10.6902 6.91363 9.89456C7.24285 9.97687 7.54463 10.0592 7.81898 10.1415C8.34024 10.2786 8.47741 10.2512 8.80663 9.81226C9.16328 9.34587 9.54737 8.87947 9.90403 8.38565C10.0138 8.24847 10.0412 8.27591 10.1235 8.38565C10.5076 8.87947 10.8917 9.3733 11.2758 9.86713C11.5227 10.1689 11.6873 10.2512 12.0714 10.1415C12.4006 10.0592 12.7298 9.94943 13.1139 9.86713C13.0042 10.361 12.867 10.7725 12.7572 11.184Z" fill="#5F6267"/>
<path d="M10.0137 2.8438C5.8162 2.8438 2.38684 6.27315 2.38684 10.4981C2.38684 14.6956 5.8162 18.1524 10.0412 18.1524C14.2387 18.1524 17.6955 14.7231 17.6955 10.4981C17.668 6.30059 14.2387 2.8438 10.0137 2.8438ZM10.0137 16.9727C6.4472 16.9727 3.5391 14.0646 3.5391 10.4981C3.5391 6.93159 6.4472 4.02349 10.0137 4.02349C13.5803 4.02349 16.4883 6.93159 16.4883 10.4981C16.4883 14.0646 13.5803 16.9727 10.0137 16.9727Z" fill="#5F6267"/>
<path d="M14.3759 8.65999C14.1839 8.46795 13.9918 8.46795 13.7449 8.52282C13.2236 8.65999 12.7298 8.79717 12.2086 8.93434C12.0988 8.96178 12.0165 8.96178 11.9342 8.85204C11.4678 8.24847 11.0014 7.6449 10.535 7.04134C10.2332 6.62982 9.82172 6.62982 9.4925 7.04134C9.02611 7.6449 8.55972 8.24847 8.09333 8.85204C8.01102 8.96178 7.95615 8.98921 7.84641 8.93434C7.32515 8.79717 6.80389 8.65999 6.28263 8.49539C6.03571 8.44052 5.84367 8.46795 5.65163 8.63256C5.48702 8.8246 5.45958 9.01665 5.51445 9.26356C5.8711 10.4707 6.20032 11.7053 6.55697 12.9124C6.66671 13.2965 6.85876 13.4337 7.27028 13.4337C8.17563 13.4337 9.10842 13.4337 10.0138 13.4337C10.9465 13.4337 11.8793 13.4337 12.8121 13.4337C13.1962 13.4337 13.3608 13.2965 13.4706 12.9398C13.8272 11.7053 14.1839 10.4981 14.5131 9.26356C14.5954 9.07152 14.5679 8.85204 14.3759 8.65999ZM12.7572 11.184C12.6749 11.5132 12.5652 11.8424 12.4829 12.1442C12.4555 12.254 12.4006 12.2814 12.2909 12.2814C10.7819 12.2814 9.24559 12.2814 7.73667 12.2814C7.65437 12.2814 7.5995 12.2814 7.57206 12.1991C7.35259 11.4309 7.16054 10.6902 6.91363 9.89456C7.24285 9.97687 7.54463 10.0592 7.81898 10.1415C8.34024 10.2786 8.47741 10.2512 8.80663 9.81226C9.16328 9.34587 9.54737 8.87947 9.90403 8.38565C10.0138 8.24847 10.0412 8.27591 10.1235 8.38565C10.5076 8.87947 10.8917 9.3733 11.2758 9.86713C11.5227 10.1689 11.6873 10.2512 12.0714 10.1415C12.4006 10.0592 12.7298 9.94943 13.1139 9.86713C13.0042 10.361 12.867 10.7725 12.7572 11.184Z" fill="#FEFEFE"/>
<path d="M14.3759 8.65999C14.1839 8.46795 13.9918 8.46795 13.7449 8.52282C13.2236 8.65999 12.7298 8.79717 12.2086 8.93434C12.0988 8.96178 12.0165 8.96178 11.9342 8.85204C11.4678 8.24847 11.0014 7.6449 10.535 7.04134C10.2332 6.62982 9.82172 6.62982 9.4925 7.04134C9.02611 7.6449 8.55972 8.24847 8.09333 8.85204C8.01102 8.96178 7.95615 8.98921 7.84641 8.93434C7.32515 8.79717 6.80389 8.65999 6.28263 8.49539C6.03571 8.44052 5.84367 8.46795 5.65163 8.63256C5.48702 8.8246 5.45958 9.01665 5.51445 9.26356C5.8711 10.4707 6.20032 11.7053 6.55697 12.9124C6.66671 13.2965 6.85876 13.4337 7.27028 13.4337C8.17563 13.4337 9.10842 13.4337 10.0138 13.4337C10.9465 13.4337 11.8793 13.4337 12.8121 13.4337C13.1962 13.4337 13.3608 13.2965 13.4706 12.9398C13.8272 11.7053 14.1839 10.4981 14.5131 9.26356C14.5954 9.07152 14.5679 8.85204 14.3759 8.65999ZM12.7572 11.184C12.6749 11.5132 12.5652 11.8424 12.4829 12.1442C12.4555 12.254 12.4006 12.2814 12.2909 12.2814C10.7819 12.2814 9.24559 12.2814 7.73667 12.2814C7.65437 12.2814 7.5995 12.2814 7.57206 12.1991C7.35259 11.4309 7.16054 10.6902 6.91363 9.89456C7.24285 9.97687 7.54463 10.0592 7.81898 10.1415C8.34024 10.2786 8.47741 10.2512 8.80663 9.81226C9.16328 9.34587 9.54737 8.87947 9.90403 8.38565C10.0138 8.24847 10.0412 8.27591 10.1235 8.38565C10.5076 8.87947 10.8917 9.3733 11.2758 9.86713C11.5227 10.1689 11.6873 10.2512 12.0714 10.1415C12.4006 10.0592 12.7298 9.94943 13.1139 9.86713C13.0042 10.361 12.867 10.7725 12.7572 11.184Z" fill="#5F6267"/>
</svg>
