<svg width="25" height="25" viewBox="0 0 25 25" fill="none" xmlns="http://www.w3.org/2000/svg">
<path fill-rule="evenodd" clip-rule="evenodd" d="M12.4377 24.0118C19.0652 24.0118 24.4377 18.6393 24.4377 12.0118C24.4377 5.38442 19.0652 0.0118408 12.4377 0.0118408C5.81033 0.0118408 0.437744 5.38442 0.437744 12.0118C0.437744 18.6393 5.81033 24.0118 12.4377 24.0118Z" fill="#B95567"/>
<path fill-rule="evenodd" clip-rule="evenodd" d="M11.9115 7.39645H9.35394H9.35335C9.67365 7.87941 9.84073 8.45057 9.83209 9.03301C9.18418 9.03899 8.53626 9.03899 7.88776 9.03899C7.62107 9.52376 7.34924 10.0061 7.07737 10.4885L7.07737 10.4885L7.07735 10.4885L7.07735 10.4885C6.70608 11.1473 6.33474 11.8061 5.97632 12.4716V12.4734C6.35995 13.1888 6.75846 13.8959 7.15705 14.6032L7.15707 14.6032L7.1571 14.6033C7.40177 15.0374 7.64646 15.4716 7.88776 15.9078H9.62591V14.5262H9.0573C8.67195 13.8424 8.28896 13.1585 7.90714 12.4734L9.05554 10.4205H13.6767V11.7763H11.4633V10.5937H9.79509C9.79277 11.3517 9.79438 12.1097 9.796 12.8676V12.8677V12.8678V12.8678V12.8678C9.79847 14.031 9.80095 15.1938 9.78921 16.3557C9.83101 16.7448 9.56897 16.9831 9.30861 17.2199C9.19207 17.3259 9.07586 17.4315 8.9874 17.5503H12.2751C11.7676 17.134 11.3294 16.6365 11.421 15.9137C12.6028 15.9065 13.7837 15.9074 14.9643 15.9083H14.9647H14.9648H14.9648C15.7307 15.9088 16.4964 15.9094 17.2623 15.9078C17.3693 15.7211 17.4716 15.5304 17.5741 15.3395C17.9415 14.6551 18.3106 13.9677 18.8994 13.4511C18.3641 13.3781 17.825 13.377 17.2862 13.376H17.2862C17.0588 13.3756 16.8314 13.3752 16.6044 13.3693C16.4722 13.7677 16.3066 14.1517 16.1203 14.528C15.8648 14.5262 15.6093 14.5262 15.3567 14.5262C15.3593 13.6518 15.3577 12.7771 15.356 11.9023V11.9023V11.9023V11.9019C15.354 10.7908 15.3519 9.6797 15.3585 8.56892C15.3374 8.24365 15.4936 7.96843 15.6484 7.69575L15.6485 7.69574L15.6485 7.69574C15.7049 7.5964 15.7611 7.49741 15.8084 7.39645H13.2332C13.5663 7.88025 13.7219 8.44349 13.712 9.03301C12.9507 9.04078 12.1876 9.04078 11.4269 9.03301C11.4152 8.43991 11.6037 7.8922 11.9115 7.39645ZM11.4639 14.5262V13.1704H13.6767V14.5262H11.4639ZM15.5259 9.03899H17.2588C17.399 9.26841 17.5263 9.50825 17.6538 9.74836L17.6538 9.74837C17.9577 10.3209 18.2624 10.8949 18.7449 11.3326C18.7527 11.3579 18.7639 11.3979 18.7746 11.4362L18.7746 11.4363L18.7746 11.4364C18.7833 11.4674 18.7917 11.4974 18.7978 11.5177C18.355 11.577 17.9088 11.5726 17.462 11.5683H17.462C17.1703 11.5654 16.8782 11.5626 16.5868 11.5774C16.4928 11.1635 16.3083 10.7831 16.1039 10.4187L15.5259 10.4205V9.03899ZM15.2751 16.0792C14.7628 16.081 14.2488 16.0828 13.7372 16.081C13.7758 16.6842 13.3782 17.0594 12.9889 17.4269C12.9453 17.468 12.9018 17.509 12.859 17.5503H16.1703C15.7209 17.1561 15.2633 16.744 15.2751 16.0792Z" fill="white"/>
</svg>
