<svg width="49" height="49" viewBox="0 0 49 49" fill="none" xmlns="http://www.w3.org/2000/svg">
<path d="M24.9458 48.3209C38.2006 48.3209 48.9458 37.5758 48.9458 24.3209C48.9458 11.0661 38.2006 0.320923 24.9458 0.320923C11.691 0.320923 0.945801 11.0661 0.945801 24.3209C0.945801 37.5758 11.691 48.3209 24.9458 48.3209Z" fill="#35A4F3"/>
<path fill-rule="evenodd" clip-rule="evenodd" d="M13.2651 12.8075C14.5595 11.3841 16.7992 11.0077 18.5245 11.8199C18.9918 12.0325 19.4095 12.3419 19.7718 12.7033C21.5061 14.4088 23.2298 16.1242 24.9352 17.8595C25.7748 17.0496 26.5958 16.2206 27.4168 15.3916L27.4169 15.3915C28.3792 14.4198 29.3414 13.4481 30.3335 12.5073C32.0754 10.8911 35.105 11.0772 36.669 12.853C38.2561 14.494 38.2677 17.3765 36.6855 19.0241C34.9388 20.8007 33.173 22.559 31.4072 24.3174L31.4071 24.3176C32.1179 25.0404 32.8366 25.7557 33.5553 26.4709C34.6177 27.5282 35.6803 28.5857 36.7178 29.6681C38.3488 31.3662 38.2189 34.3669 36.5036 35.9608C35.0537 37.4339 32.5675 37.653 30.8455 36.5373C30.4699 36.3058 30.1594 35.9941 29.8501 35.6835C29.7725 35.6056 29.6949 35.5278 29.6165 35.4513C28.7227 34.5646 27.835 33.6722 26.9473 32.7799L26.9469 32.7796C26.2862 32.1154 25.6256 31.4514 24.9625 30.7897C24.1792 31.5497 23.409 32.3228 22.6387 33.0958C21.6058 34.1326 20.5729 35.1692 19.5087 36.1742C17.7347 37.7837 14.677 37.5364 13.1477 35.706C11.778 34.2123 11.6548 31.7731 12.8011 30.1156C13.0081 29.8095 13.2691 29.5476 13.5293 29.2866L13.5293 29.2866L13.5293 29.2865C13.5988 29.2168 13.6682 29.1472 13.7366 29.0768C15.1012 27.6856 16.4833 26.3109 17.8736 24.9445L18.2119 25.2839C18.7473 25.8212 19.2828 26.3585 19.8239 26.8907C19.2126 27.5167 18.5912 28.1329 17.9698 28.749L17.9698 28.749C17.0255 29.6853 16.0812 30.6216 15.1724 31.5928C14.5082 32.2975 14.7324 33.4968 15.437 34.0907C15.8539 34.4794 16.4734 34.5679 17.0143 34.4439C17.5303 34.2919 17.9178 33.908 18.2925 33.5368C18.346 33.4839 18.3993 33.4311 18.4526 33.3794C19.1702 32.6539 19.8908 31.931 20.6114 31.2081C21.4041 30.4129 22.1969 29.6176 22.9858 28.8187C21.6896 27.5162 20.3882 26.2188 19.0869 24.9214L19.0867 24.9213C17.1348 22.9753 15.1829 21.0294 13.2486 19.0663C11.606 17.4145 11.6242 14.4535 13.2651 12.8075ZM15.112 14.8984C14.6265 15.5725 14.6505 16.6122 15.2898 17.1821C16.2464 18.182 17.2276 19.1581 18.2088 20.1341L18.2088 20.1341L18.2089 20.1342C18.9515 20.8729 19.6941 21.6116 20.426 22.3606C20.9112 21.9044 21.3803 21.431 21.8495 20.9575L21.8495 20.9575C22.2249 20.5787 22.6004 20.1999 22.9841 19.8297L22.6496 19.4917L22.6495 19.4916C21.0607 17.8863 19.4719 16.281 17.8629 14.6966C17.5883 14.427 17.2335 14.2376 16.853 14.1731C16.1971 14.0432 15.4908 14.355 15.112 14.8984ZM26.8883 19.8281C28.6113 18.0983 30.3342 16.3685 32.0754 14.6569C32.4467 14.3095 32.9604 14.1094 33.4707 14.1474C33.9661 14.1962 34.4483 14.4477 34.7452 14.853C35.1182 15.3616 35.2224 16.0688 34.9768 16.6544C34.8738 16.9052 34.6853 17.1027 34.5006 17.2963C34.4806 17.3173 34.4606 17.3382 34.4408 17.3591C33.5924 18.254 32.7146 19.1201 31.8369 19.9863C31.0418 20.7709 30.2466 21.5555 29.4734 22.3615C28.883 21.809 28.3113 21.2366 27.7396 20.6641C27.6633 20.5878 27.587 20.5114 27.5107 20.4351C26.8722 21.091 26.2271 21.7403 25.5729 22.3805C27.8946 24.7252 30.2317 27.0556 32.569 29.3861C33.0885 29.9041 33.608 30.4221 34.1274 30.9402C34.5955 31.386 35.0628 31.922 35.1265 32.5936C35.143 33.1354 34.9296 33.6986 34.5028 34.046C33.8677 34.5985 32.7891 34.6812 32.1697 34.0609C30.8515 32.8177 29.5793 31.5267 28.3076 30.2362C27.8397 29.7614 27.372 29.2868 26.902 28.8146C27.2998 28.4264 27.691 28.032 28.0824 27.6375C28.3307 27.3873 28.579 27.137 28.8291 26.8882C28.3652 26.4383 27.9091 25.9806 27.453 25.5229C27.261 25.3302 27.069 25.1375 26.8764 24.9453C26.5567 25.2687 26.2346 25.5898 25.9124 25.9109C25.5903 26.2321 25.2681 26.5532 24.9484 26.8766C24.1223 26.0285 23.2738 25.2027 22.4248 24.3765L22.3787 24.3316C23.8899 22.8385 25.3891 21.3333 26.8883 19.8281Z" fill="white"/>
</svg>
