<svg width="29" height="34" viewBox="0 0 29 34" fill="none" xmlns="http://www.w3.org/2000/svg">
<path d="M14.0631 33.1575L0.0703125 25.0789V8.9211L14.0631 0.842491L28.0558 8.92138V25.0789L14.0631 33.1575ZM1.35742 24.3357L14.0631 31.6711L26.7687 24.3354V9.66428L14.0631 2.32885L1.35742 9.66428V24.3357Z" fill="#06032B"/>
<path d="M14.0633 33.2389L0 25.1195V8.88053L14.0633 0.761055L28.1265 8.88053V25.1195L14.0633 33.2389ZM0.140914 25.038L14.0633 33.0761L27.9856 25.038V8.96198L14.0633 0.92367L0.140914 8.96198V25.038ZM14.0633 31.7526L1.28711 24.3763V9.62371L14.0633 2.24742L26.8394 9.62371V24.3763L14.0633 31.7526ZM1.42803 24.2948L14.0633 31.59L26.6985 24.2951V9.70516L14.0633 2.41003L1.42803 9.70516V24.2948Z" fill="#06032B"/>
<path d="M14.7222 16.9713H13.4351V32.4146H14.7222V16.9713Z" fill="#06032B"/>
<path d="M14.793 32.4848H13.365V16.9008H14.793V32.4848ZM13.5056 32.3439H14.6518V17.0417H13.5056V32.3439Z" fill="#06032B"/>
<path d="M1.05154 8.73524L0.407471 9.84962L13.7483 17.5601L14.3924 16.4457L1.05154 8.73524Z" fill="#06032B"/>
<path d="M13.7734 17.6575L0.311279 9.87567L1.026 8.63929L14.4884 16.4211L13.7734 17.6575ZM0.503768 9.82437L13.7221 17.465L14.2959 16.4727L1.07757 8.83177L0.503768 9.82437Z" fill="#06032B"/>
<path d="M27.1045 8.73532L13.7407 16.4575L14.3847 17.5719L27.7484 9.8497L27.1045 8.73532Z" fill="#06032B"/>
<path d="M14.3595 17.6685L13.645 16.4318L13.7062 16.3966L27.1319 8.639L27.8463 9.87566L14.3595 17.6685ZM13.8375 16.4837L14.411 17.4763L27.6536 9.82437L27.0801 8.83177L13.8375 16.4837Z" fill="#06032B"/>
<path d="M25.183 10.5816L14.0638 29.8395L2.95213 10.5816H25.183ZM27.4126 9.29454H0.723145L14.0632 32.4143L27.4126 9.29454Z" fill="#06032B"/>
<path d="M14.0631 32.5552L0.601318 9.22408H27.5345L14.0631 32.5552ZM0.8451 9.365L14.0631 32.2734L27.2905 9.36471H0.8451V9.365ZM14.0634 29.9804L2.83002 10.5112H25.305L14.0634 29.9804ZM3.07408 10.6521L14.0637 29.6986L25.0609 10.6521H3.07408Z" fill="#06032B"/>
</svg>
