<svg width="37" height="37" viewBox="0 0 37 37" fill="none" xmlns="http://www.w3.org/2000/svg">
<path d="M18.4999 36.119C28.2306 36.119 36.119 28.2306 36.119 18.4999C36.119 8.76918 28.2306 0.880859 18.4999 0.880859C8.76918 0.880859 0.880859 8.76918 0.880859 18.4999C0.880859 28.2306 8.76918 36.119 18.4999 36.119Z" fill="#039BE5"/>
<path fill-rule="evenodd" clip-rule="evenodd" d="M22.3407 24.2264C22.8693 24.8872 23.5036 25.6536 23.5036 25.6536C24.5523 25.6802 25.5918 25.4501 26.5314 24.9834C27.471 24.5165 28.2824 23.8272 28.895 22.9755C28.8378 19.4036 27.9702 15.8913 26.3579 12.7035C24.9388 11.5891 23.2088 10.9427 21.4069 10.8535L21.1603 11.1354C22.7638 11.5597 24.2591 12.3193 25.5474 13.3642C23.9067 12.4599 22.1052 11.8853 20.2441 11.6728C19.0624 11.5518 17.8704 11.5725 16.6938 11.7345C16.5931 11.7375 16.4929 11.7493 16.3943 11.7697C15.0115 11.9242 13.6617 12.2958 12.3947 12.8709C11.7428 13.1616 11.3552 13.3818 11.3552 13.3818C12.709 12.2827 14.288 11.4947 15.9802 11.0738L15.804 10.8535C14.002 10.9427 12.272 11.5891 10.8531 12.7035C9.24064 15.8913 8.37311 19.4036 8.31592 22.9755C8.92353 23.8281 9.73143 24.5182 10.6685 24.9853C11.6056 25.4522 12.6431 25.6818 13.6897 25.6536C13.6897 25.6536 14.3416 24.8519 14.8702 24.1912C13.6315 23.8786 12.5409 23.1434 11.7869 22.1122C12.4163 22.5311 13.0899 22.8798 13.7954 23.1517C14.6339 23.4826 15.5008 23.7361 16.3854 23.9093C17.8923 24.199 19.4398 24.2049 20.9488 23.9269C21.8266 23.7733 22.684 23.519 23.5036 23.1693C24.2159 22.9004 24.8957 22.5516 25.5298 22.1298C24.7475 23.183 23.6178 23.9257 22.3407 24.2264ZM14.029 18.0508C14.3627 17.6885 14.8205 17.465 15.3115 17.4246C15.5584 17.4333 15.8012 17.4911 16.0256 17.5944C16.2501 17.6977 16.4518 17.8446 16.619 18.0267C16.7862 18.2087 16.9155 18.422 16.9996 18.6544C17.0837 18.8866 17.1207 19.1335 17.1086 19.3803C17.1192 19.6268 17.0811 19.873 16.9966 20.1046C16.912 20.3363 16.7825 20.5492 16.6156 20.7308C16.4486 20.9125 16.2476 21.0594 16.0238 21.1632C15.8 21.2671 15.5579 21.3258 15.3115 21.336C14.8205 21.2957 14.3627 21.0721 14.029 20.7099C13.6953 20.3474 13.51 19.873 13.51 19.3803C13.51 18.8877 13.6953 18.4132 14.029 18.0508ZM20.6102 17.6725C20.9541 17.4777 21.3486 17.3913 21.7424 17.4246C21.9889 17.4348 22.231 17.4935 22.4547 17.5973C22.6785 17.7012 22.8795 17.8482 23.0464 18.0298C23.2134 18.2115 23.3429 18.4241 23.4275 18.656C23.512 18.8877 23.5501 19.1338 23.5395 19.3803C23.5395 19.7755 23.4203 20.1614 23.197 20.4875C22.974 20.8136 22.6577 21.0651 22.2896 21.2085C21.9214 21.3519 21.5185 21.3808 21.1335 21.2915C20.7487 21.2021 20.3996 20.9986 20.1324 20.7077C19.8649 20.4167 19.6917 20.0518 19.6352 19.6608C19.5786 19.2697 19.6413 18.8706 19.8154 18.5159C19.9893 18.1611 20.2664 17.8672 20.6102 17.6725Z" fill="white"/>
</svg>
