<svg width="41" height="41" viewBox="0 0 41 41" fill="none" xmlns="http://www.w3.org/2000/svg">
<path d="M20.8027 40.25C31.8484 40.25 40.8027 31.2957 40.8027 20.25C40.8027 9.2043 31.8484 0.25 20.8027 0.25C9.75704 0.25 0.802734 9.2043 0.802734 20.25C0.802734 31.2957 9.75704 40.25 20.8027 40.25Z" fill="#2B75BA"/>
<path d="M20.5694 18.9667C17.9211 18.2783 17.0694 17.5667 17.0694 16.4583C17.0694 15.1867 18.2477 14.3 20.2194 14.3C21.8761 14.3 22.7044 14.93 23.0077 15.9333C23.1477 16.4 23.5327 16.75 24.0227 16.75H24.3727C25.1427 16.75 25.6911 15.9917 25.4227 15.2683C24.9327 13.8917 23.7894 12.7483 21.9694 12.305V11.5C21.9694 10.5317 21.1877 9.75 20.2194 9.75C19.2511 9.75 18.4694 10.5317 18.4694 11.5V12.27C16.2061 12.76 14.3861 14.23 14.3861 16.4817C14.3861 19.1767 16.6144 20.5183 19.8694 21.3C22.7861 22 23.3694 23.0267 23.3694 24.1117C23.3694 24.9167 22.7977 26.2 20.2194 26.2C18.2944 26.2 17.3027 25.5117 16.9177 24.5317C16.7427 24.0767 16.3461 23.75 15.8677 23.75H15.5411C14.7594 23.75 14.2111 24.5433 14.5027 25.2667C15.1677 26.8883 16.7194 27.845 18.4694 28.2183V29C18.4694 29.9683 19.2511 30.75 20.2194 30.75C21.1877 30.75 21.9694 29.9683 21.9694 29V28.2417C24.2444 27.81 26.0527 26.4917 26.0527 24.1C26.0527 20.7867 23.2177 19.655 20.5694 18.9667Z" fill="white"/>
</svg>
