<svg width="23" height="21" viewBox="0 0 23 21" fill="none" xmlns="http://www.w3.org/2000/svg">
<path
    d="M6.39172 8.92072C6.39172 9.58106 6.9289 10.1185 7.58948 10.1185C8.25006 10.1185 8.78724 9.58106 8.78724 8.92072C8.78724 8.26038 8.24982 7.72296 7.58948 7.72296C6.92914 7.72296 6.39172 8.26038 6.39172 8.92072ZM8.09498 8.92072C8.09498 9.19944 7.8682 9.42622 7.58948 9.42622C7.31077 9.42622 7.08398 9.19944 7.08398 8.92072C7.08398 8.64201 7.31077 8.41522 7.58948 8.41522C7.8682 8.41522 8.09498 8.64201 8.09498 8.92072Z"
    fill="#55C6AE"
  />
<path
    d="M18.2064 5.20525C18.0384 5.11425 17.8283 5.17547 17.7366 5.34318C17.6449 5.51088 17.7068 5.72123 17.8745 5.81294C20.2529 7.11099 21.6727 9.20564 21.6727 11.4161C21.6727 13.4528 20.8587 14.9567 19.0335 16.2924C18.9658 16.3422 18.9184 16.4148 18.8998 16.4965L18.2176 19.57H16.9405L16.5338 18.0038C16.5091 17.9092 16.4457 17.8291 16.359 17.7839C16.2723 17.7386 16.1699 17.7324 16.0784 17.7662C14.9454 18.1872 14.0869 18.3223 12.5444 18.3223C11.0801 18.3223 10.0334 18.2193 8.69885 17.6772C8.60523 17.6388 8.4997 17.6436 8.41013 17.69C8.32033 17.7362 8.25529 17.8196 8.23195 17.9178L7.83936 19.5703H6.57347L5.90122 16.2545C5.88312 16.1654 5.83071 16.0871 5.75543 16.0363C2.87347 14.0948 1.41248 12.4197 1.41248 11.0571V9.74997C1.41248 9.18897 1.80959 8.73254 2.29746 8.73254H3.83468L3.86469 8.73231C3.87827 8.73207 3.89066 8.73135 3.904 8.73254C4.03621 8.74469 4.16533 8.68061 4.23393 8.56579C4.73181 7.73441 5.45337 6.98521 6.37837 6.33917C6.47104 6.27437 6.5263 6.16836 6.5263 6.05545V3.17754C7.76099 3.30641 8.63096 4.11159 8.96518 4.91033C9.03879 5.08662 9.24175 5.16975 9.41803 5.09614C9.59432 5.0223 9.67769 4.81957 9.60384 4.64329C9.15099 3.56035 7.91678 2.46741 6.18017 2.46741C5.98888 2.46741 5.83404 2.62225 5.83404 2.81354V5.87702C4.96026 6.5114 4.25871 7.23772 3.74511 8.04028H2.29746C1.42772 8.04028 0.720215 8.80734 0.720215 9.74997V11.0571C0.720215 13.4014 3.99786 15.6845 5.25065 16.5309L5.95101 19.985C5.98364 20.1463 6.12538 20.2623 6.29023 20.2623H8.11284C8.27316 20.2623 8.41252 20.1522 8.44968 19.9962L8.81391 18.4628C10.0791 18.9223 11.1299 19.0143 12.5444 19.0143C13.8489 19.0143 14.7753 18.9376 15.9586 18.5426L16.3378 20.0031C16.3773 20.1558 16.515 20.2623 16.6727 20.2623H18.4953C18.6576 20.2623 18.7981 20.1494 18.8334 19.9912L19.548 16.7729C21.469 15.33 22.3652 13.6246 22.3652 11.4161C22.3652 8.94813 20.8103 6.62646 18.2064 5.20525Z"
    fill="#55C6AE"
  />
<path
    d="M11.3559 6.18742C11.4607 6.19314 11.5584 6.15097 11.6275 6.07474C12.0972 5.55948 12.8505 5.25194 13.6421 5.25194C14.4272 5.25194 15.1562 5.55853 15.6422 6.09309C15.7077 6.1655 15.801 6.20648 15.8982 6.20648C15.903 6.20648 15.9075 6.20648 15.9123 6.20624C16.0147 6.20219 16.11 6.15288 16.1727 6.07165C16.6057 5.50945 16.8344 4.83625 16.8342 4.12517C16.8342 2.36497 15.402 0.933044 13.6421 0.933044C11.8821 0.933044 10.45 2.36497 10.45 4.12517C10.45 4.82672 10.6734 5.49278 11.096 6.05068C11.1579 6.13239 11.2532 6.18266 11.3559 6.18742ZM13.6421 1.62507C15.0204 1.62507 16.1419 2.7466 16.1419 4.12517C16.1422 4.5511 16.0376 4.95941 15.8368 5.3246C15.2434 4.83434 14.4656 4.55968 13.6423 4.55968C12.8074 4.55968 12.0262 4.82743 11.4376 5.3053C11.2437 4.94464 11.1425 4.543 11.1425 4.12493C11.1422 2.7466 12.2635 1.62507 13.6421 1.62507Z"
    fill="#55C6AE"
  />
</svg>
