<svg width="44" height="44" viewBox="0 0 44 44" fill="none" xmlns="http://www.w3.org/2000/svg">
<path d="M43.4302 38.6677V5.33227C43.4302 2.71306 41.2872 0.570068 38.6679 0.570068H5.33252C2.7133 0.570068 0.570312 2.71306 0.570312 5.33227V38.6677C0.570312 41.2869 2.7133 43.4299 5.33252 43.4299H38.6679C41.2872 43.4299 43.4302 41.2869 43.4302 38.6677ZM14.6188 26.7146L19.6191 32.7388L27.0005 23.2382C27.4768 22.6191 28.4292 22.6191 28.9054 23.262L37.2631 34.4055C37.8584 35.1913 37.2869 36.3104 36.3107 36.3104H7.76124C6.76118 36.3104 6.21353 35.1675 6.83261 34.3817L12.7616 26.7622C13.214 26.1431 14.1188 26.1193 14.6188 26.7146Z" fill="#0276F0"/>
</svg>
