<svg width="29" height="28" viewBox="0 0 29 28" fill="none" xmlns="http://www.w3.org/2000/svg">
<g filter="url(#filter0_d_3971_16926)">
<path d="M14.3521 25C20.9795 25 26.3521 19.6274 26.3521 13C26.3521 6.37258 20.9795 1 14.3521 1C7.72463 1 2.35205 6.37258 2.35205 13C2.35205 19.6274 7.72463 25 14.3521 25Z" fill="url(#paint0_linear_3971_16926)"/>
</g>
<path d="M22.2902 18.229L21.1487 19.4126C19.4317 21.1928 17.3241 22.0934 14.8282 22.1168C12.0585 22.1425 9.56025 20.5285 8.40702 17.9647C7.89473 16.8278 7.69356 15.5483 7.86198 14.2617C8.01871 13.0617 8.48889 11.9506 9.19066 11.0242C9.65382 10.4114 10.2199 9.87803 10.8632 9.44995L10.8445 9.46866C9.8199 10.5307 9.30528 11.7985 9.3006 13.2722C9.29592 14.7483 9.82224 15.9974 10.8842 17.0196C11.9462 18.0442 13.2141 18.5284 14.6878 18.4699C16.1615 18.4115 17.4106 17.8524 18.4329 16.7927L18.8726 16.3366C19.6259 17.4337 20.8703 18.1682 22.2902 18.229Z" fill="white"/>
<path d="M21.7945 7.64881C20.5149 7.84764 19.4202 8.60555 18.7628 9.66053L18.3605 9.27222C15.5698 6.57745 10.854 7.62074 8.61067 10.5845C7.83406 11.6114 7.31709 12.8395 7.14165 14.1682C6.95451 15.5904 7.17908 17.0033 7.74283 18.2595C7.99546 18.8209 8.31593 19.3519 8.69956 19.8384C8.60366 19.7542 8.51009 19.6653 8.41652 19.5764C6.63638 17.8595 5.71005 15.7495 5.63988 13.2489C5.5697 10.7483 6.3931 8.60788 8.11008 6.83008C9.82706 5.04994 11.9277 4.15403 14.4143 4.14233C16.9008 4.13063 19.0389 4.98679 20.8284 6.71546L21.7945 7.64881Z" fill="white"/>
<path d="M14.1378 12.4302H13.3144C13.1506 12.1284 12.8535 11.9693 12.4746 11.9693C11.836 11.9693 11.3892 12.4255 11.3892 13.1366C11.3892 13.8641 11.8407 14.3132 12.505 14.3132C13.0571 14.3132 13.4103 13.9951 13.5179 13.4898H12.2898V12.9425H14.2243V13.567C14.0816 14.2945 13.4313 14.9589 12.4793 14.9589C11.4407 14.9589 10.6523 14.2056 10.6523 13.1366C10.6523 12.0676 11.4407 11.3097 12.4746 11.3097C13.2723 11.3097 13.9062 11.7144 14.1378 12.4302Z" fill="white"/>
<path d="M15.4736 11.3564V14.36H16.6502V14.9284H14.7578V11.3564H15.4736Z" fill="white"/>
<path d="M17.3662 11.8805C17.289 11.8946 17.2142 11.8431 17.2002 11.7636C17.1861 11.6864 17.2376 11.6115 17.3171 11.5975C17.4598 11.5717 17.6072 11.5507 17.7569 11.539C17.9043 11.525 18.0516 11.5179 18.2037 11.5179C18.6154 11.5179 19.0177 11.5694 19.4013 11.663C19.7967 11.7612 20.1756 11.9063 20.5265 12.0934C20.5967 12.1308 20.6248 12.2174 20.5873 12.2875C20.5499 12.3577 20.4633 12.3858 20.3932 12.3484C20.061 12.1729 19.7054 12.0349 19.3335 11.9437C18.9733 11.8548 18.5943 11.808 18.206 11.808C18.0657 11.808 17.9253 11.815 17.785 11.8267C17.6423 11.8361 17.5042 11.8548 17.3662 11.8805ZM16.9545 12.5519C16.8797 12.5753 16.7978 12.5332 16.7744 12.4583C16.751 12.3835 16.7931 12.3016 16.868 12.2782C17.0809 12.2104 17.3007 12.1589 17.5253 12.1238L17.537 12.1215C17.7545 12.0887 17.9768 12.07 18.199 12.07C18.6645 12.07 19.1113 12.1425 19.5323 12.2758C19.9674 12.4139 20.3745 12.6174 20.7394 12.877C20.8049 12.9215 20.8189 13.0127 20.7745 13.0782C20.7277 13.1437 20.6388 13.1577 20.5733 13.1133C20.2318 12.8723 19.8528 12.6805 19.4435 12.5519C19.0505 12.4279 18.6317 12.3601 18.1967 12.3601C17.9838 12.3601 17.7779 12.3764 17.5768 12.4045L17.5651 12.4068C17.3592 12.4419 17.1534 12.4911 16.9545 12.5519ZM16.8446 13.1811C16.7721 13.2115 16.6879 13.1764 16.6575 13.1016C16.627 13.0291 16.6621 12.9449 16.7346 12.9145C16.9639 12.8209 17.2048 12.746 17.4528 12.6969C17.6937 12.6501 17.944 12.6244 18.199 12.6244C18.6598 12.6244 19.1043 12.7063 19.516 12.856C19.9417 13.0104 20.3347 13.2396 20.6739 13.525C20.7347 13.5765 20.7417 13.6677 20.6926 13.7285C20.6411 13.7893 20.5499 13.7963 20.4891 13.7472C20.1733 13.4829 19.8107 13.2724 19.4177 13.1273C19.0388 12.9893 18.6294 12.9145 18.199 12.9145C17.9627 12.9145 17.7312 12.9378 17.5066 12.9823C17.2773 13.0267 17.0551 13.0946 16.8446 13.1811ZM16.9241 13.7519C16.8516 13.7846 16.7674 13.7542 16.7323 13.6817C16.6996 13.6092 16.73 13.525 16.8025 13.4899C17.0177 13.3893 17.2469 13.3098 17.4832 13.2583C17.7148 13.2069 17.9557 13.1788 18.199 13.1788C18.6224 13.1788 19.0271 13.2583 19.399 13.4033C19.785 13.5531 20.1359 13.7753 20.4353 14.0513C20.4938 14.1051 20.4984 14.1963 20.4446 14.2548C20.3908 14.3133 20.2996 14.318 20.2411 14.2642C19.9674 14.0115 19.647 13.8104 19.2937 13.6724C18.9546 13.5414 18.585 13.4665 18.199 13.4665C17.9721 13.4665 17.7522 13.4899 17.544 13.5367C17.3288 13.5881 17.1206 13.6607 16.9241 13.7519ZM17.151 14.2572C17.0785 14.2899 16.992 14.2595 16.9592 14.1893C16.9241 14.1168 16.9569 14.0326 17.0271 13.9975C17.2072 13.9133 17.399 13.8455 17.5978 13.801C17.792 13.7566 17.9931 13.7355 18.199 13.7355C18.5522 13.7355 18.8914 13.8034 19.2025 13.925C19.5253 14.0513 19.8177 14.2384 20.068 14.47C20.1265 14.5238 20.1288 14.6151 20.075 14.6735C20.0212 14.732 19.93 14.7344 19.8715 14.6806C19.6493 14.4724 19.385 14.3063 19.0973 14.194C18.8189 14.0864 18.5171 14.0256 18.199 14.0256C18.0119 14.0256 17.8317 14.0466 17.6586 14.0841C17.4855 14.1215 17.3148 14.18 17.151 14.2572ZM17.523 14.7016C17.4481 14.7297 17.3662 14.6923 17.3358 14.6174C17.3078 14.5425 17.3452 14.4607 17.42 14.4303C17.5417 14.3835 17.6703 14.3484 17.8037 14.3227H17.8083C17.937 14.2993 18.068 14.2876 18.2013 14.2876C18.454 14.2876 18.6949 14.3297 18.9241 14.4092C19.1581 14.4911 19.3756 14.6127 19.5651 14.7624C19.6283 14.8116 19.6376 14.9028 19.5885 14.9659C19.5394 15.0291 19.4481 15.0385 19.3873 14.9893C19.2212 14.8583 19.0341 14.7531 18.8306 14.6829C18.6341 14.6151 18.4236 14.5776 18.2037 14.5776C18.0867 14.5776 17.9721 14.587 17.8621 14.608H17.8575C17.7428 14.6291 17.6306 14.6595 17.523 14.7016ZM18.7323 14.9589C18.8119 14.9589 18.8774 15.0244 18.8774 15.104C18.8774 15.1835 18.8119 15.249 18.7323 15.249C18.6247 15.249 18.5171 15.2396 18.4095 15.2233C18.3019 15.2069 18.1967 15.1811 18.0961 15.1484C18.0212 15.125 17.9791 15.0431 18.0025 14.9683C18.0259 14.8934 18.1078 14.8513 18.1826 14.8747C18.2715 14.9028 18.3604 14.9238 18.4516 14.9379C18.5429 14.9519 18.6341 14.9589 18.7323 14.9589ZM18.2949 11.3519C18.2177 11.3706 18.1405 11.3238 18.1195 11.2466C18.1007 11.1694 18.1475 11.0922 18.2247 11.0735C18.3066 11.0524 18.3908 11.0384 18.4727 11.0291C18.5569 11.0197 18.6388 11.015 18.723 11.015C18.9405 11.015 19.1487 11.0478 19.3475 11.1109C19.5511 11.1741 19.7429 11.27 19.9136 11.3916C19.9791 11.4361 19.9955 11.5273 19.9487 11.5928C19.9043 11.6583 19.813 11.6747 19.7476 11.6279C19.6002 11.525 19.4364 11.4431 19.2587 11.3869C19.0902 11.3331 18.9078 11.3051 18.7206 11.3051C18.6458 11.3051 18.5733 11.3098 18.5031 11.3191C18.4353 11.3215 18.3627 11.3355 18.2949 11.3519Z" fill="white"/>
<defs>
<filter id="filter0_d_3971_16926" x="0.352051" y="0" width="28" height="28" filterUnits="userSpaceOnUse" color-interpolation-filters="sRGB">
<feFlood flood-opacity="0" result="BackgroundImageFix"/>
<feColorMatrix in="SourceAlpha" type="matrix" values="0 0 0 0 0 0 0 0 0 0 0 0 0 0 0 0 0 0 127 0" result="hardAlpha"/>
<feOffset dy="1"/>
<feGaussianBlur stdDeviation="1"/>
<feComposite in2="hardAlpha" operator="out"/>
<feColorMatrix type="matrix" values="0 0 0 0 0 0 0 0 0 0 0 0 0 0 0 0 0 0 0.2 0"/>
<feBlend mode="normal" in2="BackgroundImageFix" result="effect1_dropShadow_3971_16926"/>
<feBlend mode="normal" in="SourceGraphic" in2="effect1_dropShadow_3971_16926" result="shape"/>
</filter>
<linearGradient id="paint0_linear_3971_16926" x1="2.35205" y1="13" x2="26.3521" y2="13" gradientUnits="userSpaceOnUse">
<stop stop-color="#00E5FF"/>
<stop offset="1" stop-color="#0276F0"/>
</linearGradient>
</defs>
</svg>
