<svg width="41" height="41" viewBox="0 0 41 41" fill="none" xmlns="http://www.w3.org/2000/svg">
<path d="M20.8027 40.25C31.8484 40.25 40.8027 31.2957 40.8027 20.25C40.8027 9.2043 31.8484 0.25 20.8027 0.25C9.75704 0.25 0.802734 9.2043 0.802734 20.25C0.802734 31.2957 9.75704 40.25 20.8027 40.25Z" fill="#2BBAA7"/>
<path d="M31.8027 26.25V14.25C31.8027 13.15 30.9027 12.25 29.8027 12.25H11.8027C10.7027 12.25 9.80273 13.15 9.80273 14.25V26.25C9.80273 27.35 10.7027 28.25 11.8027 28.25H29.8027C30.9027 28.25 31.8027 27.35 31.8027 26.25ZM17.7027 21.23L19.8027 23.76L22.9027 19.77C23.1027 19.51 23.5027 19.51 23.7027 19.78L27.2127 24.46C27.4627 24.79 27.2227 25.26 26.8127 25.26H14.8227C14.4027 25.26 14.1727 24.78 14.4327 24.45L16.9227 21.25C17.1127 20.99 17.4927 20.98 17.7027 21.23Z" fill="white"/>
</svg>
