<svg width="41" height="41" viewBox="0 0 41 41" fill="none" xmlns="http://www.w3.org/2000/svg">
<path d="M20.8027 40.25C31.8484 40.25 40.8027 31.2957 40.8027 20.25C40.8027 9.2043 31.8484 0.25 20.8027 0.25C9.75704 0.25 0.802734 9.2043 0.802734 20.25C0.802734 31.2957 9.75704 40.25 20.8027 40.25Z" fill="#2BBAA7"/>
<path d="M31.4778 26.25C31.7668 26.25 32.0028 26.486 32.0028 26.775V28.525C32.0023 28.6641 31.9468 28.7973 31.8484 28.8956C31.7501 28.994 31.6169 29.0495 31.4778 29.05H10.1278C9.98871 29.0495 9.85548 28.994 9.75713 28.8956C9.65879 28.7973 9.60331 28.6641 9.60278 28.525V12.775C9.60278 12.486 9.83878 12.25 10.1278 12.25H11.8778C12.1668 12.25 12.4028 12.486 12.4028 12.775V26.25H31.4778ZM25.9078 16.428L22.2028 18.9L18.4708 13.926C18.4191 13.8573 18.3514 13.8023 18.2736 13.7658C18.1958 13.7293 18.1102 13.7125 18.0244 13.7167C17.9385 13.721 17.855 13.7462 17.7812 13.7902C17.7073 13.8341 17.6454 13.8955 17.6008 13.969L13.8028 20.3V24.85H30.6028L26.6698 16.634C26.6369 16.5671 26.59 16.5079 26.5325 16.4605C26.4749 16.413 26.4079 16.3784 26.3359 16.3589C26.2639 16.3395 26.1885 16.3355 26.1149 16.3474C26.0412 16.3593 25.971 16.3868 25.9088 16.428H25.9078Z" fill="white"/>
</svg>
