<svg width="25" height="24" viewBox="0 0 25 24" fill="none" xmlns="http://www.w3.org/2000/svg">
<path d="M12.0195 0C5.39211 0 0.0195312 5.37258 0.0195312 12C0.0195312 18.6274 5.39211 24 12.0195 24C18.6469 24 24.0195 18.6274 24.0195 12C24.0195 5.37258 18.6469 0 12.0195 0Z" fill="#6955E3"/>
<path d="M7.06143 12.885V14.9925C7.06143 15.54 7.34477 16.05 7.7981 16.3125L11.3398 18.36C11.7648 18.6075 12.2748 18.6075 12.6998 18.36L16.2414 16.3125C16.6948 16.05 16.9781 15.54 16.9781 14.9925V12.885L12.6998 15.36C12.2748 15.6075 11.7648 15.6075 11.3398 15.36L7.06143 12.885ZM11.3398 5.63996L5.36852 9.08996C4.87977 9.37496 4.87977 10.125 5.36852 10.41L11.3398 13.86C11.7648 14.1075 12.2748 14.1075 12.6998 13.86L18.3948 10.5675V15C18.3948 15.4125 18.7135 15.75 19.1031 15.75C19.4927 15.75 19.8114 15.4125 19.8114 15V10.1925C19.8114 9.91496 19.6698 9.66746 19.4431 9.53246L12.6998 5.63996C12.2748 5.39996 11.7648 5.39996 11.3398 5.63996Z" fill="white"/>
</svg>
