<svg width="96" height="96" viewBox="0 0 96 96" fill="none" xmlns="http://www.w3.org/2000/svg">
<g opacity="0.1" clip-path="url(#clip0)">
<path d="M70.9928 14.6971L71.0057 14.6842C71.0341 14.6584 71.0612 14.6313 71.0883 14.6068C71.5813 14.1319 71.8604 13.4767 71.8638 12.7884C71.8686 12.1014 71.5952 11.4409 71.1088 10.9545L65.6249 5.47058C62.8336 2.67933 58.3028 2.66788 55.5256 5.44507L5.03687 55.9338C2.25969 58.711 2.27113 63.2418 5.06238 66.0331L10.5437 71.5144C11.5437 72.5144 13.161 72.5211 14.1598 71.53C16.9642 68.7464 21.5287 68.7657 24.3368 71.5738C27.1449 74.3819 27.1642 78.9464 24.3806 81.7508C23.3895 82.7496 23.3962 84.3669 24.3962 85.3669L29.8775 90.8482C32.6688 93.6395 37.1996 93.6509 39.9768 90.8737L90.4643 40.3863C93.2414 37.6091 93.23 33.0783 90.4387 30.287L84.9561 24.8044C84.4697 24.318 83.8079 24.0459 83.1222 24.0494C82.4352 24.0541 81.7761 24.3345 81.3038 24.8249C81.2767 24.852 81.2509 24.8804 81.2264 24.9075L81.2135 24.9204C78.4092 27.7144 73.8422 27.7002 71.0276 24.8856C68.213 22.0685 68.1988 17.5014 70.9928 14.6971ZM82.9951 30.0677L86.8253 33.8979C87.6139 34.6865 87.6171 35.9673 86.8325 36.7519L77.1072 46.4773L74.3743 43.7444C73.3717 42.7418 71.7493 42.7377 70.7517 43.7352C69.7542 44.7328 69.7583 46.3552 70.7609 47.3578L73.4951 50.092L36.345 87.242C35.5604 88.0266 34.2796 88.0234 33.491 87.2348L29.6309 83.3748C32.6994 78.6072 32.1345 72.1447 27.9515 67.9617C23.7685 63.7787 17.306 63.2138 12.5384 66.2823L8.67582 62.4196C7.88721 61.631 7.88398 60.3502 8.66861 59.5656L45.8186 22.4156L59.6568 36.2538C60.6595 37.2564 62.2819 37.2605 63.2794 36.2629C64.277 35.2654 64.2729 33.643 63.2703 32.6403L49.4321 18.8021L59.1561 9.0781C59.9407 8.29347 61.2216 8.2967 62.0102 9.08531L65.8403 12.9155C62.6452 17.6983 63.1728 24.2577 67.4115 28.4965C71.6503 32.7352 78.2136 33.2616 82.9951 30.0677Z" fill="#4E4E4E"/>
<path d="M69.0019 41.9842C69.9998 40.9864 69.9957 39.3645 68.9928 38.3616C67.9899 37.3587 66.368 37.3546 65.3702 38.3525C64.3724 39.3503 64.3765 40.9722 65.3793 41.975C66.3822 42.9779 68.0041 42.982 69.0019 41.9842Z" fill="#4E4E4E"/>
<path d="M47.2196 40.4744L41.65 44.625L35.0499 42.3714C34.1254 42.056 33.1052 42.2927 32.4187 42.9793C31.7321 43.6658 31.4953 44.6886 31.8108 45.6106L34.0605 52.2119L29.9099 57.7815C29.3297 58.5615 29.243 59.6053 29.6877 60.4759C30.1324 61.3464 31.0316 61.8895 32.0058 61.8803L38.9674 61.8086L43.0029 67.5036C43.5677 68.3007 44.5351 68.7107 45.4973 68.5605C46.0418 68.4752 46.5315 68.2189 46.9057 67.8447C47.1935 67.5569 47.4139 67.1991 47.537 66.7957L49.5877 60.1509L56.2325 58.1003C57.1633 57.8128 57.847 57.0227 57.996 56.0593C58.1462 55.0971 57.7362 54.1296 56.9391 53.5648L51.2441 49.5294L51.3158 42.5677C51.3262 41.5923 50.7819 40.6943 49.9113 40.2496C49.0434 39.8076 47.9982 39.8929 47.2196 40.4744ZM46.1097 50.8011C46.1015 51.6446 46.5072 52.44 47.1967 52.9282L49.7474 54.7356L46.7714 55.6544C46.3694 55.7789 46.0103 55.9979 45.7225 56.2857C45.4347 56.5735 45.2144 56.9339 45.0912 57.3347L44.1724 60.3106L42.365 57.7599C41.8768 57.0704 41.0801 56.6634 40.2379 56.6729L37.1187 56.7052L38.978 54.2103C39.4809 53.5362 39.6171 52.6555 39.3447 51.8565L38.3358 48.899L41.2933 49.9079C42.0923 50.1803 42.973 50.0441 43.6471 49.5412L46.1419 47.6819L46.1097 50.8011Z" fill="#4E4E4E"/>
</g>
<defs>
<clipPath id="clip0">
<rect width="85.6483" height="49.4125" fill="white" transform="translate(0 60.9707) rotate(-45)"/>
</clipPath>
</defs>
</svg>
