<svg width="36" height="35" viewBox="0 0 36 35" fill="none" xmlns="http://www.w3.org/2000/svg">
<g clip-path="url(#clip0)">
<path d="M26.265 5.49213L26.2696 5.48752C26.2797 5.4783 26.2894 5.46862 26.2991 5.45986C26.4753 5.29018 26.575 5.05604 26.5762 4.8101C26.5779 4.56463 26.4802 4.32861 26.3064 4.15481L24.3469 2.19526C23.3495 1.19788 21.7305 1.19379 20.7382 2.18615L2.69726 20.2271C1.7049 21.2194 1.70899 22.8384 2.70638 23.8358L4.66499 25.7944C5.02233 26.1517 5.60021 26.1541 5.95713 25.8C6.95919 24.8053 8.59019 24.8122 9.5936 25.8156C10.597 26.819 10.6039 28.45 9.60926 29.4521C9.25512 29.809 9.2575 30.3869 9.61484 30.7442L11.5735 32.7028C12.5708 33.7002 14.1898 33.7043 15.1822 32.712L33.2226 14.6715C34.215 13.6792 34.2109 12.0602 33.2135 11.0628L31.2544 9.10372C31.0806 8.92992 30.8441 8.8327 30.5991 8.83393C30.3536 8.83562 30.1181 8.93581 29.9494 9.11106C29.9397 9.12074 29.9305 9.13089 29.9217 9.14058L29.9171 9.14519C28.915 10.1435 27.2831 10.1385 26.2774 9.13276C25.2717 8.12611 25.2666 6.49418 26.265 5.49213ZM30.5537 10.9844L31.9223 12.353C32.2041 12.6348 32.2053 13.0925 31.9249 13.3729L28.4498 16.848L27.4733 15.8715C27.115 15.5132 26.5353 15.5117 26.1788 15.8682C25.8224 16.2246 25.8238 16.8044 26.1821 17.1626L27.1591 18.1396L13.8845 31.4143C13.6041 31.6946 13.1464 31.6935 12.8646 31.4117L11.4853 30.0324C12.5818 28.3288 12.3799 26.0196 10.8852 24.5249C9.39055 23.0302 7.08133 22.8284 5.37776 23.9248L3.99755 22.5446C3.71576 22.2628 3.71461 21.8051 3.99497 21.5248L17.2696 8.25013L22.2144 13.1949C22.5726 13.5531 23.1523 13.5546 23.5088 13.1981C23.8652 12.8417 23.8638 12.262 23.5055 11.9037L18.5608 6.95896L22.0354 3.48432C22.3158 3.20395 22.7735 3.20511 23.0553 3.4869L24.4239 4.85552C23.2822 6.56452 23.4707 8.90839 24.9853 10.423C26.4999 11.9376 28.8452 12.1257 30.5537 10.9844Z" fill="#4E4E4E"/>
<path d="M25.5536 15.2425C25.9102 14.8859 25.9087 14.3064 25.5504 13.948C25.192 13.5897 24.6125 13.5882 24.2559 13.9447C23.8994 14.3013 23.9009 14.8808 24.2592 15.2392C24.6176 15.5975 25.1971 15.599 25.5536 15.2425Z" fill="#4E4E4E"/>
<path d="M17.7702 14.703L15.7801 16.1862L13.4217 15.3809C13.0914 15.2682 12.7268 15.3528 12.4815 15.5981C12.2362 15.8434 12.1516 16.2089 12.2643 16.5383L13.0682 18.8971L11.5851 20.8873C11.3777 21.166 11.3468 21.539 11.5057 21.8501C11.6645 22.1611 11.9859 22.3552 12.334 22.3519L14.8215 22.3263L16.2635 24.3613C16.4653 24.6461 16.811 24.7926 17.1548 24.7389C17.3494 24.7084 17.5244 24.6169 17.6581 24.4831C17.7609 24.3803 17.8397 24.2524 17.8837 24.1083L18.6164 21.734L20.9908 21.0012C21.3234 20.8985 21.5677 20.6162 21.6209 20.2719C21.6746 19.9281 21.5281 19.5824 21.2433 19.3806L19.2083 17.9386L19.2339 15.451C19.2376 15.1025 19.0431 14.7816 18.7321 14.6227C18.4219 14.4648 18.0485 14.4952 17.7702 14.703ZM17.3737 18.393C17.3707 18.6944 17.5157 18.9787 17.7621 19.1531L18.6735 19.7989L17.6101 20.1272C17.4664 20.1717 17.3381 20.25 17.2353 20.3528C17.1325 20.4556 17.0537 20.5844 17.0097 20.7276L16.6814 21.791L16.0356 20.8796C15.8611 20.6332 15.5764 20.4878 15.2755 20.4912L14.1609 20.5027L14.8253 19.6112C15.005 19.3703 15.0537 19.0556 14.9563 18.7702L14.5958 17.7134L15.6526 18.0739C15.9381 18.1712 16.2528 18.1225 16.4937 17.9428L17.3852 17.2785L17.3737 18.393Z" fill="#4E4E4E"/>
</g>
<defs>
<clipPath id="clip0">
<rect width="30.6043" height="17.6563" fill="white" transform="translate(0.897461 22.0269) rotate(-45)"/>
</clipPath>
</defs>
</svg>
