<svg width="96" height="97" viewBox="0 0 96 97" fill="none" xmlns="http://www.w3.org/2000/svg">
<g opacity="0.1" clip-path="url(#clip0)">
<path d="M70.9928 82.151L71.0057 82.164C71.0341 82.1898 71.0612 82.2169 71.0883 82.2414C71.5813 82.7162 71.8604 83.3715 71.8638 84.0598C71.8686 84.7467 71.5952 85.4073 71.1088 85.8936L65.6249 91.3776C62.8336 94.1688 58.3028 94.1803 55.5256 91.4031L5.03687 40.9143C2.25969 38.1371 2.27113 33.6063 5.06238 30.8151L10.5437 25.3337C11.5437 24.3337 13.161 24.327 14.1598 25.3181C16.9642 28.1017 21.5287 28.0824 24.3368 25.2743C27.1449 22.4662 27.1642 17.9017 24.3806 15.0974C23.3895 14.0985 23.3962 12.4813 24.3962 11.4812L29.8775 5.99991C32.6688 3.20866 37.1996 3.19722 39.9768 5.9744L90.4643 56.4619C93.2414 59.2391 93.23 63.7699 90.4387 66.5611L84.9561 72.0438C84.4697 72.5302 83.8079 72.8022 83.1222 72.7988C82.4352 72.794 81.7761 72.5137 81.3038 72.0232C81.2767 71.9961 81.2509 71.9677 81.2264 71.9406L81.2135 71.9277C78.4092 69.1338 73.8422 69.1479 71.0276 71.9625C68.213 74.7797 68.1988 79.3467 70.9928 82.151ZM82.9951 66.7805L86.8253 62.9503C87.6139 62.1617 87.6171 60.8808 86.8325 60.0962L77.1072 50.3709L74.3743 53.1038C73.3717 54.1064 71.7493 54.1105 70.7517 53.1129C69.7542 52.1154 69.7583 50.493 70.7609 49.4903L73.4951 46.7562L36.345 9.60614C35.5604 8.82151 34.2796 8.82474 33.491 9.61335L29.6309 13.4734C32.6994 18.2409 32.1345 24.7035 27.9515 28.8864C23.7685 33.0694 17.306 33.6343 12.5384 30.5659L8.67582 34.4285C7.88721 35.2171 7.88398 36.4979 8.66861 37.2826L45.8186 74.4326L59.6568 60.5944C60.6595 59.5918 62.2819 59.5877 63.2794 60.5852C64.277 61.5828 64.2729 63.2052 63.2703 64.2078L49.4321 78.046L59.1561 87.77C59.9407 88.5547 61.2216 88.5514 62.0102 87.7628L65.8403 83.9327C62.6452 79.1499 63.1728 72.5904 67.4115 68.3517C71.6503 64.1129 78.2136 63.5866 82.9951 66.7805Z" fill="#4E4E4E"/>
<path d="M69.0019 54.8639C69.9998 55.8618 69.9957 57.4837 68.9928 58.4865C67.9899 59.4894 66.368 59.4935 65.3702 58.4957C64.3724 57.4979 64.3765 55.876 65.3793 54.8731C66.3822 53.8702 68.0041 53.8661 69.0019 54.8639Z" fill="#4E4E4E"/>
<path d="M47.2196 56.3737L41.65 52.2231L35.0499 54.4767C34.1254 54.7922 33.1052 54.5554 32.4187 53.8689C31.7321 53.1823 31.4953 52.1595 31.8108 51.2376L34.0605 44.6362L29.9099 39.0667C29.3297 38.2867 29.243 37.2428 29.6877 36.3723C30.1324 35.5018 31.0316 34.9587 32.0058 34.9679L38.9674 35.0396L43.0029 29.3445C43.5677 28.5474 44.5351 28.1374 45.4973 28.2877C46.0418 28.373 46.5315 28.6292 46.9057 29.0035C47.1935 29.2912 47.4139 29.6491 47.537 30.0524L49.5877 36.6972L56.2325 38.7479C57.1633 39.0353 57.847 39.8254 57.996 40.7889C58.1462 41.7511 57.7362 42.7186 56.9391 43.2834L51.2441 47.3188L51.3158 54.2804C51.3262 55.2559 50.7819 56.1538 49.9113 56.5985C49.0434 57.0406 47.9982 56.9552 47.2196 56.3737ZM46.1097 46.047C46.1015 45.2035 46.5072 44.4081 47.1967 43.9199L49.7474 42.1125L46.7714 41.1937C46.3694 41.0692 46.0103 40.8502 45.7225 40.5624C45.4347 40.2746 45.2144 39.9142 45.0912 39.5135L44.1724 36.5375L42.365 39.0882C41.8768 39.7778 41.0801 40.1847 40.2379 40.1752L37.1187 40.143L38.978 42.6379C39.4809 43.3119 39.6171 44.1927 39.3447 44.9916L38.3358 47.9491L41.2933 46.9403C42.0923 46.6679 42.973 46.8041 43.6471 47.3069L46.1419 49.1663L46.1097 46.047Z" fill="#4E4E4E"/>
</g>
<defs>
<clipPath id="clip0">
<rect width="85.6483" height="49.4125" fill="white" transform="matrix(0.707107 0.707107 0.707107 -0.707107 0 35.8774)"/>
</clipPath>
</defs>
</svg>
