<svg width="48" height="49" viewBox="0 0 48 49" fill="none" xmlns="http://www.w3.org/2000/svg">
<path d="M34.1365 9.13143C34.2455 10.2521 34.3206 11.3756 34.4127 12.5338C34.5198 12.8494 34.3141 13.0598 34.0896 13.2843C30.6967 16.6688 27.3094 20.0589 23.9222 23.4481C23.7963 23.574 23.6601 23.6961 23.5587 23.8408C23.2975 24.2118 23.3182 24.5913 23.6282 24.9164C23.9551 25.2592 24.3477 25.2977 24.7413 25.0244C24.901 24.9135 25.0353 24.7642 25.1734 24.6252C28.5372 21.2623 31.9037 17.9022 35.2581 14.5299C35.5343 14.2528 35.7945 14.126 36.1918 14.1673C37.2936 14.281 38.4011 14.3439 39.5039 14.451C39.9501 14.4942 40.2939 14.3683 40.6095 14.0499C42.5746 12.0707 44.5491 10.099 46.5254 8.13102C46.8251 7.83325 47.0214 7.51762 46.8777 7.08364C46.7321 6.6412 46.3761 6.51627 45.9571 6.48339C44.8882 6.40073 43.8201 6.30116 42.7493 6.2354C42.4544 6.21756 42.3614 6.12925 42.3435 5.83336C42.2787 4.76343 42.181 3.69445 42.0983 2.62546C42.0664 2.20745 41.9415 1.84955 41.499 1.70489C41.066 1.56305 40.7504 1.75562 40.4507 2.05715C38.4838 4.03449 36.5131 6.00996 34.532 7.97321C34.1957 8.30668 34.0914 8.66927 34.1365 9.13143ZM36.0255 8.91444C37.4918 7.4528 38.9553 5.98929 40.5137 4.43184C40.5691 5.25002 40.6086 5.92448 40.6621 6.59705C40.7419 7.59277 40.9862 7.83888 41.979 7.91873C42.6535 7.97321 43.3289 8.01078 44.0014 8.05681C44.0569 8.26253 43.8925 8.32452 43.8032 8.4147C42.4807 9.74577 41.1477 11.0674 39.8308 12.4041C39.6091 12.6287 39.394 12.7151 39.0774 12.6822C38.2245 12.5958 37.3688 12.5366 36.5131 12.4868C36.2284 12.4699 36.1129 12.3703 36.095 12.0782C36.0406 11.151 35.9626 10.2248 35.8884 9.29864C35.8762 9.14552 35.9147 9.02528 36.0255 8.91444Z" fill="#0276F0"/>
<path d="M45.5136 13.7119C45.2834 13.2469 44.7198 13.0571 44.2549 13.2873C43.7899 13.5174 43.6002 14.081 43.8303 14.546C45.3511 17.6111 46.1213 20.9129 46.1213 24.3604C46.1213 30.2689 43.82 35.8242 39.6418 40.0025C35.4636 44.1807 29.9084 46.4821 24 46.4821C18.0916 46.4821 12.5364 44.1807 8.3582 40.0025C4.18004 35.8242 1.87867 30.2698 1.87867 24.3604C1.87867 18.4509 4.18004 12.8965 8.3582 8.71827C12.5364 4.54002 18.0916 2.23861 24 2.23861C27.3468 2.23861 30.5622 2.96661 33.5568 4.40382C34.0236 4.62832 34.5854 4.43106 34.8099 3.96326C35.0344 3.49546 34.8371 2.93467 34.3693 2.71016C31.1192 1.15084 27.6305 0.36084 24 0.36084C17.589 0.36084 11.5623 2.85764 7.02904 7.39002C2.49675 11.9224 0 17.9493 0 24.3604C0 30.7715 2.49675 36.7983 7.02904 41.3317C11.5623 45.865 17.589 48.3608 24 48.3608C30.411 48.3608 36.4377 45.864 40.971 41.3317C45.5033 36.7983 48 30.7715 48 24.3604C48 20.6208 47.164 17.0381 45.5136 13.7119Z" fill="#0276F0"/>
<path d="M30.0428 9.73771C30.2118 9.24737 29.9516 8.71288 29.4613 8.54285C27.7085 7.93791 25.8702 7.63074 23.9991 7.63074C14.7748 7.63074 7.26953 15.1362 7.26953 24.3606C7.26953 33.5851 14.7748 41.0905 23.9991 41.0905C33.2233 41.0905 40.7286 33.586 40.7286 24.3606C40.7286 22.2856 40.3529 20.2604 39.6127 18.3413C39.4258 17.8575 38.8819 17.6161 38.3981 17.803C37.9144 17.9899 37.673 18.5338 37.8599 19.0176C38.5165 20.7206 38.85 22.5186 38.85 24.3606C38.85 32.5499 32.1882 39.2118 23.9991 39.2118C15.81 39.2118 9.1482 32.5499 9.1482 24.3606C9.1482 16.1713 15.81 9.50945 23.9991 9.50945C25.6608 9.50945 27.2924 9.78186 28.8479 10.3192C29.3392 10.4883 29.8737 10.2281 30.0428 9.73771Z" fill="#0276F0"/>
<path d="M23.9959 16.7122C24.1058 16.7122 24.2157 16.7141 24.3256 16.7197C24.9071 16.7441 25.4829 16.8343 26.0371 16.9874C26.5378 17.1246 27.0544 16.8315 27.1925 16.3308C27.3306 15.8302 27.0365 15.3135 26.5359 15.1754C25.8445 14.9847 25.1278 14.873 24.4055 14.842C19.1565 14.6174 14.705 18.7055 14.4814 23.9537C14.2578 29.2019 18.3449 33.6544 23.5929 33.878C23.732 33.8836 23.871 33.8864 24.0091 33.8864C26.3997 33.8864 28.67 33.0034 30.4416 31.3774C32.3165 29.6565 33.4081 27.3081 33.517 24.7662C33.5555 23.8626 33.4672 22.9636 33.254 22.0928C33.1309 21.5893 32.6228 21.2803 32.1183 21.4033C31.6149 21.5264 31.3058 22.0346 31.4289 22.539C31.5998 23.237 31.6703 23.9593 31.6393 24.6864C31.5519 26.7276 30.6755 28.612 29.1707 29.9937C27.6659 31.3755 25.7121 32.0876 23.6719 32.0011C19.4589 31.8217 16.1769 28.2475 16.3573 24.0345C16.5339 19.9314 19.9277 16.7122 23.9959 16.7122Z" fill="#0276F0"/>
</svg>
