<svg width="37" height="37" viewBox="0 0 37 37" fill="none" xmlns="http://www.w3.org/2000/svg">
<path d="M18.959 36.0654C28.9001 36.0654 36.959 28.0066 36.959 18.0654C36.959 8.1243 28.9001 0.0654297 18.959 0.0654297C9.01786 0.0654297 0.958984 8.1243 0.958984 18.0654C0.958984 28.0066 9.01786 36.0654 18.959 36.0654Z" fill="#35A4F3"/>
<path fill-rule="evenodd" clip-rule="evenodd" d="M10.1994 9.43042C11.1702 8.36283 12.85 8.08058 14.1439 8.68975C14.4944 8.84917 14.8077 9.08118 15.0794 9.35226C16.3802 10.6314 17.6729 11.918 18.952 13.2194C19.5817 12.612 20.1974 11.9902 20.8132 11.3684L20.8132 11.3684C21.5349 10.6396 22.2566 9.91088 23.0007 9.20524C24.3071 7.99312 26.5793 8.13269 27.7523 9.46454C28.9427 10.6953 28.9513 12.8571 27.7647 14.0928C26.4547 15.4252 25.1305 16.7439 23.8062 18.0626L23.8059 18.063C24.339 18.6051 24.878 19.1415 25.417 19.678L25.4171 19.678C26.2139 20.471 27.0108 21.2641 27.7889 22.0759C29.0121 23.3494 28.9147 25.6 27.6282 26.7954C26.5408 27.9002 24.6762 28.0646 23.3847 27.2277C23.103 27.0542 22.8701 26.8203 22.6381 26.5874L22.6381 26.5874C22.5799 26.529 22.5217 26.4706 22.4629 26.4133C21.7925 25.7482 21.1266 25.0788 20.4607 24.4095L20.4603 24.409C19.9649 23.9111 19.4696 23.4132 18.9724 22.9171C18.385 23.487 17.8073 24.0669 17.2296 24.6467C16.4549 25.4242 15.6802 26.2017 14.8821 26.9554C13.5515 28.1626 11.2583 27.9771 10.1113 26.6043C9.08408 25.484 8.99166 23.6546 9.85141 22.4115C10.0066 22.1819 10.2024 21.9855 10.3975 21.7897L10.3975 21.7897L10.3975 21.7897C10.4497 21.7374 10.5017 21.6852 10.553 21.6324C11.5765 20.589 12.613 19.558 13.6558 18.5332L13.9095 18.7877L13.9096 18.7878C14.3111 19.1907 14.7127 19.5937 15.1184 19.9928C14.66 20.4623 14.194 20.9244 13.7279 21.3865L13.7279 21.3866C13.0197 22.0888 12.3115 22.791 11.6298 23.5194C11.1317 24.0479 11.2998 24.9474 11.8283 25.3928C12.141 25.6844 12.6056 25.7507 13.0113 25.6577C13.3983 25.5437 13.6889 25.2558 13.97 24.9774L13.97 24.9774C14.0101 24.9377 14.05 24.8981 14.09 24.8593C14.6282 24.3152 15.1687 23.773 15.7092 23.2308C16.3037 22.6344 16.8982 22.038 17.4899 21.4388C16.5177 20.4619 15.5417 19.4889 14.5657 18.5159C13.1017 17.0564 11.6378 15.5969 10.187 14.1245C8.95506 12.8857 8.96871 10.6649 10.1994 9.43042ZM11.5845 10.9986C11.2204 11.5042 11.2384 12.284 11.7179 12.7114C12.4353 13.4613 13.1713 14.1934 13.9072 14.9254L13.9072 14.9254C14.4642 15.4795 15.0211 16.0335 15.57 16.5953C15.9339 16.253 16.2858 15.898 16.6377 15.5429C16.9192 15.2588 17.2008 14.9747 17.4886 14.697L17.2377 14.4435C16.0461 13.2395 14.8545 12.0355 13.6477 10.8473C13.4418 10.645 13.1756 10.503 12.8903 10.4546C12.3984 10.3572 11.8687 10.5911 11.5845 10.9986ZM20.4167 14.6959C21.709 13.3986 23.0012 12.1012 24.3071 10.8175C24.5856 10.5569 24.9708 10.4068 25.3535 10.4354C25.7251 10.472 26.0867 10.6605 26.3094 10.9645C26.5892 11.346 26.6674 11.8764 26.4831 12.3156C26.4059 12.5037 26.2645 12.6518 26.126 12.797C26.111 12.8127 26.096 12.8284 26.0812 12.8441C25.4449 13.5153 24.7865 14.1649 24.1282 14.8145C23.5319 15.403 22.9355 15.9914 22.3556 16.5959C21.9128 16.1815 21.484 15.7522 21.0551 15.3228C20.998 15.2656 20.9408 15.2083 20.8836 15.1511C20.4047 15.643 19.9209 16.13 19.4302 16.6101C21.1715 18.3688 22.9244 20.1166 24.6774 21.8645C25.067 22.2529 25.4566 22.6414 25.8461 23.03C26.1972 23.3643 26.5476 23.7663 26.5954 24.27C26.6078 24.6763 26.4478 25.0988 26.1277 25.3593C25.6513 25.7737 24.8424 25.8357 24.3778 25.3705C23.3892 24.438 22.435 23.4698 21.4812 22.5019C21.1303 22.1459 20.7795 21.7899 20.427 21.4357C20.7254 21.1446 21.0189 20.8488 21.3124 20.5529C21.4986 20.3652 21.6848 20.1775 21.8724 19.991C21.5245 19.6535 21.1824 19.3102 20.8403 18.967C20.6963 18.8224 20.5523 18.6779 20.4078 18.5338C20.1681 18.7763 19.9265 19.0172 19.6849 19.258C19.4432 19.4989 19.2016 19.7397 18.9619 19.9823C18.3423 19.3462 17.7059 18.7268 17.0692 18.1072L17.0346 18.0735C18.168 16.9536 19.2924 15.8248 20.4167 14.6959Z" fill="white"/>
</svg>
