<svg width="25" height="24" viewBox="0 0 25 24" fill="none" xmlns="http://www.w3.org/2000/svg">
<g clip-path="url(#clip0)">
<path
      fill-rule="evenodd"
      clip-rule="evenodd"
      d="M9.97883 6.54384C10.0708 6.22186 10.3651 5.99988 10.7 5.99988H14.3C14.584 5.99988 14.8437 6.16038 14.9708 6.41447L15.1958 6.86447C15.2117 6.89621 15.2253 6.92904 15.2365 6.96271C15.6241 8.12548 16.4029 9.0525 17.499 9.80624C19.9818 11.5033 21.0249 14.1434 20.687 16.6561C20.3496 19.1657 18.6442 21.4893 15.7742 22.598C13.718 23.4191 11.349 23.4146 9.23073 22.5999C6.36228 21.4935 4.65012 19.1894 4.32198 16.6913C3.9935 14.1906 5.06269 11.5722 7.57816 9.87972C8.65386 9.13931 9.44164 8.1461 9.83533 7.04607L9.97883 6.54384ZM11.2654 7.49988C11.2628 7.50813 11.2601 7.51634 11.2572 7.52449C10.7488 8.96513 9.7408 10.2132 8.42486 11.1179L8.41837 11.1224C6.36129 12.505 5.55658 14.5728 5.8092 16.496C6.06229 18.4227 7.38807 20.2812 9.7692 21.1999C11.5494 21.8846 13.5286 21.8806 15.2214 21.2035L15.23 21.2001C17.6074 20.2831 18.938 18.4078 19.2004 16.4562C19.4625 14.5066 18.6683 12.4221 16.6518 11.0441L16.6501 11.0429C15.3644 10.159 14.3537 9.00598 13.8348 7.49988H11.2654Z"
      fill="#5589C6"
    />
<path
      fill-rule="evenodd"
      clip-rule="evenodd"
      d="M7.90566 1.98691C8.25799 1.76911 8.72017 1.87817 8.93798 2.23049L11.488 6.35549C11.7058 6.70782 11.5967 7.17 11.2444 7.38781C10.8921 7.60561 10.4299 7.49655 10.2121 7.14423L7.66208 3.01923C7.44428 2.6669 7.55334 2.20472 7.90566 1.98691Z"
      fill="#5589C6"
    />
<path
      fill-rule="evenodd"
      clip-rule="evenodd"
      d="M11.1446 3.15518C10.9875 2.99808 10.7124 2.99808 10.5553 3.15518L9.73028 3.98018C9.43739 4.27308 8.96251 4.27308 8.66962 3.98018C8.37673 3.68729 8.37673 3.21242 8.66962 2.91952L9.49462 2.09452L10.025 2.62485L9.49462 2.09452C10.2375 1.35163 11.4624 1.35163 12.2053 2.09452C12.3624 2.25163 12.6375 2.25163 12.7946 2.09452C13.5375 1.35163 14.7624 1.35163 15.5053 2.09452L16.3303 2.91952C16.6232 3.21242 16.6232 3.68729 16.3303 3.98018C16.0374 4.27308 15.5625 4.27308 15.2696 3.98018L14.4446 3.15518C14.2875 2.99808 14.0124 2.99808 13.8553 3.15518C13.1124 3.89808 11.8875 3.89808 11.1446 3.15518Z"
      fill="#5589C6"
    />
<path
      fill-rule="evenodd"
      clip-rule="evenodd"
      d="M17.0944 1.98691C17.4467 2.20472 17.5558 2.6669 17.338 3.01923L15.4954 5.99986H16.7C17.1142 5.99986 17.45 6.33565 17.45 6.74986C17.45 7.16407 17.1142 7.49986 16.7 7.49986H14.15C13.878 7.49986 13.6274 7.35261 13.4949 7.11505C13.3625 6.87748 13.3691 6.58684 13.5121 6.35549L16.0621 2.23049C16.2799 1.87817 16.7421 1.76911 17.0944 1.98691Z"
      fill="#5589C6"
    />
<path
      fill-rule="evenodd"
      clip-rule="evenodd"
      d="M12.5 11.4999C12.7761 11.4999 13 11.7237 13 11.9999V12.7499C13 13.026 12.7761 13.2499 12.5 13.2499C12.2239 13.2499 12 13.026 12 12.7499V11.9999C12 11.7237 12.2239 11.4999 12.5 11.4999Z"
      fill="#5589C6"
    />
<path
      fill-rule="evenodd"
      clip-rule="evenodd"
      d="M12.5 16.7499C12.7761 16.7499 13 16.9737 13 17.2499V17.9999C13 18.276 12.7761 18.4999 12.5 18.4999C12.2239 18.4999 12 18.276 12 17.9999V17.2499C12 16.9737 12.2239 16.7499 12.5 16.7499Z"
      fill="#5589C6"
    />
<path
      fill-rule="evenodd"
      clip-rule="evenodd"
      d="M10.5 13.8749C10.5 12.9987 11.2489 12.2499 12.125 12.2499H13.25C13.5261 12.2499 13.75 12.4737 13.75 12.7499C13.75 13.026 13.5261 13.2499 13.25 13.2499H12.125C11.8011 13.2499 11.5 13.551 11.5 13.8749C11.5 14.1987 11.8011 14.4999 12.125 14.4999H12.875C13.7511 14.4999 14.5 15.2487 14.5 16.1249C14.5 17.001 13.7511 17.7499 12.875 17.7499H11.75C11.4739 17.7499 11.25 17.526 11.25 17.2499C11.25 16.9737 11.4739 16.7499 11.75 16.7499H12.875C13.1989 16.7499 13.5 16.4487 13.5 16.1249C13.5 15.801 13.1989 15.4999 12.875 15.4999H12.125C11.2489 15.4999 10.5 14.751 10.5 13.8749Z"
      fill="#5589C6"
    />
</g>
<defs>
<clipPath id="clip0">
<rect width="24" height="24" fill="white" transform="translate(0.5 -0.00012207)" />
</clipPath>
</defs>
</svg>
