<svg width="48" height="48" viewBox="0 0 48 48" fill="none" xmlns="http://www.w3.org/2000/svg">
<path d="M34.3118 2.39336C30.8208 3.90806 27.5028 5.52152 24.8488 8.30168C23.4036 9.81542 21.8892 11.2621 20.4123 12.7461C20.2239 12.935 20.0308 13.0625 19.7579 13.0922C17.0722 13.3827 14.3874 13.6894 11.7007 13.9694C11.1962 14.0221 10.7974 14.1908 10.4361 14.5532C7.90031 17.1014 5.35006 19.6361 2.80558 22.1756C2.71526 22.2657 2.62013 22.353 2.53941 22.4517C2.03494 23.0672 2.3136 23.8715 3.08905 24.0403C3.26105 24.0776 3.43498 24.1016 3.60986 24.1265C5.36544 24.3787 7.12197 24.6308 8.87755 24.881C9.05916 24.9069 9.22059 24.9242 9.358 25.1216C9.62994 25.5118 9.94415 25.8684 10.3266 26.1522C10.8801 26.5635 10.8234 26.668 10.4957 26.8597C9.33782 27.5385 8.18954 28.2316 7.0403 28.9237C6.33883 29.3465 6.23794 30.1643 6.81736 30.7433C10.3103 34.2319 13.806 37.7186 17.3018 41.2034C17.9879 41.8879 18.6307 41.8093 19.1285 40.9848C19.805 39.8651 20.4891 38.7492 21.1445 37.617C21.3434 37.2729 21.4702 37.1741 21.7719 37.5221C22.1265 37.9315 22.5263 38.3044 22.926 38.6716C23.0778 38.8106 23.1566 38.9467 23.1854 39.1509C23.4468 41.0136 23.7255 42.8754 23.9888 44.7381C24.0522 45.1838 24.2213 45.5405 24.6768 45.6804C25.1274 45.8185 25.4753 45.6306 25.7933 45.3123C28.4022 42.7018 31.0159 40.0942 33.6334 37.4914C33.9226 37.2038 34.0619 36.8731 34.1042 36.4772C34.3973 33.766 34.7 31.0549 34.9921 28.3438C35.02 28.0887 35.1343 27.851 35.3169 27.6698C36.962 26.042 38.5897 24.3969 40.2358 22.771C42.0182 21.0108 43.3866 18.9679 44.4782 16.7265C47.8846 9.73681 48.0547 3.1603 47.9903 0.852765C47.9768 0.366716 47.5694 -0.0157954 47.0813 0.00050205C44.8529 0.0743201 38.7742 0.456832 34.3118 2.39336ZM10.3151 22.8189C10.1354 22.9991 9.96914 23.1094 9.69144 23.0672C8.33271 22.8611 6.97015 22.6732 5.60951 22.4767C5.53264 22.4661 5.4596 22.4345 5.38562 22.4134C5.39138 22.2245 5.53744 22.1584 5.63257 22.0644C7.59954 20.0982 9.57036 18.1358 11.5373 16.1695C11.6988 16.0085 11.8554 15.8848 12.1033 15.8589C13.9944 15.6566 15.8835 15.44 17.8111 15.2233C17.7861 15.4189 17.6622 15.4822 17.5757 15.5684C15.1561 17.9853 12.7327 20.3992 10.3151 22.8189ZM19.8492 36.0793C19.2794 36.9843 18.7268 37.8998 18.1964 38.8278C18.0167 39.1423 17.9062 39.102 17.6833 38.8786C14.8496 36.04 12.0101 33.2062 9.16294 30.38C8.91791 30.1365 8.89773 30.0233 9.22251 29.8393C10.1392 29.3187 11.0357 28.7637 11.9409 28.223C12.036 28.1664 12.1321 28.1127 12.2407 28.0494C12.333 28.1309 12.4185 28.1999 12.4954 28.2776C14.9168 30.6925 17.3364 33.1103 19.7637 35.5194C19.9501 35.7045 20.0048 35.831 19.8492 36.0793ZM32.6696 31.9129C32.5206 33.2445 32.3679 34.5761 32.2218 35.9077C32.2007 36.1042 32.144 36.2643 31.995 36.412C29.9425 38.4511 27.8968 40.4959 25.8481 42.5389C25.8049 42.582 25.7501 42.6136 25.6434 42.6932C25.5204 41.8783 25.4042 41.1114 25.2908 40.3445C25.1957 39.6973 25.1092 39.0493 25.0092 38.4031C24.9708 38.1539 24.9929 37.9583 25.1937 37.7599C27.6796 35.2951 30.1549 32.8208 32.6331 30.3493C32.6763 30.3062 32.7282 30.2707 32.857 30.1643C32.7887 30.8037 32.7311 31.3588 32.6696 31.9129ZM44.014 12.8592C42.8504 16.1283 41.2274 19.1079 38.7243 21.5784C34.6865 25.5626 30.6844 29.5824 26.6774 33.5983C26.4054 33.8705 26.268 33.9069 25.9759 33.6117C23.6822 31.2955 21.3684 28.9995 19.0612 26.6967C18.796 26.4321 18.5212 26.1992 18.108 26.228C17.616 26.2634 17.2086 26.6958 17.2201 27.1838C17.2403 27.5653 17.4709 27.8251 17.7246 28.0772C20.0116 30.3551 22.2899 32.6415 24.5874 34.9078C24.8939 35.2098 24.9439 35.3948 24.5903 35.6776C24.2434 35.9556 23.9571 36.4982 23.6082 36.5299C23.2431 36.5634 22.9548 35.9959 22.6416 35.6843C19.0065 32.0663 15.38 28.4377 11.7382 24.8264C11.4422 24.533 11.4297 24.3911 11.7343 24.0882C16.7003 19.1558 21.6595 14.2177 26.6024 9.26323C29.0508 6.80998 32.0114 5.23391 35.241 4.09021C35.4485 4.01639 35.5581 4.072 35.6955 4.20909C38.4302 6.94323 41.1678 9.6745 43.9093 12.4019C44.0534 12.5457 44.0842 12.6617 44.014 12.8592ZM46.2116 2.28311C45.9676 5.00575 45.5006 7.68716 44.7885 10.3264C44.777 10.3695 44.7511 10.4088 44.7511 10.4088C42.3978 8.06201 40.0388 5.70846 37.6701 3.34628C38.8684 3.03567 40.1032 2.73177 41.3581 2.5084C42.8379 2.2438 44.3263 2.04344 45.8234 1.90347C46.1396 1.87375 46.2405 1.95428 46.2116 2.28311Z" fill="#0276F0"/>
<path d="M10.7033 37.3467C10.2545 36.8855 9.69625 36.9776 9.05053 37.6209C6.12745 40.5362 3.2063 43.4544 0.279384 46.365C-0.0934471 46.735 -0.0934481 47.338 0.281305 47.7071C0.288031 47.7138 0.294757 47.7205 0.301483 47.7272C0.672392 48.0925 1.26912 48.0906 1.6381 47.7234C4.56886 44.8052 7.49578 41.8831 10.4237 38.962C11.0482 38.3379 11.1405 37.7953 10.7033 37.3467Z" fill="#0276F0"/>
<path d="M1.35858 42.1468C1.75159 42.1698 2.01104 41.9359 2.26376 41.6838C4.10486 39.846 5.94693 38.0101 7.78611 36.1704C7.92063 36.0362 8.05516 35.8905 8.14357 35.7256C8.35785 35.3278 8.28194 34.9405 7.97637 34.6279C7.68137 34.3259 7.30469 34.2799 6.91552 34.441C6.70508 34.5273 6.5523 34.696 6.39375 34.8542C4.57571 36.669 2.75574 38.4828 0.938661 40.3004C0.793564 40.4461 0.643661 40.6005 0.54757 40.7788C0.216056 41.3962 0.659997 42.1315 1.35858 42.1468Z" fill="#0276F0"/>
<path d="M13.0998 39.8432C12.6597 39.6543 12.2878 39.8163 11.9717 40.1317C10.0614 42.0347 8.14918 43.9377 6.24563 45.8474C5.77479 46.32 5.74596 46.8904 6.13801 47.2902C6.53871 47.6995 7.10276 47.6842 7.58225 47.2097C9.50886 45.3 11.4268 43.3807 13.3458 41.4633C13.5543 41.2544 13.6984 41.0099 13.6802 40.728C13.6744 40.2861 13.4668 40.0004 13.0998 39.8432Z" fill="#0276F0"/>
<path d="M30.3043 12.0521C27.1199 12.0435 24.5379 14.6051 24.5254 17.786C24.5129 20.9132 27.0997 23.5122 30.2515 23.54C33.4186 23.5678 36.0284 20.986 36.039 17.8157C36.0505 14.6214 33.5022 12.0608 30.3043 12.0521ZM30.2707 21.6197C28.1817 21.5919 26.4559 19.8634 26.4482 17.7927C26.4405 15.6999 28.1961 13.9609 30.3082 13.9695C32.4116 13.9781 34.1162 15.6855 34.1162 17.7831C34.1181 19.8912 32.3568 21.6485 30.2707 21.6197Z" fill="#0276F0"/>
<path d="M15.4611 23.5131C14.9451 23.5102 14.5146 23.9378 14.5127 24.4545C14.5108 24.9789 14.9278 25.394 15.4554 25.395C15.9743 25.3959 16.4105 24.9703 16.4124 24.4603C16.4134 23.956 15.9714 23.516 15.4611 23.5131Z" fill="#0276F0"/>
</svg>
