<svg width="29" height="29" viewBox="0 0 29 29" fill="none" xmlns="http://www.w3.org/2000/svg">
<path d="M14.7797 27.5556C21.5615 27.5556 27.0593 21.8348 27.0593 14.7778C27.0593 7.72081 21.5615 2 14.7797 2C7.99779 2 2.5 7.72081 2.5 14.7778C2.5 21.8348 7.99779 27.5556 14.7797 27.5556Z" fill="#FFCED0"/>
<path fill-rule="evenodd" clip-rule="evenodd" d="M13.738 6.50573C14.0886 6.34208 14.3926 6.06608 14.7579 5.94489C14.8555 6.52696 14.7933 7.11966 14.8097 7.70616C14.8028 8.58281 14.8348 9.46035 14.789 10.3352C14.1784 10.6661 13.5938 11.0465 12.997 11.403C12.3519 11.7807 11.6903 12.131 11.0754 12.56C11.1376 12.6149 11.2024 12.668 11.2689 12.7175C11.2222 12.7308 11.1281 12.7573 11.0815 12.7706C10.9839 13.043 11.059 13.35 11.0366 13.6349C11.0081 14.7504 11.0694 15.8685 11.0003 16.9831C10.1332 17.4281 9.31363 17.9659 8.46642 18.4507C8.06915 18.7099 7.63993 18.916 7.2513 19.1902L7.25044 19.1911C7.25994 16.2409 7.23662 13.2845 7.26339 10.3379C9.419 9.05696 11.5832 7.78931 13.738 6.50573Z" fill="#D11D23"/>
<path fill-rule="evenodd" clip-rule="evenodd" d="M18.4167 12.5114C18.4772 12.5972 18.4366 12.7299 18.453 12.8316C18.4461 14.2107 18.4374 15.5907 18.4642 16.9707C17.56 17.6147 16.5651 18.1119 15.6212 18.6922C15.3215 18.8567 15.0494 19.0805 14.7282 19.199C14.6902 19.184 14.6142 19.153 14.5762 19.1371C14.6859 19.1141 14.7342 19.0478 14.7221 18.9363C14.7463 17.5519 14.7351 16.1666 14.7377 14.7813C15.2058 14.4858 15.6902 14.2195 16.1687 13.9435C16.8207 13.5472 17.4641 13.1377 18.1317 12.7705C18.2466 12.7104 18.3355 12.6122 18.4167 12.5114Z" fill="#D11D23"/>
<path fill-rule="evenodd" clip-rule="evenodd" d="M14.7578 5.94489C15.1249 6.08642 15.4254 6.36773 15.789 6.519C17.9334 7.81054 20.0959 9.06935 22.2454 10.345C22.2817 10.7475 22.2601 11.1588 22.2575 11.5631C22.2118 11.7152 22.2023 11.8753 22.2057 12.0337C22.2023 14.308 22.2178 16.5824 22.2143 18.8558C22.2057 18.9248 22.1884 19.0628 22.1798 19.131C20.9284 18.4365 19.7202 17.6581 18.4645 16.9707C18.4377 15.5907 18.4464 14.2107 18.4533 12.8316C18.4369 12.7299 18.4774 12.5972 18.417 12.5114C17.8081 12.2035 17.2494 11.8037 16.644 11.4897C16.0377 11.0845 15.3744 10.7731 14.7889 10.3352C14.8347 9.46035 14.8027 8.58281 14.8096 7.70615C14.7932 7.11965 14.8554 6.52696 14.7578 5.94489Z" fill="#BB1B21"/>
<path fill-rule="evenodd" clip-rule="evenodd" d="M11.0812 12.7706C11.1278 12.7573 11.222 12.7308 11.2686 12.7175C12.0113 13.1395 12.735 13.5942 13.4674 14.033C13.9104 14.247 14.3146 14.5319 14.7378 14.7813C14.7352 16.1666 14.7464 17.552 14.7222 18.9364C14.7343 19.0478 14.6859 19.1142 14.5763 19.1372C13.3974 18.3959 12.1728 17.7342 11 16.9831C11.0691 15.8685 11.0078 14.7504 11.0363 13.6349C11.0587 13.35 10.9836 13.0431 11.0812 12.7706Z" fill="#BB1B21"/>
<path fill-rule="evenodd" clip-rule="evenodd" d="M12.9958 11.403C13.5925 11.0465 14.1772 10.6661 14.7878 10.3353C15.3733 10.7732 16.0366 11.0845 16.6429 11.4897C17.2483 11.8037 17.807 12.2036 18.4159 12.5114C18.3347 12.6123 18.2458 12.7105 18.1309 12.7706C17.4633 13.1377 16.8199 13.5473 16.1679 13.9436C15.6894 14.2196 15.2049 14.4859 14.7369 14.7813C14.3137 14.5319 13.9095 14.247 13.4665 14.033C12.7341 13.5942 12.0104 13.1395 11.2677 12.7175C11.2012 12.668 11.1364 12.6149 11.0742 12.5601C11.6891 12.131 12.3507 11.7807 12.9958 11.403Z" fill="#ED4340"/>
<path fill-rule="evenodd" clip-rule="evenodd" d="M22.2055 12.0338C22.202 11.8754 22.2115 11.7153 22.2573 11.5632C22.259 14.0817 22.2625 16.6011 22.2616 19.1213C22.221 19.2284 22.1174 19.2629 22.031 19.3195C19.6379 20.7579 17.225 22.1547 14.8301 23.5922C14.4251 23.5665 14.1211 23.1817 13.7368 23.049C11.5872 21.7433 9.39536 20.4996 7.25098 19.1903C7.63961 18.9161 8.06883 18.71 8.4661 18.4508C9.31331 17.966 10.1329 17.4282 11 16.9832C12.1728 17.7343 13.3974 18.3959 14.5762 19.1373C14.6142 19.1532 14.6902 19.1841 14.7282 19.1992C15.0495 19.0806 15.3215 18.8568 15.6212 18.6923C16.5652 18.112 17.5601 17.6148 18.4643 16.9708C19.72 17.6582 20.9282 18.4366 22.1796 19.1311C22.1882 19.0629 22.2055 18.9249 22.2141 18.8559C22.2176 16.5825 22.202 14.3081 22.2055 12.0338Z" fill="#ED4340"/>
<path opacity="0.2" d="M14.7793 28.2778C22.5113 28.2778 28.7793 22.0098 28.7793 14.2778C28.7793 6.54585 22.5113 0.277832 14.7793 0.277832C7.04731 0.277832 0.779297 6.54585 0.779297 14.2778C0.779297 22.0098 7.04731 28.2778 14.7793 28.2778Z" fill="#2D475B"/>
<path fill-rule="evenodd" clip-rule="evenodd" d="M12.9199 12.1318H20.1071V13.7422H12.9199V12.1318Z" fill="white"/>
<path fill-rule="evenodd" clip-rule="evenodd" d="M20.1075 14.8146H12.9203V16.425H18.2585V17.937C17.5428 18.5535 16.1411 18.8717 16.1411 18.8717C12.0256 19.5874 10.7134 16.0684 10.7134 16.0684C9.52052 12.0125 12.4133 10.4021 12.4133 10.4021C15.9622 8.25486 18.6164 10.9985 18.6164 10.9985L19.8689 9.77581C17.7814 7.39001 14.5605 7.83735 14.5605 7.83735C9.34159 8.37415 8.65567 12.7581 8.65567 12.7581C7.79082 16.2771 10.1766 18.6927 10.1766 18.6927C14.5307 23.1065 20.1373 19.0506 20.1373 19.0506V14.8146H20.1075Z" fill="white"/>
</svg>
