<svg width="57" height="51" viewBox="0 0 57 51" fill="none" xmlns="http://www.w3.org/2000/svg">
<path d="M4.24628 45.4002L7.81961 46.8935V22.8135L1.33961 38.4402C0.24628 41.1602 1.55295 44.2802 4.24628 45.4002V45.4002ZM56.2463 35.5335L43.0196 3.6135C42.1929 1.6135 40.2463 0.386829 38.1929 0.333496C37.4996 0.333496 36.7796 0.440163 36.0863 0.733496L16.4329 8.86683C14.4329 9.6935 13.2063 11.6135 13.1529 13.6668C13.1263 14.3868 13.2596 15.1068 13.5529 15.8002L26.7796 47.7202C27.6063 49.7468 29.5796 50.9735 31.6596 51.0002C32.3529 51.0002 33.0463 50.8668 33.7129 50.6002L53.3396 42.4668C56.0596 41.3468 57.3663 38.2268 56.2463 35.5335V35.5335ZM18.5129 16.3335C17.0463 16.3335 15.8463 15.1335 15.8463 13.6668C15.8463 12.2002 17.0463 11.0002 18.5129 11.0002C19.9796 11.0002 21.1796 12.2002 21.1796 13.6668C21.1796 15.1335 19.9796 16.3335 18.5129 16.3335V16.3335ZM13.1796 45.6668C13.1796 48.6002 15.5796 51.0002 18.5129 51.0002H22.3796L13.1796 28.7602V45.6668Z" fill="#969696"/>
</svg>
