<svg width="19" height="19" viewBox="0 0 19 19" fill="none" xmlns="http://www.w3.org/2000/svg">
<path fill-rule="evenodd" clip-rule="evenodd" d="M2.59009 15.9169C2.59009 16.4669 3.04009 16.9169 3.59009 16.9169H15.5901C16.1401 16.9169 16.5901 16.4669 16.5901 15.9169V10.9169C16.5901 10.3669 17.0401 9.91693 17.5901 9.91693C18.1401 9.91693 18.5901 10.3669 18.5901 10.9169V16.9169C18.5901 18.0169 17.6901 18.9169 16.5901 18.9169H2.59009C1.49009 18.9169 0.590088 18.0169 0.590088 16.9169V2.91693C0.590088 1.81693 1.48009 0.916931 2.59009 0.916931H8.59009C9.14009 0.916931 9.59009 1.36693 9.59009 1.91693C9.59009 2.46693 9.14009 2.91693 8.59009 2.91693H3.59009C3.04009 2.91693 2.59009 3.36693 2.59009 3.91693V15.9169ZM12.5899 2.91693C12.0399 2.91693 11.5899 2.46693 11.5899 1.91693C11.5899 1.36693 12.0399 0.916931 12.5899 0.916931H17.5899C18.1399 0.916931 18.5899 1.36693 18.5899 1.91693V6.91693C18.5899 7.46693 18.1399 7.91693 17.5899 7.91693C17.0399 7.91693 16.5899 7.46693 16.5899 6.91693V4.32693L7.45993 13.4569C7.06993 13.8469 6.43993 13.8469 6.04993 13.4569C5.65993 13.0669 5.65993 12.4369 6.04993 12.0469L15.1799 2.91693H12.5899Z" fill="#F1B101"/>
</svg>
