<svg width="33" height="33" viewBox="0 0 33 33" fill="none" xmlns="http://www.w3.org/2000/svg">
<path
    fill-rule="evenodd"
    clip-rule="evenodd"
    d="M11.75 8.16954C11.7498 8.16962 11.7497 8.16971 11.7495 8.16979L7.3498 10.76C7.11107 10.9082 6.96667 11.1687 6.96667 11.4456V16.6183C6.96667 16.9085 7.11311 17.1663 7.34717 17.3024L7.34803 17.3029L11.7495 19.8941C11.7497 19.8942 11.7498 19.8942 11.7499 19.8943C11.9862 20.0315 12.2823 20.0316 12.5187 19.8943C12.5188 19.8942 12.519 19.8942 12.5191 19.8941L20.2958 15.3191L20.2966 15.3186C20.6471 15.1148 21.0843 15.1148 21.4348 15.3186L21.4356 15.3191L23.8481 16.7386L23.8498 16.7396C24.1971 16.9542 24.4085 17.333 24.4085 17.7382V20.5645C24.4085 20.9781 24.1987 21.3601 23.846 21.5654C23.8458 21.5654 23.8457 21.5655 23.8456 21.5656L21.4356 22.9836L21.4348 22.9841C21.0843 23.1879 20.6471 23.1879 20.2966 22.9841L20.2958 22.9836L17.8833 21.5641L17.8816 21.5631C17.5343 21.3485 17.3229 20.9697 17.3229 20.5645V19.5712L15.698 20.5284V21.7377C15.698 22.0279 15.8445 22.2857 16.0785 22.4218L16.0794 22.4223L20.4809 25.0135C20.481 25.0136 20.4811 25.0136 20.4812 25.0136C20.7175 25.151 21.0137 25.151 21.2501 25.0137C21.2502 25.0136 21.2503 25.0136 21.2505 25.0135L25.6502 22.4233C25.8889 22.2751 26.0333 22.0146 26.0333 21.7377V16.565C26.0333 16.2864 25.8882 16.0318 25.6491 15.906L25.6453 15.9039L21.24 13.3105C21.2398 13.3104 21.2397 13.3103 21.2395 13.3103C21.0032 13.1731 20.7071 13.1731 20.4709 13.3103C20.4707 13.3104 20.4706 13.3105 20.4704 13.3105L12.7041 17.8749L12.7034 17.8753C12.3529 18.0791 11.9157 18.0791 11.5652 17.8753L11.5644 17.8749L9.1519 16.4554L9.15022 16.4543C8.80291 16.2398 8.59156 15.8609 8.59156 15.4558V12.6188C8.59156 12.2052 8.80133 11.8232 9.15399 11.618C9.15413 11.6179 9.15428 11.6178 9.15442 11.6177L11.5644 10.1997L11.5652 10.1992C11.9157 9.99544 12.3529 9.99544 12.7034 10.1992L12.7042 10.1997L15.1167 11.6192L15.1184 11.6202C15.4657 11.8348 15.6771 12.2136 15.6771 12.6188V13.9108L17.302 12.9536V11.4456C17.302 11.1554 17.1555 10.8976 16.9215 10.7615L16.9206 10.761L12.5191 8.16979C12.519 8.16971 12.5188 8.16963 12.5187 8.16956C12.2824 8.03235 11.9863 8.03235 11.75 8.16954ZM11.5652 7.85281C11.9157 7.64904 12.3529 7.64904 12.7034 7.85281L12.7043 7.85331L17.1058 10.4445C17.1059 10.4446 17.1061 10.4447 17.1062 10.4448C17.4589 10.65 17.6686 11.032 17.6686 11.4456V13.1631L15.3104 14.5523V12.6188C15.3104 12.3419 15.166 12.0814 14.9273 11.9332L12.5191 10.5162C12.519 10.5161 12.5188 10.516 12.5187 10.516C12.2824 10.3787 11.9863 10.3787 11.75 10.5159C11.7498 10.516 11.7497 10.5161 11.7495 10.5162L9.33954 11.9342L9.33872 11.9347C9.10466 12.0708 8.95822 12.3286 8.95822 12.6188V15.4558C8.95822 15.7326 9.10261 15.9932 9.34133 16.1414L11.7495 17.5584C11.7497 17.5584 11.7498 17.5585 11.7499 17.5586C11.9862 17.6958 12.2824 17.6958 12.5188 17.5586C12.5189 17.5585 12.519 17.5584 12.5191 17.5584L20.2854 12.994L20.2861 12.9936C20.6366 12.7898 21.0738 12.7898 21.4243 12.9936L21.4251 12.9941L25.8239 15.5836C26.1903 15.7784 26.4 16.1625 26.4 16.565V21.7377C26.4 22.1429 26.1887 22.5217 25.8413 22.7363L25.8397 22.7373L21.4356 25.33L21.4348 25.3305C21.0843 25.5343 20.6471 25.5343 20.2966 25.3305L20.2958 25.33L15.8942 22.7388C15.8941 22.7387 15.894 22.7387 15.8939 22.7386C15.5412 22.5334 15.3314 22.1513 15.3314 21.7377V20.3188L17.6896 18.9296V20.5645C17.6896 20.8414 17.834 21.1019 18.0727 21.2501L20.4809 22.6671C20.481 22.6672 20.4812 22.6672 20.4813 22.6673C20.7176 22.8046 21.0138 22.8046 21.2501 22.6673C21.2502 22.6672 21.2503 22.6672 21.2505 22.6671L23.6605 21.2491L23.6613 21.2486C23.8954 21.1125 24.0418 20.8547 24.0418 20.5645V17.7382C24.0418 17.4613 23.8974 17.2008 23.6587 17.0526L21.2505 15.6356C21.2503 15.6355 21.2502 15.6355 21.2501 15.6354C21.0138 15.4981 20.7176 15.4981 20.4812 15.6354C20.4811 15.6355 20.481 15.6355 20.4809 15.6356L12.7042 20.2106L12.7034 20.2111C12.3529 20.4148 11.9157 20.4148 11.5652 20.2111L11.5644 20.2106L7.16287 17.6194C7.16273 17.6193 7.16259 17.6192 7.16245 17.6191C6.80979 17.4139 6.60001 17.0319 6.60001 16.6183V11.4456C6.60001 11.0404 6.81136 10.6616 7.15867 10.447L7.16033 10.446L11.5652 7.85281Z"
    fill="#F1B101"
  />
<rect x="0.25" y="0.25" width="32.5" height="32.5" rx="16.25" stroke="#FCE8C0" stroke-width="0.5" />
</svg>
