<svg width="33" height="33" viewBox="0 0 33 33" fill="none" xmlns="http://www.w3.org/2000/svg">
<rect
    x="0.25"
    y="0.25"
    width="32.5"
    height="32.5"
    rx="16.25"
    fill="url(#paint0_linear)"
    fill-opacity="0.7"
    style="mix-blend-mode:overlay"
  />
<path
    fill-rule="evenodd"
    clip-rule="evenodd"
    d="M11.7501 8.16951C11.7499 8.16959 11.7498 8.16968 11.7496 8.16976L7.34989 10.7599C7.11116 10.9082 6.96676 11.1687 6.96676 11.4455V16.6183C6.96676 16.9085 7.1132 17.1663 7.34727 17.3024L7.34812 17.3029L11.7496 19.8941C11.7497 19.8941 11.7499 19.8942 11.75 19.8942C11.9863 20.0315 12.2824 20.0315 12.5188 19.8943C12.5189 19.8942 12.5191 19.8941 12.5192 19.8941L20.2959 15.3191L20.2967 15.3186C20.6472 15.1148 21.0844 15.1148 21.4349 15.3186L21.4357 15.3191L23.8482 16.7386L23.8499 16.7396C24.1972 16.9542 24.4085 17.333 24.4085 17.7382V20.5645C24.4085 20.9781 24.1987 21.3601 23.8461 21.5653C23.8459 21.5654 23.8458 21.5655 23.8457 21.5656L21.4357 22.9836L21.4349 22.9841C21.0844 23.1878 20.6472 23.1878 20.2967 22.9841L20.2959 22.9836L17.8834 21.5641L17.8817 21.563C17.5344 21.3485 17.323 20.9696 17.323 20.5645V19.5711L15.6981 20.5283V21.7377C15.6981 22.0279 15.8446 22.2857 16.0786 22.4218L16.0795 22.4223L20.481 25.0135C20.4811 25.0135 20.4812 25.0136 20.4813 25.0136C20.7176 25.1509 21.0138 25.151 21.2502 25.0137C21.2503 25.0136 21.2504 25.0135 21.2506 25.0135L25.6503 22.4233C25.889 22.2751 26.0334 22.0145 26.0334 21.7377V16.565C26.0334 16.2863 25.8883 16.0318 25.6492 15.906L25.6454 15.9039L21.2401 13.3105C21.2399 13.3104 21.2398 13.3103 21.2396 13.3102C21.0033 13.1731 20.7072 13.1731 20.4709 13.3103C20.4708 13.3103 20.4707 13.3104 20.4705 13.3105L12.7042 17.8749L12.7035 17.8753C12.353 18.0791 11.9158 18.0791 11.5653 17.8753L11.5645 17.8748L9.15199 16.4553L9.15031 16.4543C8.803 16.2397 8.59165 15.8609 8.59165 15.4557V12.6187C8.59165 12.2052 8.80143 11.8232 9.15408 11.6179C9.15422 11.6178 9.15437 11.6178 9.15451 11.6177L11.5645 10.1997L11.5653 10.1992C11.9158 9.99541 12.353 9.99541 12.7035 10.1992L12.7043 10.1997L15.1168 11.6192L15.1185 11.6202C15.4658 11.8348 15.6772 12.2136 15.6772 12.6187V13.9107L17.3021 12.9535V11.4455C17.3021 11.1554 17.1556 10.8976 16.9216 10.7615L16.9207 10.761L12.5192 8.16976C12.519 8.16968 12.5189 8.1696 12.5188 8.16953C12.2825 8.03232 11.9864 8.03231 11.7501 8.16951ZM11.5653 7.85278C11.9158 7.64901 12.353 7.64901 12.7035 7.85278L12.7043 7.85328L17.1059 10.4445C17.106 10.4446 17.1062 10.4447 17.1063 10.4447C17.459 10.65 17.6687 11.032 17.6687 11.4455V13.1631L15.3105 14.5523V12.6187C15.3105 12.3419 15.1661 12.0814 14.9274 11.9331L12.5192 10.5162C12.5191 10.5161 12.5189 10.516 12.5188 10.5159C12.2825 10.3787 11.9864 10.3787 11.7501 10.5159C11.7499 10.516 11.7498 10.5161 11.7496 10.5162L9.33964 11.9342L9.33882 11.9347C9.10475 12.0708 8.95831 12.3286 8.95831 12.6187V15.4557C8.95831 15.7326 9.1027 15.9931 9.34143 16.1414L11.7496 17.5583C11.7498 17.5584 11.7499 17.5585 11.75 17.5585C11.9863 17.6958 12.2825 17.6958 12.5189 17.5585C12.519 17.5585 12.5191 17.5584 12.5192 17.5583L20.2855 12.994L20.2862 12.9935C20.6367 12.7898 21.0739 12.7898 21.4244 12.9935L21.4252 12.994L25.824 15.5836C26.1904 15.7784 26.4001 16.1625 26.4001 16.565V21.7377C26.4001 22.1428 26.1887 22.5217 25.8414 22.7362L25.8398 22.7373L21.4357 25.33L21.4349 25.3305C21.0844 25.5342 20.6472 25.5342 20.2967 25.3305L20.2959 25.33L15.8943 22.7388C15.8942 22.7387 15.8941 22.7386 15.894 22.7386C15.5413 22.5333 15.3315 22.1513 15.3315 21.7377V20.3188L17.6897 18.9296V20.5645C17.6897 20.8413 17.8341 21.1018 18.0728 21.2501L20.481 22.6671C20.4811 22.6671 20.4812 22.6672 20.4814 22.6673C20.7177 22.8045 21.0139 22.8045 21.2502 22.6673C21.2503 22.6672 21.2504 22.6671 21.2506 22.6671L23.6606 21.2491L23.6614 21.2486C23.8954 21.1125 24.0419 20.8547 24.0419 20.5645V17.7382C24.0419 17.4613 23.8975 17.2008 23.6588 17.0525L21.2506 15.6356C21.2504 15.6355 21.2503 15.6354 21.2502 15.6354C21.0138 15.4981 20.7177 15.4981 20.4813 15.6354C20.4812 15.6355 20.4811 15.6355 20.481 15.6356L12.7043 20.2106L12.7035 20.211C12.353 20.4148 11.9158 20.4148 11.5653 20.211L11.5645 20.2105L7.16296 17.6193C7.16282 17.6193 7.16268 17.6192 7.16254 17.6191C6.80988 17.4138 6.6001 17.0319 6.6001 16.6183V11.4455C6.6001 11.0404 6.81145 10.6616 7.15876 10.447L7.16042 10.446L11.5653 7.85278Z"
    fill="#F1B101"
  />
<rect x="0.25" y="0.25" width="32.5" height="32.5" rx="16.25" stroke="white" stroke-width="0.5" />
<defs>
<linearGradient id="paint0_linear" x1="16.5" y1="0.816372" x2="16.5473" y2="37.6357" gradientUnits="userSpaceOnUse">
<stop stop-color="white" />
<stop offset="1" stop-color="white" />
</linearGradient>
</defs>
</svg>
