<svg width="41" height="41" viewBox="0 0 41 41" fill="none" xmlns="http://www.w3.org/2000/svg">
<g clip-path="url(#clip0_4724_13493)">
<path d="M20.8027 40.25C31.8484 40.25 40.8027 31.2957 40.8027 20.25C40.8027 9.2043 31.8484 0.25 20.8027 0.25C9.75704 0.25 0.802734 9.2043 0.802734 20.25C0.802734 31.2957 9.75704 40.25 20.8027 40.25Z" fill="#E0B53D"/>
<path d="M27.1627 11.7651L17.2327 21.6951L14.4427 18.9051C13.6627 18.1251 12.3927 18.1251 11.6127 18.9051L10.2127 20.3051C9.43275 21.0851 9.43275 22.3551 10.2127 23.1351L15.8127 28.7351C16.5927 29.5151 17.8627 29.5151 18.6427 28.7351L31.3927 15.9951C32.1727 15.2151 32.1727 13.9451 31.3927 13.1651L29.9927 11.7651C29.2027 10.9851 27.9427 10.9851 27.1627 11.7651Z" fill="white"/>
</g>
<defs>
<clipPath id="clip0_4724_13493">
<rect width="40" height="40" fill="white" transform="translate(0.802734 0.25)"/>
</clipPath>
</defs>
</svg>
