<svg width="24" height="25" viewBox="0 0 24 25" fill="none" xmlns="http://www.w3.org/2000/svg">
<g clip-path="url(#clip0_576_8343)">
<path d="M8.16596 23.2034C8.16596 23.4793 7.97286 23.6724 7.69699 23.6724C7.44872 23.6724 7.22803 23.4517 7.22803 23.2034C7.22803 22.9552 7.44872 22.7345 7.69699 22.7345C7.94527 22.7345 8.16596 22.9552 8.16596 23.2034Z" fill="white"/>
<path d="M6.09679 20.4724C6.42783 21.5483 5.76576 22.7345 4.66231 22.9828C3.50369 23.231 2.40024 22.4862 2.23473 21.3C2.20714 20.8586 2.2899 20.4724 2.483 20.0862C2.53817 19.9759 2.53817 19.8931 2.45541 19.8103C1.35197 18.3759 0.634725 16.7759 0.248518 15.0379C0.138173 14.569 0.0830011 14.0724 0.0278287 13.6034C0.0278287 13.5759 0.0278287 13.5207 -0.0273438 13.5207C0.110587 13.5483 0.0830011 13.6586 0.0830011 13.7414C0.193346 14.6241 0.358863 15.4793 0.634725 16.3345C1.04852 17.5483 1.60024 18.6517 2.37266 19.6724C2.53817 19.8931 2.56576 20.0586 2.42783 20.3069C2.09679 20.969 2.23473 21.8241 2.75886 22.4034C3.283 22.9552 4.13817 23.1483 4.85541 22.8724C5.54507 22.5966 6.04162 21.9069 6.06921 21.1621C6.09679 19.7828 4.77266 18.8448 3.4761 19.3414C3.25541 19.4241 3.14507 19.369 3.00714 19.2034C1.8761 17.631 1.15886 15.8931 0.910587 13.9897C0.855415 13.4379 0.800242 12.8862 0.827829 12.3345C0.883001 10.8172 1.21404 9.35517 1.84852 7.97586C2.45541 6.67931 3.25541 5.52069 4.2761 4.55517C6.06921 2.87241 8.16576 1.85172 10.5933 1.54828C11.7244 1.41035 12.8554 1.46552 13.9864 1.65862C14.1244 1.60345 14.1796 1.60345 14.2623 1.60345C14.483 1.60345 14.6761 1.46552 14.7037 1.27241C14.7313 1.05172 14.6209 0.886208 14.4002 0.803449C14.014 0.693104 13.6002 0.665518 13.214 0.610345C12.7451 0.555173 12.3037 0.555173 11.8347 0.555173C10.2899 0.582759 8.77266 0.886208 7.36576 1.4931C6.12438 2.01724 4.99335 2.76207 4.00024 3.67241C1.79335 5.68621 0.52438 8.14138 0.138173 11.0655C0.110587 11.1759 0.110587 11.2862 0.0830011 11.3966C0.0830011 11.4517 0.0830011 11.5345 -0.0273438 11.5345C0.0830011 11.2586 0.0554149 10.9828 0.110587 10.7069C0.551967 7.8931 1.82093 5.54828 3.91748 3.64483C5.73817 1.98966 7.86231 0.996552 10.3175 0.637932C11.6416 0.444828 12.9933 0.472414 14.3175 0.748277C14.6209 0.803449 14.7864 1.05172 14.7313 1.3C14.6761 1.57586 14.4278 1.71379 14.1244 1.65862C10.0968 0.968966 6.6761 2.07241 3.86231 5.02414C2.31748 6.65172 1.37955 8.63793 1.0761 10.8724C0.634725 13.9069 1.35197 16.6379 3.14507 19.1207C3.22783 19.2586 3.31059 19.2862 3.44852 19.2034C4.55197 18.7621 5.76576 19.3414 6.09679 20.4724Z" fill="white"/>
<path d="M15.835 1.82414C15.835 1.54828 16.0556 1.35518 16.3039 1.35518C16.5798 1.35518 16.7729 1.54828 16.7729 1.82414C16.7729 2.07242 16.5798 2.29311 16.3039 2.29311C16.0556 2.29311 15.835 2.07242 15.835 1.82414Z" fill="white"/>
<path d="M12.0278 8.63792C9.9037 8.63792 8.13818 10.3759 8.13818 12.5C8.13818 14.6241 9.87611 16.3896 12.0278 16.3896C14.152 16.3896 15.9175 14.6517 15.9175 12.5C15.8899 10.3759 14.1244 8.63792 12.0278 8.63792ZM12.0003 15.4241C10.3727 15.4241 9.07612 14.1276 9.07612 12.5C9.07612 10.8724 10.3727 9.57586 12.0003 9.57586C13.6278 9.57586 14.9244 10.8724 14.9244 12.5C14.9244 14.1276 13.6278 15.4241 12.0003 15.4241Z" fill="white"/>
<path d="M15.9173 23.8655C14.9794 24.1966 14.0415 24.3897 13.0484 24.4724C12.9932 24.4724 12.938 24.4448 12.9104 24.5276C12.9104 24.4172 13.0208 24.4172 13.076 24.4172C14.8139 24.2517 16.4415 23.7552 17.9863 22.8724C18.7311 22.431 19.4208 21.9345 20.0553 21.3552C21.1863 20.3345 22.0966 19.1207 22.7587 17.769C23.4208 16.4448 23.807 15.0103 23.9173 13.5207C24.0828 11.5897 23.7794 9.71379 23.0346 7.92069C22.676 7.01035 22.1794 6.18276 21.6001 5.41035C21.4622 5.21724 21.407 5.05173 21.5173 4.80345C22.1242 3.53448 21.1587 2.01724 19.6966 2.1C18.6208 2.15517 17.8484 3.06552 17.876 4.08621C17.9035 5.05173 18.7311 5.9069 19.7242 5.9069C20.0001 5.9069 20.2484 5.87931 20.4966 5.79655C20.7725 5.68621 20.8001 5.7138 20.9656 5.93448C21.6001 6.78966 22.0966 7.75517 22.4828 8.74828C22.8139 9.63104 23.007 10.5138 23.0897 11.4241C23.2828 13.2724 23.007 15.0655 22.2897 16.7759C21.738 18.1276 20.938 19.3414 19.8897 20.3897C18.1794 22.0724 16.138 23.1483 13.7656 23.5345C12.5518 23.7276 11.3656 23.7276 10.1518 23.5069C10.0415 23.4793 9.95871 23.4793 9.84837 23.4517C9.60009 23.4241 9.40699 23.5621 9.35181 23.7828C9.29664 23.9483 9.43457 24.169 9.65526 24.2241C9.90354 24.2793 10.1794 24.3345 10.4277 24.3621C10.5932 24.3897 10.7311 24.4172 10.8966 24.4172C10.9518 24.4172 11.0622 24.4172 11.0622 24.5276C10.7587 24.4448 10.4277 24.4448 10.1242 24.3897C9.9863 24.3621 9.82078 24.3345 9.65526 24.3069C9.35181 24.2517 9.1863 24.0035 9.24147 23.7552C9.29664 23.4793 9.54492 23.3138 9.84837 23.369C10.4828 23.5069 11.1173 23.5621 11.7518 23.5897C15.3656 23.5897 18.3173 22.2103 20.607 19.4241C21.9035 17.8517 22.676 16.031 22.9242 14.0172C23.338 10.9828 22.6208 8.27931 20.8277 5.85173C20.7449 5.74138 20.6897 5.74138 20.5794 5.79655C19.807 6.1 19.0897 6.01724 18.4828 5.46552C17.876 4.91379 17.6553 4.22414 17.9035 3.42414C18.1242 2.62414 18.7035 2.15517 19.5311 2.04483C20.3035 1.93448 20.938 2.21035 21.3794 2.84483C21.8484 3.47931 21.9035 4.19655 21.5449 4.88621C21.4622 5.05173 21.4897 5.16207 21.5725 5.3C22.8691 7.01035 23.6691 8.94138 23.9173 11.0931C24.5794 16.7483 21.2966 21.9897 15.9173 23.8655Z" fill="white"/>
<path d="M14.3448 0.748277C13.0207 0.472414 11.669 0.444828 10.3448 0.637932C7.91724 0.968966 5.76552 1.98966 3.94483 3.64483C1.84828 5.52069 0.57931 7.89311 0.137931 10.6793C0.0827586 10.9552 0.110345 11.2586 0 11.5069V13.4655C0.0551724 13.4655 0.0551724 13.5207 0.0551724 13.5483C0.0827586 14.0172 0.165517 14.5138 0.275862 14.9828C0.634483 16.7759 1.37931 18.3759 2.48276 19.8103C2.56552 19.9207 2.56552 19.9759 2.51034 20.0862C2.28965 20.4448 2.23448 20.8586 2.26207 21.2724C2.4 22.431 3.53103 23.2035 4.68965 22.9552C5.76552 22.7069 6.45517 21.5207 6.12414 20.4448C5.76552 19.3138 4.55172 18.7621 3.47586 19.2035C3.31034 19.2586 3.25517 19.231 3.17241 19.1207C1.37931 16.6379 0.662069 13.9069 1.10345 10.8724C1.37931 8.63793 2.31724 6.65173 3.88965 5.02414C6.70345 2.07241 10.1241 0.968966 14.1517 1.65862C14.4552 1.71379 14.7034 1.54828 14.7586 1.3C14.8138 1.02414 14.6483 0.803449 14.3448 0.748277ZM5.24138 21.0517C5.24138 21.6035 4.77241 22.0724 4.22069 22.0724C3.66897 22.0724 3.2 21.6035 3.2 21.0517C3.2 20.5 3.66897 20.031 4.22069 20.031C4.77241 20.0035 5.24138 20.4724 5.24138 21.0517Z" fill="#5F6267"/>
<path d="M23.9176 11.0655C23.6693 8.91379 22.8693 6.98276 21.5727 5.27241C21.4624 5.13448 21.4348 5.05172 21.5452 4.85862C21.9038 4.14138 21.8486 3.45172 21.3796 2.81724C20.9383 2.18276 20.2762 1.9069 19.5314 2.01724C18.7038 2.12759 18.1521 2.62414 17.9038 3.39655C17.6555 4.22414 17.8762 4.91379 18.4831 5.46552C19.09 6.01724 19.8072 6.1 20.5796 5.79655C20.69 5.74138 20.7452 5.74138 20.8279 5.85172C22.621 8.27931 23.3383 11.0103 22.9521 13.9897C22.7038 16.0035 21.9038 17.8241 20.6348 19.3966C18.3452 22.1828 15.3934 23.5621 11.7796 23.5621C11.1452 23.5621 10.5107 23.4793 9.8762 23.3414C9.57275 23.2862 9.32447 23.4241 9.2693 23.7276C9.21413 23.9759 9.37965 24.1966 9.68309 24.2793C9.84861 24.3069 9.98654 24.3345 10.1521 24.3621C10.4555 24.4172 10.7865 24.4172 11.09 24.5H12.9107C12.9383 24.4448 13.021 24.4724 13.0486 24.4448C14.0417 24.3621 14.9796 24.169 15.9176 23.8379C21.2969 21.9897 24.5796 16.7483 23.9176 11.0655ZM18.759 3.97586C18.759 3.42414 19.2279 2.95517 19.7796 2.95517C20.3314 2.95517 20.8003 3.42414 20.8003 3.97586C20.8003 4.52759 20.3314 4.99655 19.7796 4.99655C19.2279 5.02414 18.759 4.55517 18.759 3.97586Z" fill="#5F6267"/>
<path d="M12.0278 8.63792C9.9037 8.63792 8.13818 10.3759 8.13818 12.5C8.13818 14.6241 9.87611 16.3896 12.0278 16.3896C14.152 16.3896 15.9175 14.6517 15.9175 12.5C15.8899 10.3759 14.1244 8.63792 12.0278 8.63792ZM12.0003 15.4241C10.3727 15.4241 9.07612 14.1276 9.07612 12.5C9.07612 10.8724 10.3727 9.57586 12.0003 9.57586C13.6278 9.57586 14.9244 10.8724 14.9244 12.5C14.9244 14.1276 13.6278 15.4241 12.0003 15.4241Z" fill="#5F6267"/>
<path d="M16.7729 1.82414C16.7729 2.07242 16.5798 2.29311 16.3039 2.29311C16.0556 2.29311 15.835 2.07242 15.835 1.82414C15.835 1.54828 16.0556 1.35518 16.3039 1.35518C16.6074 1.35518 16.8005 1.54828 16.7729 1.82414Z" fill="#5F6267"/>
<path d="M8.16596 23.2034C8.16596 23.4793 7.97286 23.6724 7.69699 23.6724C7.44872 23.6724 7.22803 23.4517 7.22803 23.2034C7.22803 22.9552 7.44872 22.7345 7.69699 22.7345C7.94527 22.7345 8.16596 22.9552 8.16596 23.2034Z" fill="#5F6267"/>
<path d="M12.0278 8.63792C9.9037 8.63792 8.13818 10.3759 8.13818 12.5C8.13818 14.6241 9.87611 16.3896 12.0278 16.3896C14.152 16.3896 15.9175 14.6517 15.9175 12.5C15.8899 10.3759 14.1244 8.63792 12.0278 8.63792ZM12.0003 15.4241C10.3727 15.4241 9.07612 14.1276 9.07612 12.5C9.07612 10.8724 10.3727 9.57586 12.0003 9.57586C13.6278 9.57586 14.9244 10.8724 14.9244 12.5C14.9244 14.1276 13.6278 15.4241 12.0003 15.4241Z" fill="white"/>
<path d="M12.0278 8.63792C9.9037 8.63792 8.13818 10.3759 8.13818 12.5C8.13818 14.6241 9.87611 16.3896 12.0278 16.3896C14.152 16.3896 15.9175 14.6517 15.9175 12.5C15.8899 10.3759 14.1244 8.63792 12.0278 8.63792ZM12.0003 15.4241C10.3727 15.4241 9.07612 14.1276 9.07612 12.5C9.07612 10.8724 10.3727 9.57586 12.0003 9.57586C13.6278 9.57586 14.9244 10.8724 14.9244 12.5C14.9244 14.1276 13.6278 15.4241 12.0003 15.4241Z" fill="#5F6267"/>
<path d="M11.9724 20.0586C16.2231 20.0586 19.669 16.6128 19.669 12.3621C19.669 8.11138 16.2231 4.66551 11.9724 4.66551C7.72174 4.66551 4.27588 8.11138 4.27588 12.3621C4.27588 16.6128 7.72174 20.0586 11.9724 20.0586Z" stroke="#5F6267" stroke-miterlimit="10"/>
</g>
<defs>
<clipPath id="clip0_576_8343">
<rect width="24" height="24" fill="white" transform="translate(0 0.5)"/>
</clipPath>
</defs>
</svg>
