<svg width="80" height="80" viewBox="0 0 80 80" fill="none" xmlns="http://www.w3.org/2000/svg">
<path d="M64.9653 28.6339L64.9657 28.6347C66.6585 31.6396 67.7356 34.7982 68.1973 38.188C68.2355 38.4946 68.2547 38.84 68.274 39.2069L68.2769 39.2624C68.2952 39.6114 68.3145 39.9783 68.351 40.3453V44.5069C68.2741 44.9705 68.2355 45.4146 68.1971 45.8566L68.197 45.8575C68.1585 46.3014 68.1201 46.7432 68.0435 47.2039C67.1201 52.212 64.9658 56.6807 61.6568 60.6107C58.7324 64.0014 55.1929 66.6209 51.0381 68.3159L51.0377 68.3161C48.2666 69.4723 45.4206 70.2421 42.4222 70.3191L42.4219 70.3191C40.0332 70.3963 37.7249 70.3961 35.4177 70.0112C31.8008 69.3176 28.4152 68.0076 25.3374 66.0815C22.1052 64.0008 19.3354 61.3811 17.1811 58.2225C14.4874 54.215 12.7948 49.9003 12.2561 45.1237C11.8713 40.2677 12.4103 35.5682 14.4102 31.0236C15.8728 27.8633 17.7198 25.0124 20.1048 22.5472C23.4135 19.1569 27.3377 16.7683 31.8782 15.3042L31.8787 15.304C33.9557 14.6108 36.0316 14.2259 38.1838 14.2259H38.2609V14.2269L38.2707 14.225C38.4295 14.1932 38.5739 14.2023 38.7234 14.2117C38.748 14.2133 38.7728 14.2148 38.7977 14.2162C38.9705 14.2258 39.1501 14.2265 39.3496 14.1488H41.3327C41.4929 14.2263 41.6523 14.2452 41.8165 14.2452C41.8964 14.2452 41.9785 14.2407 42.0621 14.2361L42.0733 14.2355C42.1613 14.2307 42.2516 14.2259 42.3464 14.2259L42.4235 14.226L42.4248 14.2259C45.3444 14.149 48.1122 14.9183 50.8071 15.9977C53.8854 17.2307 56.6547 18.9255 58.9619 21.1588L58.9619 21.1589L58.9637 21.1605C61.4262 23.3181 63.4266 25.7835 64.9653 28.6339ZM15.4709 42.1951L15.4709 42.1956C15.5482 55.8853 26.6705 67.0228 40.3422 67.0228C54.0139 67.0228 65.1364 55.8852 65.1364 42.1953C65.1364 28.5054 54.0139 17.3679 40.3422 17.3679C26.6705 17.3679 15.5482 28.5054 15.4709 42.1951ZM40.3425 63.6809C28.4987 63.6039 18.8858 53.9775 18.9627 42.1957V42.1953C18.9627 30.3359 28.5759 20.7098 40.4193 20.7098C52.1853 20.7098 61.7988 30.4128 61.7988 42.1953C61.7988 54.0546 52.1088 63.6807 40.3425 63.6809ZM58.5842 42.1953C58.5842 32.1333 50.3909 23.9289 40.3422 23.9289C30.2935 23.9289 22.1002 32.1333 22.1002 42.1953C22.1002 52.2574 30.2935 60.4618 40.3422 60.4618C50.3909 60.4618 58.5842 52.2574 58.5842 42.1953Z" fill="#D5D5D5" stroke="white" stroke-width="0.1"/>
<path d="M46.5219 37.8442L46.5225 37.844C47.255 37.651 47.9681 37.458 48.6811 37.265L48.6812 37.265C49.3939 37.0721 50.1065 36.8793 50.8383 36.6865C51.1829 36.6098 51.4833 36.573 51.7625 36.6196C52.0402 36.666 52.3008 36.7955 52.564 37.0591C53.0896 37.5854 53.1619 38.1812 52.9389 38.7023L52.9384 38.7021L52.9365 38.7091C52.1815 41.5443 51.3751 44.3281 50.5591 47.145C50.3756 47.7783 50.1917 48.4133 50.0077 49.0509C49.8548 49.5484 49.6662 49.8839 49.3892 50.0965C49.1126 50.3089 48.7399 50.4046 48.2056 50.4046H48.1902H48.1749H48.1595H48.1442H48.1288H48.1135H48.0981H48.0827H48.0674H48.052H48.0367H48.0213H48.006H47.9906H47.9752H47.9599H47.9445H47.9292H47.9138H47.8985H47.8831H47.8677H47.8524H47.837H47.8217H47.8063H47.791H47.7756H47.7602H47.7449H47.7295H47.7142H47.6988H47.6835H47.6681H47.6528H47.6374H47.622H47.6067H47.5913H47.576H47.5606H47.5453H47.5299H47.5145H47.4992H47.4838H47.4685H47.4531H47.4378H47.4224H47.407H47.3917H47.3763H47.361H47.3456H47.3303H47.3149H47.2995H47.2842H47.2688H47.2535H47.2381H47.2228H47.2074H47.192H47.1767H47.1613H47.146H47.1306H47.1153H47.0999H47.0846H47.0692H47.0538H47.0385H47.0231H47.0078H46.9924H46.9771H46.9617H46.9463H46.931H46.9156H46.9003H46.8849H46.8696H46.8542H46.8388H46.8235H46.8081H46.7928H46.7774H46.7621H46.7467H46.7313H46.716H46.7006H46.6853H46.6699H46.6546H46.6392H46.6238H46.6085H46.5931H46.5778H46.5624H46.5471H46.5317H46.5164H46.501H46.4856H46.4703H46.4549H46.4396H46.4242H46.4089H46.3935H46.3781H46.3628H46.3474H46.3321H46.3167H46.3014H46.286H46.2706H46.2553H46.2399H46.2246H46.2092H46.1939H46.1785H46.1631H46.1478H46.1324H46.1171H46.1017H46.0864H46.071H46.0557H46.0403H46.0249H46.0096H45.9942H45.9789H45.9635H45.9482H45.9328H45.9174H45.9021H45.8867H45.8714H45.856H45.8407H45.8253H45.8099H45.7946H45.7792H45.7639H45.7485H45.7332H45.7178H45.7024H45.6871H45.6717H45.6564H45.641H45.6257H45.6103H45.5949H45.5796H45.5642H45.5489H45.5335H45.5182H45.5028H45.4875H45.4721H45.4567H45.4414H45.426H45.4107H45.3953H45.38H45.3646H45.3492H45.3339H45.3185H45.3032H45.2878H45.2725H45.2571H45.2417H45.2264H45.211H45.1957H45.1803H45.165H45.1496H45.1342H45.1189H45.1035H45.0882H45.0728H45.0575H45.0421H45.0268H45.0114H44.996H44.9807H44.9653H44.95H44.9346H44.9193H44.9039H44.8885H44.8732H44.8578H44.8425H44.8271H44.8118H44.7964H44.781H44.7657H44.7503H44.735H44.7196H44.7043H44.6889H44.6735H44.6582H44.6428H44.6275H44.6121H44.5968H44.5814H44.566H44.5507H44.5353H44.52H44.5046H44.4893H44.4739H44.4586H44.4432H44.4278H44.4125H44.3971H44.3818H44.3664H44.3511H44.3357H44.3203H44.305H44.2896H44.2743H44.2589H44.2436H44.2282H44.2128H44.1975H44.1821H44.1668H44.1514H44.1361H44.1207H44.1053H44.09H44.0746H44.0593H44.0439H44.0286H44.0132H43.9979H43.9825H43.9671H43.9518H43.9364H43.9211H43.9057H43.8904H43.875H43.8596H43.8443H43.8289H43.8136H43.7982H43.7829H43.7675H43.7521H43.7368H43.7214H43.7061H43.6907H43.6754H43.66H43.6446H43.6293H43.6139H43.5986H43.5832H43.5679H43.5525H43.5371H43.5218H43.5064H43.4911H43.4757H43.4604H43.445H43.4297H43.4143H43.3989H43.3836H43.3682H43.3529H43.3375H43.3222H43.3068H43.2914H43.2761H43.2607H43.2454H43.23H43.2147H43.1993H43.1839H43.1686H43.1532H43.1379H43.1225H43.1072H43.0918H43.0764H43.0611H43.0457H43.0304H43.015H42.9997H42.9843H42.969H42.9536H42.9382H42.9229H42.9075H42.8922H42.8768H42.8615H42.8461H42.8307H42.8154H42.8H42.7847H42.7693H42.754H42.7386H42.7232H42.7079H42.6925H42.6772H42.6618H42.6465H42.6311H42.6157H42.6004H42.585H42.5697H42.5543H42.539H42.5236H42.5082H42.4929H42.4775H42.4622H42.4468H42.4315H42.4161H42.4008H42.3854H42.37H42.3547H42.3393H42.324H42.3086H42.2933H42.2779H42.2625H42.2472H42.2318H42.2165H42.2011H42.1858H42.1704H42.155H42.1397H42.1243H42.109H42.0936H42.0783H42.0629H42.0475H42.0322H42.0168H42.0015H41.9861H41.9708H41.9554H41.9401H41.9247H41.9093H41.894H41.8786H41.8633H41.8479H41.8326H41.8172H41.8018H41.7865H41.7711H41.7558H41.7404H41.7251H41.7097H41.6943H41.679H41.6636H41.6483H41.6329H41.6176H41.6022H41.5868H41.5715H41.5561H41.5408H41.5254H41.5101H41.4947H41.4793H41.464H41.4486H41.4333H41.4179H41.4026H41.3872H41.3719H41.3565H41.3411H41.3258H41.3104H41.2951H41.2797H41.2644H41.249H41.2336H41.2183H41.2029H41.1876H41.1722H41.1569H41.1415H41.1261H41.1108H41.0954H41.0801H41.0647H41.0494H41.034H41.0186H41.0033H40.9879H40.9726H40.9572H40.9419H40.9265H40.9112H40.8958H40.8804H40.8651H40.8497H40.8344H40.819H40.8037H40.7883H40.7729H40.7576H40.7422H40.7269H40.7115H40.6962H40.6808H40.6654H40.6501H40.6347H40.6194H40.604H40.5887H40.5733H40.5579H40.5426H40.5272H40.5119H40.4965H40.4812H40.4658H40.4504H40.4351H40.4197H40.4044H40.389H40.3737H40.3583H40.343H40.328H40.3131H40.2982H40.2833H40.2684H40.2535H40.2386H40.2237H40.2087H40.1938H40.1789H40.164H40.149H40.1341H40.1192H40.1043H40.0893H40.0744H40.0594H40.0445H40.0296H40.0146H39.9997H39.9847H39.9698H39.9548H39.9399H39.9249H39.91H39.895H39.8801H39.8651H39.8502H39.8352H39.8202H39.8053H39.7903H39.7754H39.7604H39.7454H39.7304H39.7155H39.7005H39.6855H39.6705H39.6556H39.6406H39.6256H39.6106H39.5956H39.5807H39.5657H39.5507H39.5357H39.5207H39.5057H39.4907H39.4757H39.4607H39.4457H39.4307H39.4157H39.4007H39.3857H39.3707H39.3557H39.3407H39.3257H39.3107H39.2957H39.2807H39.2656H39.2506H39.2356H39.2206H39.2056H39.1906H39.1755H39.1605H39.1455H39.1305H39.1154H39.1004H39.0854H39.0704H39.0553H39.0403H39.0253H39.0102H38.9952H38.9802H38.9651H38.9501H38.935H38.92H38.905H38.8899H38.8749H38.8598H38.8448H38.8297H38.8147H38.7996H38.7846H38.7695H38.7545H38.7394H38.7244H38.7093H38.6943H38.6792H38.6641H38.6491H38.634H38.619H38.6039H38.5888H38.5738H38.5587H38.5436H38.5286H38.5135H38.4984H38.4834H38.4683H38.4532H38.4381H38.4231H38.408H38.3929H38.3778H38.3628H38.3477H38.3326H38.3175H38.3024H38.2874H38.2723H38.2572H38.2421H38.227H38.2119H38.1969H38.1818H38.1667H38.1516H38.1365H38.1214H38.1063H38.0912H38.0761H38.061H38.0459H38.0308H38.0158H38.0007H37.9856H37.9705H37.9554H37.9403H37.9252H37.9101H37.895H37.8799H37.8648H37.8497H37.8346H37.8195H37.8043H37.7892H37.7741H37.759H37.7439H37.7288H37.7137H37.6986H37.6835H37.6684H37.6533H37.6382H37.623H37.6079H37.5928H37.5777H37.5626H37.5475H37.5324H37.5173H37.5021H37.487H37.4719H37.4568H37.4417H37.4266H37.4114H37.3963H37.3812H37.3661H37.351H37.3358H37.3207H37.3056H37.2905H37.2754H37.2602H37.2451H37.23H37.2149H37.1997H37.1846H37.1695H37.1544H37.1393H37.1241H37.109H37.0939H37.0788H37.0636H37.0485H37.0334H37.0182H37.0031H36.988H36.9729H36.9577H36.9426H36.9275H36.9124H36.8972H36.8821H36.867H36.8518H36.8367H36.8216H36.8065H36.7913H36.7762H36.7611H36.7459H36.7308H36.7157H36.7005H36.6854H36.6703H36.6552H36.64H36.6249H36.6098H36.5946H36.5795H36.5644H36.5492H36.5341H36.519H36.5038H36.4887H36.4736H36.4585H36.4433H36.4282H36.4131H36.3979H36.3828H36.3677H36.3525H36.3374H36.3223H36.3071H36.292H36.2769H36.2618H36.2466H36.2315H36.2164H36.2012H36.1861H36.171H36.1559H36.1407H36.1256H36.1105H36.0953H36.0802H36.0651H36.05H36.0348H36.0197H36.0046H35.9894H35.9743H35.9592H35.9441H35.9289H35.9138H35.8987H35.8836H35.8684H35.8533H35.8382H35.8231H35.8079H35.7928H35.7777H35.7626H35.7474H35.7323H35.7172H35.7021H35.687H35.6718H35.6567H35.6416H35.6265H35.6114H35.5962H35.5811H35.566H35.5509H35.5358H35.5206H35.5055H35.4904H35.4753H35.4602H35.4451H35.43H35.4148H35.3997H35.3846H35.3695H35.3544H35.3393H35.3242H35.3091H35.2939H35.2788H35.2637H35.2486H35.2335H35.2184H35.2033H35.1882H35.1731H35.158H35.1429H35.1278H35.1127H35.0976H35.0825H35.0674H35.0523H35.0372H35.0221H35.007H34.9919H34.9768H34.9617H34.9466H34.9315H34.9164H34.9013H34.8862H34.8711H34.856H34.8409H34.8258H34.8108H34.7957H34.7806H34.7655H34.7504H34.7353H34.7202H34.7052H34.6901H34.675H34.6599H34.6448H34.6298H34.6147H34.5996H34.5845H34.5694H34.5544H34.5393H34.5242H34.5092H34.4941H34.479H34.4639H34.4489H34.4338H34.4187H34.4037H34.3886H34.3735H34.3585H34.3434H34.3284H34.3133H34.2982H34.2832H34.2681H34.2531H34.238H34.223H34.2079H34.1929H34.1778H34.1628H34.1477H34.1327H34.1176H34.1026H34.0875H34.0725H34.0574H34.0424H34.0274H34.0123H33.9973H33.9822H33.9672H33.9522H33.9371H33.9221H33.9071H33.8921H33.877H33.862H33.847H33.8319H33.8169H33.8019H33.7869H33.7719H33.7568H33.7418H33.7268H33.7118H33.6968H33.6818H33.6668H33.6517H33.6367H33.6217H33.6067H33.5917H33.5767H33.5617H33.5467H33.5317H33.5167H33.5017H33.4867H33.4717H33.4567H33.4417H33.4268H33.4118H33.3968H33.3818H33.3668H33.3518H33.3369H33.3219H33.3069H33.2919H33.2769H33.262H33.247H33.232H33.2171H33.2021H33.1871H33.1722H33.1572H33.1422H33.1273H33.1123H33.0974H33.0824H33.0674H33.0525H33.0375H33.0226H33.0076H32.9927H32.9778H32.9628H32.9479H32.9329H32.918H32.9031H32.8881H32.8732H32.8583H32.8433H32.8284H32.8135H32.7985H32.7836H32.7687H32.7538H32.7389H32.7239H32.709H32.6941H32.6792H32.6643H32.6494H32.6345C32.061 50.4046 31.6495 50.3087 31.3438 50.0861C31.0386 49.8638 30.831 49.5093 30.6784 48.9743L30.6782 48.9739C30.1773 47.2761 29.6956 45.559 29.2138 43.8415L29.2138 43.8413C28.7322 42.1245 28.2505 40.4074 27.7495 38.7095C27.6737 38.367 27.6556 38.0662 27.7116 37.7862C27.7673 37.5073 27.897 37.2457 28.122 36.9821C28.3852 36.7568 28.6465 36.6269 28.925 36.5711C29.2044 36.5151 29.5047 36.5332 29.8464 36.609C31.3101 37.0717 32.7735 37.4575 34.2356 37.8427C34.3928 37.9207 34.5225 37.9456 34.6462 37.9006C34.7671 37.8565 34.871 37.749 34.9868 37.5944C34.9869 37.5943 34.987 37.5942 34.987 37.5941L38.9174 32.5009C38.9175 32.5008 38.9176 32.5007 38.9177 32.5006C39.3743 31.9292 39.8815 31.6513 40.3719 31.6513C40.8618 31.6513 41.3494 31.9287 41.7672 32.4992L41.7672 32.4992L41.768 32.5002L45.6989 37.5941C45.6989 37.5942 45.699 37.5942 45.699 37.5943C45.8197 37.7554 45.9446 37.8411 46.0841 37.8734C46.2215 37.9051 46.3661 37.8832 46.5219 37.8442ZM33.4343 46.9948L33.4343 46.9948L33.435 46.9969C33.4773 47.124 33.5444 47.1953 33.6383 47.2305C33.7239 47.2627 33.8281 47.2627 33.9381 47.2627H33.9449H33.9698H33.9946H34.0195H34.0443H34.0692H34.094H34.1189H34.1437H34.1686H34.1934H34.2183H34.2431H34.268H34.2929H34.3177H34.3426H34.3675H34.3924H34.4172H34.4421H34.467H34.4919H34.5167H34.5416H34.5665H34.5914H34.6163H34.6412H34.666H34.6909H34.7158H34.7407H34.7656H34.7905H34.8154H34.8403H34.8652H34.8901H34.915H34.9399H34.9648H34.9897H35.0147H35.0396H35.0645H35.0894H35.1143H35.1392H35.1642H35.1891H35.214H35.2389H35.2638H35.2888H35.3137H35.3386H35.3636H35.3885H35.4134H35.4384H35.4633H35.4882H35.5132H35.5381H35.563H35.588H35.6129H35.6379H35.6628H35.6878H35.7127H35.7377H35.7626H35.7876H35.8125H35.8375H35.8624H35.8874H35.9124H35.9373H35.9623H35.9872H36.0122H36.0372H36.0621H36.0871H36.1121H36.137H36.162H36.187H36.212H36.2369H36.2619H36.2869H36.3119H36.3368H36.3618H36.3868H36.4118H36.4368H36.4618H36.4867H36.5117H36.5367H36.5617H36.5867H36.6117H36.6367H36.6617H36.6867H36.7117H36.7367H36.7616H36.7866H36.8116H36.8366H36.8616H36.8866H36.9116H36.9367H36.9617H36.9867H37.0117H37.0367H37.0617H37.0867H37.1117H37.1367H37.1617H37.1867H37.2117H37.2368H37.2618H37.2868H37.3118H37.3368H37.3618H37.3869H37.4119H37.4369H37.4619H37.4869H37.512H37.537H37.562H37.587H37.6121H37.6371H37.6621H37.6872H37.7122H37.7372H37.7622H37.7873H37.8123H37.8373H37.8624H37.8874H37.9124H37.9375H37.9625H37.9876H38.0126H38.0376H38.0627H38.0877H38.1127H38.1378H38.1628H38.1879H38.2129H38.238H38.263H38.288H38.3131H38.3381H38.3632H38.3882H38.4133H38.4383H38.4634H38.4884H38.5135H38.5385H38.5636H38.5886H38.6137H38.6387H38.6638H38.6888H38.7139H38.7389H38.764H38.789H38.8141H38.8391H38.8642H38.8893H38.9143H38.9394H38.9644H38.9895H39.0145H39.0396H39.0647H39.0897H39.1148H39.1398H39.1649H39.19H39.215H39.2401H39.2651H39.2902H39.3153H39.3403H39.3654H39.3904H39.4155H39.4406H39.4656H39.4907H39.5158H39.5408H39.5659H39.591H39.616H39.6411H39.6662H39.6912H39.7163H39.7413H39.7664H39.7915H39.8165H39.8416H39.8667H39.8917H39.9168H39.9419H39.9669H39.992H40.0171H40.0421H40.0672H40.0923H40.1173H40.1424H40.1675H40.1925H40.2176H40.2427H40.2677H40.2928H40.3179H40.343H40.368H40.3931H40.4182H40.4432H40.4683H40.4934H40.5184H40.5435H40.5686H40.5936H40.6187H40.6438H40.6688H40.6939H40.719H40.744H40.7691H40.7942H40.8192H40.8443H40.8694H40.8944H40.9195H40.9446H40.9696H40.9947H41.0198H41.0448H41.0699H41.0949H41.12H41.1451H41.1701H41.1952H41.2203H41.2453H41.2704H41.2955H41.3205H41.3456H41.3706H41.3957H41.4208H41.4458H41.4709H41.4959H41.521H41.5461H41.5711H41.5962H41.6212H41.6463H41.6714H41.6964H41.7215H41.7465H41.7716H41.7966H41.8217H41.8468H41.8718H41.8969H41.9219H41.947H41.972H41.9971H42.0221H42.0472H42.0722H42.0973H42.1223H42.1474H42.1724H42.1975H42.2225H42.2476H42.2726H42.2977H42.3227H42.3478H42.3728H42.3979H42.4229H42.4479H42.473H42.498H42.5231H42.5481H42.5732H42.5982H42.6232H42.6483H42.6733H42.6983H42.7234H42.7484H42.7735H42.7985H42.8235H42.8486H42.8736H42.8986H42.9237H42.9487H42.9737H42.9987H43.0238H43.0488H43.0738H43.0989H43.1239H43.1489H43.1739H43.199H43.224H43.249H43.274H43.299H43.3241H43.3491H43.3741H43.3991H43.4241H43.4491H43.4742H43.4992H43.5242H43.5492H43.5742H43.5992H43.6242H43.6492H43.6742H43.6992H43.7242H43.7493H43.7743H43.7993H43.8243H43.8493H43.8743H43.8993H43.9243H43.9493H43.9742H43.9992H44.0242H44.0492H44.0742H44.0992H44.1242H44.1492H44.1742H44.1992H44.2241H44.2491H44.2741H44.2991H44.3241H44.3491H44.374H44.399H44.424H44.449H44.4739H44.4989H44.5239H44.5489H44.5738H44.5988H44.6238H44.6487H44.6737H44.6987H44.7236H44.7486H44.7735H44.7985H44.8235H44.8484H44.8734H44.8983H44.9233H44.9482H44.9732H44.9981H45.0231H45.048H45.073H45.0979H45.1229H45.1478H45.1727H45.1977H45.2226H45.2475H45.2725H45.2974H45.3223H45.3473H45.3722H45.3971H45.4221H45.447H45.4719H45.4968H45.5218H45.5467H45.5716H45.5965H45.6214H45.6463H45.6712H45.6962H45.7211H45.746H45.7709H45.7958H45.8207H45.8456H45.8705H45.8954H45.9203H45.9452H45.9701H45.995H46.0199H46.0447H46.0696H46.0945H46.1194H46.1443H46.1692H46.194H46.2189H46.2438H46.2687H46.2936H46.3184H46.3433H46.3682H46.393H46.4179H46.4428H46.4676H46.4925H46.5173H46.5422H46.567H46.5919H46.6167H46.6416H46.6664H46.6913H46.7161H46.741C46.8976 47.2627 47.0258 47.2435 47.1253 47.1771C47.2263 47.1096 47.2889 46.9996 47.329 46.8393C47.4235 46.4924 47.5316 46.1303 47.6422 45.7599C47.8005 45.2296 47.9639 44.6822 48.0998 44.1377C48.2067 43.7364 48.3232 43.3339 48.4427 42.9212C48.6667 42.1475 48.9011 41.3375 49.1023 40.4309L49.1192 40.3549L49.043 40.3712C48.3839 40.5126 47.779 40.6837 47.1986 40.8478C46.8291 40.9523 46.4695 41.054 46.1122 41.1435L46.1122 41.1434L46.1105 41.1439C45.5752 41.2971 45.2021 41.3134 44.8795 41.1934C44.5556 41.0729 44.2737 40.812 43.928 40.3889C43.9278 40.3888 43.9277 40.3886 43.9276 40.3885L40.6913 36.2219C40.6912 36.2218 40.6911 36.2217 40.691 36.2216C40.6338 36.1451 40.5836 36.0796 40.5361 36.0321C40.4889 35.9848 40.4378 35.9484 40.3774 35.9417C40.3157 35.9348 40.257 35.9601 40.1978 36.0062C40.1388 36.0522 40.0732 36.1235 39.9955 36.2207L39.9955 36.2207L39.9941 36.2227C39.3522 37.1126 38.6793 37.97 38.0147 38.8169C37.6421 39.2917 37.2721 39.7632 36.9115 40.2354L36.9112 40.2357C36.4485 40.8535 36.1292 41.1689 35.7509 41.2891C35.3718 41.4094 34.9233 41.3371 34.1897 41.1438C33.4182 40.9121 32.5698 40.6804 31.6445 40.4488L31.5583 40.4272L31.5846 40.5121C32.0469 42.0037 32.4405 43.4261 32.8344 44.8493C33.0314 45.5614 33.2285 46.2736 33.4343 46.9948Z" fill="#D5D5D5" stroke="white" stroke-width="0.1"/>
<path d="M18.9626 42.1954C18.9626 30.3358 28.576 20.7098 40.3421 20.7098C52.1853 20.7098 61.7989 30.413 61.8758 42.1957C61.8757 54.0549 52.1855 63.6809 40.4192 63.6809C28.576 63.6809 18.9626 53.9778 18.9626 42.1954ZM22.1002 42.1954C22.1002 52.2574 30.2935 60.4618 40.3421 60.4618C50.3908 60.4618 58.5841 52.2574 58.5841 42.1954C58.5841 32.1333 50.3908 23.9289 40.3421 23.9289C30.2935 23.9289 22.1002 32.1333 22.1002 42.1954Z" fill="#D5D5D5" stroke="white" stroke-width="0.1"/>
<line x1="6.17822" y1="16.457" x2="6.17822" y2="22.8784" stroke="#5F6267" stroke-width="2" stroke-linecap="round"/>
<line x1="3.16992" y1="19.6296" x2="9.59131" y2="19.6296" stroke="#5F6267" stroke-width="2" stroke-linecap="round"/>
<line x1="72.7974" y1="62.988" x2="72.7974" y2="69.4095" stroke="#D5D5D5" stroke-width="2" stroke-linecap="round"/>
<line x1="69.7891" y1="66.1608" x2="76.2105" y2="66.1608" stroke="#D5D5D5" stroke-width="2" stroke-linecap="round"/>
<circle cx="75.4609" cy="47.5707" r="1.74951" fill="#C4C4C4"/>
<circle cx="23.2026" cy="8.75995" r="1.74951" fill="#C4C4C4"/>
<circle cx="10.3408" cy="65.4113" r="1.74951" fill="#C4C4C4"/>
</svg>
