<svg width="32" height="33" viewBox="0 0 32 33" fill="none" xmlns="http://www.w3.org/2000/svg">
<rect
    x="0.25"
    y="0.25"
    width="31.5"
    height="32.5"
    rx="15.75"
    fill="url(#paint0_linear)"
    fill-opacity="0.7"
    style="mix-blend-mode:overlay"
  />
<path
    fill-rule="evenodd"
    clip-rule="evenodd"
    d="M10.0131 9.16675H24.1104C24.7347 9.16675 25.0545 9.9478 24.6131 10.4003L22.0929 12.9842H7.99564C7.37134 12.9842 7.05158 12.2031 7.49293 11.7506L10.0131 9.16675ZM10.1598 9.53342L7.74361 12.0106C7.53221 12.2274 7.68161 12.6175 7.99564 12.6175H21.9462L24.3624 10.1403C24.5738 9.92353 24.4244 9.53342 24.1104 9.53342H10.1598Z"
    fill="#F1B101"
  />
<path
    fill-rule="evenodd"
    clip-rule="evenodd"
    d="M10.0131 19.8328H24.1104C24.7347 19.8328 25.0545 20.6138 24.6131 21.0663L22.0929 23.6502H7.99564C7.37134 23.6502 7.05158 22.8691 7.49293 22.4166L10.0131 19.8328ZM10.1598 20.1994L7.74361 22.6767C7.53221 22.8934 7.68161 23.2835 7.99564 23.2835H21.9462L24.3624 20.8063C24.5738 20.5895 24.4244 20.1994 24.1104 20.1994H10.1598Z"
    fill="#F1B101"
  />
<path
    fill-rule="evenodd"
    clip-rule="evenodd"
    d="M7.49293 15.9003C7.05158 15.4478 7.37134 14.6667 7.99564 14.6667H22.0929L24.6131 17.2506C25.0545 17.7031 24.7347 18.4842 24.1104 18.4842H10.0131L7.49293 15.9003ZM7.99564 15.0334C7.68161 15.0334 7.53221 15.4235 7.74361 15.6403L10.1598 18.1175H24.1104C24.4244 18.1175 24.5738 17.7274 24.3624 17.5106L21.9462 15.0334H7.99564Z"
    fill="#F1B101"
  />
<rect x="0.25" y="0.25" width="31.5" height="32.5" rx="15.75" stroke="white" stroke-width="0.5" />
<defs>
<linearGradient id="paint0_linear" x1="16" y1="0.816372" x2="16.0488" y2="37.6357" gradientUnits="userSpaceOnUse">
<stop stop-color="white" />
<stop offset="1" stop-color="white" />
</linearGradient>
</defs>
</svg>
