<svg width="32" height="33" viewBox="0 0 32 33" fill="none" xmlns="http://www.w3.org/2000/svg">
<path
    fill-rule="evenodd"
    clip-rule="evenodd"
    d="M10.0132 9.16666H24.1105C24.7348 9.16666 25.0546 9.94771 24.6132 10.4002L22.093 12.9841H7.99573C7.37144 12.9841 7.05167 12.203 7.49302 11.7505L10.0132 9.16666ZM10.1599 9.53332L7.7437 12.0106C7.5323 12.2273 7.6817 12.6174 7.99573 12.6174H21.9463L24.3625 10.1402C24.5739 9.92343 24.4245 9.53332 24.1105 9.53332H10.1599Z"
    fill="#F1B101"
  />
<path
    fill-rule="evenodd"
    clip-rule="evenodd"
    d="M10.0132 19.8326H24.1105C24.7348 19.8326 25.0546 20.6136 24.6132 21.0661L22.093 23.65H7.99573C7.37144 23.65 7.05167 22.8689 7.49302 22.4164L10.0132 19.8326ZM10.1599 20.1992L7.7437 22.6765C7.5323 22.8932 7.6817 23.2833 7.99573 23.2833H21.9463L24.3625 20.8061C24.5739 20.5894 24.4245 20.1992 24.1105 20.1992H10.1599Z"
    fill="#F1B101"
  />
<path
    fill-rule="evenodd"
    clip-rule="evenodd"
    d="M7.49302 15.9002C7.05167 15.4477 7.37144 14.6667 7.99573 14.6667H22.093L24.6132 17.2505C25.0546 17.703 24.7348 18.4841 24.1105 18.4841H10.0132L7.49302 15.9002ZM7.99573 15.0333C7.6817 15.0333 7.5323 15.4234 7.7437 15.6402L10.1599 18.1174H24.1105C24.4245 18.1174 24.5739 17.7273 24.3625 17.5105L21.9463 15.0333H7.99573Z"
    fill="#F1B101"
  />
<rect x="0.25" y="0.25" width="31.5" height="32.5" rx="15.75" stroke="#FCE8C0" stroke-width="0.5" />
</svg>
