<svg width="18" height="18" viewBox="0 0 18 18" fill="none" xmlns="http://www.w3.org/2000/svg">
<path d="M16.4003 6.37154L11.5603 5.95154L9.67032 1.50154C9.33032 0.691543 8.17032 0.691543 7.83032 1.50154L5.94032 5.96154L1.11032 6.37154C0.230317 6.44154 -0.129683 7.54154 0.540317 8.12154L4.21032 11.3015L3.11032 16.0215C2.91032 16.8815 3.84032 17.5615 4.60032 17.1015L8.75032 14.6015L12.9003 17.1115C13.6603 17.5715 14.5903 16.8915 14.3903 16.0315L13.2903 11.3015L16.9603 8.12154C17.6303 7.54154 17.2803 6.44154 16.4003 6.37154ZM8.75032 12.7315L4.99032 15.0015L5.99032 10.7215L2.67032 7.84154L7.05032 7.46154L8.75032 3.43154L10.4603 7.47154L14.8403 7.85154L11.5203 10.7315L12.5203 15.0115L8.75032 12.7315Z" fill="#06032B"/>
</svg>
