<svg width="37" height="37" viewBox="0 0 37 37" fill="none" xmlns="http://www.w3.org/2000/svg">
<circle cx="17.9781" cy="18.4492" r="13" fill="white"/>
<path fill-rule="evenodd" clip-rule="evenodd" d="M18.9781 36.4492C9.03702 36.4492 0.978149 28.3903 0.978149 18.4492C0.978149 8.50809 9.03702 0.449219 18.9781 0.449219C28.9193 0.449219 36.9781 8.50809 36.9781 18.4492C36.9781 28.3903 28.9193 36.4492 18.9781 36.4492ZM19.7565 13.9575C18.1444 14.6281 14.9224 16.0159 10.0906 18.121C9.30594 18.4331 8.89493 18.7383 8.85751 19.0368C8.79428 19.5412 9.42594 19.7398 10.2861 20.0103C10.4031 20.0471 10.5243 20.0852 10.6486 20.1256C11.4949 20.4007 12.6333 20.7225 13.2251 20.7353C13.7619 20.7469 14.361 20.5256 15.0225 20.0714C19.5371 17.0239 21.8675 15.4836 22.0138 15.4504C22.117 15.427 22.26 15.3975 22.357 15.4836C22.4539 15.5698 22.4443 15.7329 22.4341 15.7767C22.3715 16.0434 19.892 18.3486 18.6088 19.5416C18.2088 19.9135 17.9251 20.1773 17.8671 20.2375C17.7371 20.3725 17.6047 20.5001 17.4774 20.6228C16.6912 21.3807 16.1016 21.9491 17.5101 22.8772C18.1869 23.3232 18.7285 23.6921 19.2688 24.06C19.8589 24.4619 20.4475 24.8627 21.209 25.3619C21.403 25.489 21.5882 25.6211 21.7687 25.7498C22.4554 26.2394 23.0724 26.6792 23.8346 26.6091C24.2775 26.5683 24.735 26.1518 24.9673 24.9098C25.5164 21.9744 26.5957 15.6143 26.8451 12.9935C26.867 12.7639 26.8395 12.47 26.8174 12.341C26.7954 12.212 26.7492 12.0282 26.5815 11.8921C26.383 11.731 26.0764 11.697 25.9393 11.6993C25.3159 11.7104 24.3594 12.043 19.7565 13.9575Z" fill="#039BE5"/>
</svg>
