<svg width="35" height="35" viewBox="0 0 35 35" fill="none" xmlns="http://www.w3.org/2000/svg">
<g clip-path="url(#clip0_2373:8188)">
<path d="M26.0441 5.60492L26.0487 5.60031C26.0589 5.59109 26.0686 5.58141 26.0783 5.57265C26.2544 5.40297 26.3542 5.16884 26.3554 4.9229C26.3571 4.67742 26.2594 4.4414 26.0856 4.2676L24.1261 2.30806C23.1287 1.31067 21.5097 1.30658 20.5173 2.29894L2.47644 20.3398C1.48408 21.3322 1.48817 22.9512 2.48555 23.9486L4.44417 25.9072C4.8015 26.2645 5.37938 26.2669 5.73631 25.9128C6.73837 24.9181 8.36937 24.925 9.37278 25.9284C10.3762 26.9318 10.3831 28.5628 9.38844 29.5649C9.03429 29.9218 9.03668 30.4997 9.39401 30.857L11.3526 32.8156C12.35 33.813 13.969 33.8171 14.9613 32.8248L33.0018 14.7843C33.9941 13.792 33.9901 12.173 32.9927 11.1756L31.0336 9.21651C30.8598 9.04271 30.6233 8.9455 30.3783 8.94673C30.1328 8.94842 29.8973 9.0486 29.7285 9.22385C29.7189 9.23354 29.7096 9.24368 29.7009 9.25337L29.6963 9.25798C28.6942 10.2563 27.0623 10.2513 26.0566 9.24555C25.0508 8.2389 25.0458 6.60698 26.0441 5.60492ZM30.3329 11.0972L31.7015 12.4658C31.9833 12.7476 31.9844 13.2053 31.7041 13.4857L28.229 16.9608L27.2524 15.9842C26.8942 15.626 26.3145 15.6245 25.958 15.981C25.6016 16.3374 25.603 16.9172 25.9613 17.2754L26.9383 18.2524L13.6636 31.527C13.3833 31.8074 12.9256 31.8063 12.6438 31.5245L11.2645 30.1452C12.3609 28.4416 12.1591 26.1324 10.6644 24.6377C9.16973 23.143 6.8605 22.9412 5.15693 24.0376L3.77672 22.6574C3.49494 22.3756 3.49378 21.9179 3.77415 21.6376L17.0488 8.36292L21.9935 13.3077C22.3518 13.6659 22.9315 13.6674 23.288 13.3109C23.6444 12.9545 23.643 12.3748 23.2847 12.0165L18.34 7.07175L21.8146 3.59711C22.095 3.31675 22.5526 3.3179 22.8344 3.59969L24.203 4.96831C23.0613 6.67732 23.2499 9.02118 24.7645 10.5358C26.2791 12.0504 28.6243 12.2385 30.3329 11.0972Z" fill="#FEFEFE"/>
<path d="M25.3327 15.3552C25.6892 14.9987 25.6878 14.4192 25.3294 14.0608C24.9711 13.7025 24.3915 13.701 24.035 14.0575C23.6784 14.4141 23.6799 14.9936 24.0383 15.352C24.3966 15.7103 24.9762 15.7118 25.3327 15.3552Z" fill="#FEFEFE"/>
<path d="M17.5495 14.8158L15.5594 16.2989L13.201 15.4937C12.8707 15.381 12.5061 15.4656 12.2608 15.7109C12.0155 15.9562 11.9309 16.3217 12.0436 16.6511L12.8475 19.0099L11.3643 21.0001C11.157 21.2788 11.1261 21.6518 11.285 21.9629C11.4438 22.2739 11.7652 22.468 12.1133 22.4647L14.6008 22.4391L16.0428 24.4741C16.2446 24.7589 16.5903 24.9054 16.9341 24.8517C17.1287 24.8212 17.3037 24.7296 17.4374 24.5959C17.5402 24.4931 17.619 24.3652 17.663 24.2211L18.3957 21.8467L20.7701 21.114C21.1027 21.0113 21.347 20.729 21.4002 20.3847C21.4539 20.0409 21.3074 19.6952 21.0226 19.4934L18.9876 18.0514L19.0132 15.5638C19.0169 15.2153 18.8224 14.8944 18.5114 14.7355C18.2012 14.5775 17.8278 14.608 17.5495 14.8158ZM17.1529 18.5058C17.15 18.8072 17.295 19.0914 17.5414 19.2659L18.4528 19.9117L17.3894 20.24C17.2457 20.2845 17.1174 20.3628 17.0146 20.4656C16.9118 20.5684 16.833 20.6972 16.789 20.8404L16.4607 21.9038L15.8149 20.9924C15.6404 20.746 15.3557 20.6006 15.0548 20.604L13.9402 20.6155L14.6046 19.724C14.7843 19.4831 14.833 19.1684 14.7356 18.883L14.3751 17.8262L15.4319 18.1866C15.7174 18.284 16.0321 18.2353 16.273 18.0556L17.1645 17.3912L17.1529 18.5058Z" fill="#FEFEFE"/>
</g>
<defs>
<clipPath id="clip0_2373:8188">
<rect width="30.6043" height="17.6563" fill="white" transform="translate(0.676636 22.1396) rotate(-45)"/>
</clipPath>
</defs>
</svg>
