<svg width="96" height="96" viewBox="0 0 96 96" fill="none" xmlns="http://www.w3.org/2000/svg">
<g opacity="0.1" clip-path="url(#clip0_2389:10465)">
<path d="M70.9928 14.6969L71.0057 14.6839C71.0341 14.6581 71.0612 14.631 71.0883 14.6065C71.5813 14.1317 71.8604 13.4764 71.8638 12.7881C71.8686 12.1012 71.5952 11.4407 71.1088 10.9543L65.6249 5.47033C62.8336 2.67908 58.3028 2.66764 55.5256 5.44482L5.03687 55.9336C2.25969 58.7108 2.27113 63.2416 5.06238 66.0328L10.5437 71.5142C11.5437 72.5142 13.161 72.5209 14.1598 71.5298C16.9642 68.7462 21.5287 68.7655 24.3368 71.5736C27.1449 74.3817 27.1642 78.9462 24.3806 81.7505C23.3895 82.7494 23.3962 84.3666 24.3962 85.3667L29.8775 90.848C32.6688 93.6392 37.1996 93.6507 39.9768 90.8735L90.4643 40.386C93.2414 37.6088 93.23 33.078 90.4387 30.2868L84.9561 24.8041C84.4697 24.3177 83.8079 24.0457 83.1222 24.0491C82.4353 24.0539 81.7761 24.3342 81.3038 24.8247C81.2768 24.8518 81.2509 24.8802 81.2264 24.9073L81.2135 24.9202C78.4092 27.7141 73.8422 27.7 71.0276 24.8854C68.213 22.0682 68.1988 17.5012 70.9928 14.6969ZM82.9951 30.0674L86.8253 33.8976C87.6139 34.6862 87.6171 35.9671 86.8325 36.7517L77.1072 46.477L74.3743 43.7441C73.3717 42.7415 71.7493 42.7374 70.7517 43.735C69.7542 44.7325 69.7583 46.3549 70.7609 47.3576L73.4951 50.0917L36.345 87.2418C35.5604 88.0264 34.2796 88.0232 33.491 87.2346L29.6309 83.3745C32.6994 78.607 32.1345 72.1444 27.9515 67.9615C23.7685 63.7785 17.306 63.2136 12.5384 66.282L8.67582 62.4194C7.88721 61.6308 7.88398 60.35 8.66861 59.5653L45.8186 22.4153L59.6568 36.2535C60.6595 37.2561 62.2819 37.2602 63.2794 36.2627C64.277 35.2651 64.2729 33.6427 63.2703 32.6401L49.4321 18.8019L59.1561 9.07785C59.9407 8.29322 61.2216 8.29646 62.0102 9.08506L65.8403 12.9152C62.6452 17.698 63.1728 24.2575 67.4115 28.4962C71.6503 32.735 78.2136 33.2613 82.9951 30.0674Z" fill="#FCE8C0"/>
<path d="M69.0019 41.984C69.9998 40.9861 69.9957 39.3642 68.9928 38.3614C67.9899 37.3585 66.368 37.3544 65.3702 38.3522C64.3724 39.35 64.3765 40.9719 65.3793 41.9748C66.3822 42.9777 68.0041 42.9818 69.0019 41.984Z" fill="#FCE8C0"/>
<path d="M47.2198 40.4742L41.6502 44.6248L35.0502 42.3712C34.1256 42.0557 33.1055 42.2925 32.4189 42.979C31.7323 43.6656 31.4956 44.6884 31.811 45.6103L34.0607 52.2117L29.9101 57.7812C29.3299 58.5612 29.2433 59.6051 29.688 60.4756C30.1326 61.3461 31.0319 61.8892 32.0061 61.88L38.9677 61.8083L43.0031 67.5034C43.5679 68.3005 44.5354 68.7105 45.4976 68.5602C46.042 68.4749 46.5317 68.2187 46.906 67.8444C47.1938 67.5567 47.4141 67.1988 47.5373 66.7955L49.588 60.1507L56.2328 58.1C57.1636 57.8126 57.8473 57.0225 57.9962 56.059C58.1464 55.0968 57.7364 54.1293 56.9393 53.5645L51.2443 49.5291L51.316 42.5675C51.3265 41.592 50.7821 40.6941 49.9116 40.2494C49.0436 39.8073 47.9985 39.8927 47.2198 40.4742ZM46.11 50.8009C46.1017 51.6444 46.5074 52.4398 47.1969 52.928L49.7476 54.7354L46.7717 55.6542C46.3696 55.7787 46.0105 55.9977 45.7227 56.2855C45.435 56.5733 45.2146 56.9337 45.0914 57.3344L44.1726 60.3104L42.3652 57.7597C41.877 57.0701 41.0803 56.6632 40.2381 56.6727L37.1189 56.7049L38.9782 54.21C39.4811 53.536 39.6173 52.6552 39.3449 51.8563L38.336 48.8988L41.2936 49.9076C42.0925 50.18 42.9732 50.0438 43.6473 49.541L46.1422 47.6816L46.11 50.8009Z" fill="#FCE8C0"/>
</g>
<defs>
<clipPath id="clip0_2389:10465">
<rect width="85.6483" height="49.4125" fill="white" transform="translate(0 60.9705) rotate(-45)"/>
</clipPath>
</defs>
</svg>
