<svg width="44" height="44" viewBox="0 0 44 44" fill="none" xmlns="http://www.w3.org/2000/svg">
<path d="M21.989 12C16.469 12 11.999 16.48 11.999 22C11.999 27.52 16.469 32 21.989 32C27.519 32 31.999 27.52 31.999 22C31.999 16.48 27.519 12 21.989 12ZM25.219 27.39L21.999 25.45L18.779 27.39C18.399 27.62 17.929 27.28 18.029 26.85L18.879 23.19L16.049 20.74C15.719 20.45 15.899 19.9 16.339 19.86L20.079 19.54L21.539 16.09C21.709 15.68 22.289 15.68 22.459 16.09L23.919 19.53L27.659 19.85C28.099 19.89 28.279 20.44 27.939 20.73L25.109 23.18L25.959 26.85C26.059 27.28 25.599 27.62 25.219 27.39Z" fill="white"/>
<rect x="0.249023" y="0.25" width="43.5" height="43.5" rx="21.75" stroke="white" stroke-width="0.5"/>
</svg>
