<svg width="36" height="38" viewBox="0 0 36 38" fill="none" xmlns="http://www.w3.org/2000/svg">
<circle cx="18" cy="19.4492" r="18" fill="#039BE5"/>
<path d="M14.2825 27.6993C21.83 27.6993 25.9587 21.4456 25.9587 16.0319C25.9587 15.8569 25.9588 15.6794 25.9513 15.5044C26.7551 14.9225 27.4489 14.202 28 13.3769C27.2491 13.7079 26.4535 13.9261 25.6388 14.0244C26.4969 13.5114 27.1396 12.7043 27.4475 11.7531C26.6412 12.2308 25.7587 12.5661 24.8387 12.7444C24.2202 12.0856 23.4017 11.6493 22.5101 11.5028C21.6185 11.3564 20.7034 11.508 19.9067 11.9343C19.11 12.3605 18.476 13.0376 18.1031 13.8607C17.7301 14.6837 17.639 15.6068 17.8438 16.4869C16.2122 16.405 14.616 15.9812 13.1588 15.2428C11.7016 14.5044 10.4159 13.4679 9.385 12.2006C8.86168 13.1045 8.70197 14.1736 8.93831 15.1909C9.17465 16.2083 9.78931 17.0975 10.6575 17.6781C10.0069 17.656 9.37065 17.4813 8.8 17.1681V17.2243C8.80112 18.1712 9.12913 19.0886 9.72859 19.8215C10.328 20.5545 11.1622 21.0579 12.09 21.2469C11.7378 21.3439 11.374 21.3922 11.0088 21.3906C10.7512 21.3914 10.4942 21.3675 10.2412 21.3193C10.5035 22.1344 11.0141 22.8471 11.7016 23.3575C12.389 23.8678 13.2189 24.1505 14.075 24.1656C12.6207 25.3078 10.8243 25.9273 8.975 25.9243C8.64915 25.9257 8.32353 25.907 8 25.8681C9.87689 27.0647 12.0566 27.7001 14.2825 27.6993Z" fill="white"/>
</svg>
