<svg width="25" height="24" viewBox="0 0 25 24" fill="none" xmlns="http://www.w3.org/2000/svg">
<g clip-path="url(#clip0)">
<path
      d="M1.8 1.75787L15.09 5.07687C15.9042 5.31561 16.6229 5.80377 17.1449 6.47257C17.667 7.14138 17.9661 7.95712 18 8.80487V20.8049C18.0218 21.1698 17.9552 21.5346 17.8059 21.8683C17.6566 22.202 17.429 22.4948 17.1424 22.7217C16.8558 22.9486 16.5186 23.1031 16.1596 23.1719C15.8006 23.2407 15.4302 23.2218 15.08 23.1169L3.92 20.4929C3.10479 20.2678 2.38238 19.789 1.85741 19.126C1.33243 18.4629 1.03213 17.65 1 16.8049V3.80487C1.00237 3.00995 1.31921 2.24827 1.8813 1.68617C2.4434 1.12408 3.20508 0.807245 4 0.804871H21C21.7949 0.807245 22.5566 1.12408 23.1187 1.68617C23.6808 2.24827 23.9976 3.00995 24 3.80487V14.8049C23.9979 15.5999 23.6811 16.3617 23.119 16.9239C22.5568 17.486 21.795 17.8028 21 17.8049H18"
      stroke="#CE4913"
      stroke-linecap="round"
      stroke-linejoin="round"
    />
<path d="M10 3.80487H20" stroke="#CE4913" stroke-linecap="round" stroke-linejoin="round" />
<path
      d="M13.5 15.8049C14.6046 15.8049 15.5 14.9094 15.5 13.8049C15.5 12.7003 14.6046 11.8049 13.5 11.8049C12.3954 11.8049 11.5 12.7003 11.5 13.8049C11.5 14.9094 12.3954 15.8049 13.5 15.8049Z"
      stroke="#CE4913"
      stroke-linecap="round"
      stroke-linejoin="round"
    />
<path d="M18 8.80487H20" stroke="#CE4913" stroke-linecap="round" stroke-linejoin="round" />
</g>
<defs>
<clipPath id="clip0">
<rect width="24" height="24" fill="white" transform="translate(0.5 -0.00012207)" />
</clipPath>
</defs>
</svg>
