<svg width="44" height="44" viewBox="0 0 44 44" fill="none" xmlns="http://www.w3.org/2000/svg">
<path d="M30.999 17.28V15C30.999 13.9 30.099 13 28.999 13H14.999C13.889 13 12.999 13.9 12.999 15V29C12.999 30.1 13.889 31 14.999 31H28.999C30.099 31 30.999 30.1 30.999 29V26.72C31.589 26.37 31.999 25.74 31.999 25V19C31.999 18.26 31.589 17.63 30.999 17.28ZM29.999 19V25H22.999V19H29.999ZM14.999 29V15H28.999V17H22.999C21.899 17 20.999 17.9 20.999 19V25C20.999 26.1 21.899 27 22.999 27H28.999V29H14.999Z" fill="white"/>
<path d="M25.999 23.5C26.8275 23.5 27.499 22.8284 27.499 22C27.499 21.1716 26.8275 20.5 25.999 20.5C25.1706 20.5 24.499 21.1716 24.499 22C24.499 22.8284 25.1706 23.5 25.999 23.5Z" fill="white"/>
<rect x="0.249023" y="0.25" width="43.5" height="43.5" rx="21.75" stroke="white" stroke-width="0.5"/>
</svg>
