<svg width="25" height="24" viewBox="0 0 25 24" fill="none" xmlns="http://www.w3.org/2000/svg">
<path
    d="M22.7321 16.8365C22.687 15.5556 22.2878 14.0125 21.6084 12.4915C20.929 10.9691 20.0464 9.64128 19.1231 8.75275C18.1302 7.79703 17.1805 7.4471 16.4454 7.76392C16.4394 7.7663 16.4332 7.76726 16.4273 7.76988L15.5649 8.15507V6.13216C15.5649 6.1293 15.5654 6.12644 15.5654 6.12359C15.5654 4.52351 12.8045 3.31696 9.14317 3.31696C5.48945 3.31696 2.73285 4.51874 2.72141 6.11382C2.72141 6.11715 2.72046 6.12025 2.72046 6.12382V9.7399C2.72046 9.75896 2.72308 9.77754 2.72618 9.79565C2.72308 9.81399 2.72046 9.83233 2.72046 9.85139C2.72046 9.88402 2.72332 9.91594 2.7257 9.9481C2.72308 9.96525 2.72046 9.98217 2.72046 10V13.6161C2.72046 13.6354 2.72308 13.654 2.72618 13.6723C2.72308 13.6907 2.72046 13.7093 2.72046 13.7285C2.72046 13.7693 2.72356 13.8095 2.72689 13.8496C2.72284 13.8705 2.72046 13.8922 2.72046 13.9144V17.5304C2.72046 17.5495 2.72308 17.5681 2.72618 17.5862C2.72308 17.6045 2.72046 17.6229 2.72046 17.6419C2.72046 19.2418 5.48183 20.4481 9.14365 20.4481C11.4698 20.4481 13.5897 19.9173 14.7055 19.0783C15.704 20.3747 16.7784 21.1389 17.6781 21.1389C17.8832 21.1389 18.0797 21.0993 18.2636 21.0172L21.6546 19.5024C21.6579 19.5009 21.6615 19.5 21.6649 19.4986C22.4021 19.1696 22.7811 18.2241 22.7321 16.8365ZM13.1268 9.24418L13.0239 9.28944C12.3157 9.60603 11.9579 10.4788 11.946 11.6744C11.0908 11.8614 10.1322 11.9646 9.14388 11.9646C5.76649 11.9646 3.41295 10.8509 3.41295 9.85115C3.41295 9.83209 3.41033 9.81351 3.40723 9.79541C3.41033 9.77706 3.41295 9.75872 3.41295 9.73967V7.43066C4.45346 8.33659 6.57642 8.93022 9.14341 8.93022C11.7097 8.93022 13.8319 8.33706 14.8729 7.43138V8.46427L13.1268 9.24418ZM3.40723 13.6723C3.41033 13.654 3.41295 13.6354 3.41295 13.6161V11.1582C4.45394 12.0637 6.5769 12.6571 9.14388 12.6571C10.1344 12.6571 11.1041 12.562 11.9762 12.3815C12.056 13.2607 12.2916 14.2657 12.684 15.3277C11.6339 15.6676 10.446 15.8417 9.14388 15.8417C5.76649 15.8417 3.41295 14.7281 3.41295 13.7288C3.41295 13.7093 3.41033 13.6907 3.40723 13.6723ZM9.14341 4.0092C12.5172 4.0092 14.8689 5.12142 14.8732 6.12097C14.8732 6.12192 14.8729 6.12263 14.8729 6.12359V6.13002C14.8629 7.12837 12.5129 8.23797 9.14341 8.23797C5.76649 8.23797 3.41342 7.12361 3.41342 6.12359C3.41342 5.12357 5.76649 4.0092 9.14341 4.0092ZM9.14388 19.7561C5.76649 19.7561 3.41295 18.6419 3.41295 17.6422C3.41295 17.6231 3.41033 17.6045 3.40723 17.5864C3.41033 17.5681 3.41295 17.5497 3.41295 17.5307V15.0354C4.45394 15.9408 6.5769 16.534 9.14388 16.534C10.5355 16.534 11.809 16.3437 12.9384 15.9723C12.9839 16.0807 13.0308 16.1895 13.0796 16.2986C13.4498 17.1271 13.866 17.8716 14.3036 18.5178C13.3279 19.2651 11.3116 19.7561 9.14388 19.7561ZM18.0762 20.3418L17.9783 20.3869C17.0638 20.7928 15.0887 19.0986 13.7116 16.0161C12.3359 12.9327 12.3941 10.3292 13.305 9.92214L15.5206 8.93284C15.3953 9.34661 15.3393 9.84996 15.3601 10.4324C15.4051 11.713 15.8043 13.2566 16.484 14.7791C17.1633 16.3008 18.0459 17.6279 18.9692 18.5164C19.3902 18.9211 19.8023 19.2132 20.1946 19.3961L18.0762 20.3418ZM21.384 18.8659C21.3835 18.8661 21.3828 18.8661 21.3823 18.8663L21.38 18.8673C20.924 19.0688 20.2199 18.7594 19.4492 18.0176C18.5886 17.1893 17.7598 15.9389 17.1162 14.4968C16.472 13.0539 16.094 11.602 16.0518 10.4081C16.0142 9.33661 16.2543 8.60577 16.7107 8.40233C16.8029 8.36136 16.9046 8.34111 17.0152 8.34111C17.4535 8.34111 18.0266 8.65818 18.6431 9.25133C19.5038 10.0796 20.3323 11.3305 20.9762 12.7736C21.6203 14.2152 21.9981 15.6669 22.0403 16.8608C22.0782 17.9309 21.8388 18.6615 21.384 18.8659Z"
    fill="#EF5248"
  />
</svg>
