<svg width="24" height="25" viewBox="0 0 24 25" fill="none" xmlns="http://www.w3.org/2000/svg">
<path fill-rule="evenodd" clip-rule="evenodd" d="M12 24.8398C5.37259 24.8398 0 19.4673 0 12.8398C0 6.21242 5.37259 0.839844 12 0.839844C18.6274 0.839844 24 6.21242 24 12.8398C24 19.4673 18.6274 24.8398 12 24.8398ZM7.27501 9.61485C7.34999 9.68985 7.425 9.83984 7.425 9.98985V15.2399C7.5 15.4648 7.425 15.6149 7.27501 15.7649L6 17.2649V17.4899H9.52501V17.2649L8.25 15.7649C8.175 15.6149 8.09999 15.4648 8.09999 15.2399V10.6648L11.25 17.4899H11.55L14.25 10.6648V16.1399C14.25 16.2898 14.25 16.3649 14.175 16.4398L13.2 17.4148V17.6399H17.925V17.4148L17.025 16.5149C16.95 16.4398 16.95 16.2898 16.95 16.2148V9.46484C16.875 9.31485 16.95 9.23985 17.025 9.16485L18 8.26485V8.03985H14.7L12.3 13.9648L9.59999 8.03985H6.15001V8.26485L7.27501 9.61485Z" fill="#06032B"/>
</svg>
