<svg width="20" height="20" viewBox="0 0 20 20" fill="none" xmlns="http://www.w3.org/2000/svg">
<g clip-path="url(#clip0_4448_13581)">
<path fill-rule="evenodd" clip-rule="evenodd" d="M17.0873 2.92452C20.9956 6.83283 20.9956 13.1695 17.0873 17.0778C13.1789 20.9861 6.84232 20.9861 2.93401 17.0778C-0.974301 13.1695 -0.974301 6.83283 2.93401 2.92452C6.84232 -0.983792 13.1789 -0.983792 17.0873 2.92452ZM15.2108 8.54418C16.0223 8.54418 16.6746 9.19652 16.6746 10.008C16.6746 10.5967 16.3087 11.1058 15.7995 11.3286C15.8154 11.4718 15.8313 11.6309 15.8313 11.7741C15.8313 14.0334 13.2219 15.8473 9.99203 15.8473C6.76212 15.8473 4.15273 14.0175 4.15273 11.7741C4.15273 11.615 4.15273 11.4718 4.18455 11.3286C3.6754 11.1058 3.32536 10.5967 3.32536 10.008C3.32536 9.19652 3.97771 8.54418 4.78917 8.54418C5.18694 8.54418 5.55289 8.70329 5.80746 8.95786C6.82576 8.22596 8.21001 7.76454 9.76928 7.71681L10.5171 4.23232C10.533 4.16868 10.5648 4.10504 10.6285 4.07321C10.6762 4.04139 10.7398 4.02548 10.8194 4.04139L13.2379 4.55054C13.4129 4.2005 13.7629 3.96184 14.1766 3.96184C14.7494 3.96184 15.2108 4.42325 15.2108 4.99605C15.2108 5.56884 14.7494 6.03025 14.1766 6.03025C13.6197 6.03025 13.1742 5.60066 13.1424 5.04378L10.9626 4.58236L10.2943 7.71681C11.8218 7.78045 13.1901 8.24187 14.1925 8.95786C14.463 8.70329 14.813 8.54418 15.2108 8.54418ZM7.70086 10.008C7.12807 10.008 6.66665 10.4694 6.66665 11.0422C6.66665 11.615 7.14398 12.0923 7.70086 12.0764C8.27365 12.0764 8.73507 11.615 8.73507 11.0422C8.73507 10.4694 8.27365 10.008 7.70086 10.008ZM10.0239 14.5585C10.4057 14.5585 11.7741 14.5108 12.49 13.7948C12.5855 13.6834 12.5855 13.5243 12.49 13.4129C12.3787 13.3015 12.2196 13.3015 12.1082 13.4129C11.6786 13.8584 10.708 14.0175 10.0239 14.0175C9.3556 14.0175 8.40094 13.8743 7.93953 13.4129C7.82815 13.3015 7.66904 13.3015 7.55766 13.4129C7.44629 13.5243 7.44629 13.6834 7.55766 13.7948C8.25774 14.4949 9.61017 14.5585 10.0239 14.5585ZM11.2649 11.0581C11.2649 11.6309 11.7263 12.0923 12.2991 12.0923C12.8719 12.0923 13.3333 11.615 13.3333 11.0581C13.3333 10.4853 12.8719 10.0239 12.2991 10.0239C11.7263 10.0239 11.2649 10.4853 11.2649 11.0581Z" fill="#F47A60"/>
</g>
<defs>
<clipPath id="clip0_4448_13581">
<rect width="20" height="20" fill="white"/>
</clipPath>
</defs>
</svg>
