<svg width="24" height="25" viewBox="0 0 24 25" fill="none" xmlns="http://www.w3.org/2000/svg">
<path fill-rule="evenodd" clip-rule="evenodd" d="M12 24.8398C5.37258 24.8398 0 19.4673 0 12.8398C0 6.21243 5.37258 0.839844 12 0.839844C18.6274 0.839844 24 6.21243 24 12.8398C24 19.4673 18.6274 24.8398 12 24.8398ZM12.5189 9.84538C11.4441 10.2924 9.29616 11.2176 6.07494 12.6211C5.55186 12.8291 5.27785 13.0326 5.25291 13.2315C5.21075 13.5678 5.63186 13.7002 6.2053 13.8806C6.28331 13.9051 6.36413 13.9305 6.44699 13.9574C7.01117 14.1408 7.77009 14.3554 8.16462 14.3639C8.5225 14.3716 8.92193 14.2241 9.36292 13.9213C12.3726 11.8896 13.9262 10.8628 14.0238 10.8406C14.0926 10.825 14.1879 10.8054 14.2525 10.8628C14.3171 10.9202 14.3108 11.029 14.3039 11.0582C14.2622 11.236 12.6092 12.7728 11.7538 13.5681C11.4871 13.816 11.2979 13.9919 11.2593 14.032C11.1726 14.122 11.0844 14.2071 10.9995 14.2889C10.4754 14.7942 10.0823 15.1731 11.0213 15.7918C11.4725 16.0892 11.8336 16.3351 12.1938 16.5804C12.5872 16.8483 12.9795 17.1155 13.4872 17.4483C13.6165 17.5331 13.7401 17.6211 13.8604 17.7069C14.3182 18.0333 14.7295 18.3265 15.2376 18.2797C15.5329 18.2526 15.8379 17.9749 15.9928 17.1469C16.3588 15.19 17.0784 10.9499 17.2447 9.20269C17.2592 9.04961 17.2409 8.8537 17.2262 8.7677C17.2115 8.6817 17.1807 8.55917 17.0689 8.46846C16.9365 8.36104 16.7322 8.33838 16.6407 8.33991C16.2251 8.34731 15.5875 8.56903 12.5189 9.84538Z" fill="#0276F0"/>
</svg>
