<svg width="24" height="25" viewBox="0 0 24 25" fill="none" xmlns="http://www.w3.org/2000/svg">
<path fill-rule="evenodd" clip-rule="evenodd" d="M0 12.8398C0 6.21243 5.37258 0.839844 12 0.839844C18.6274 0.839844 24 6.21243 24 12.8398C24 19.4673 18.6274 24.8398 12 24.8398C5.37258 24.8398 0 19.4673 0 12.8398ZM16.575 9.46484C17.1 9.38984 17.55 9.31484 18 9.08984C17.7 9.61484 17.25 10.0648 16.725 10.3648C16.875 13.8898 14.325 17.7148 9.75 17.7148C8.4 17.7148 7.125 17.2648 6 16.5898C7.275 16.7398 8.625 16.3648 9.525 15.6898C8.4 15.6898 7.5 14.9398 7.2 13.9648C7.575 14.0398 7.95 13.9648 8.325 13.8898C7.2 13.5898 6.375 12.5398 6.375 11.4148C6.75 11.5648 7.125 11.7148 7.5 11.7148C6.45 10.9648 6.075 9.53984 6.75 8.41484C8.025 9.91484 9.825 10.8898 11.85 10.9648C11.475 9.46484 12.675 7.96484 14.25 7.96484C14.925 7.96484 15.6 8.26484 16.05 8.71484C16.65 8.56484 17.175 8.41484 17.625 8.11484C17.475 8.71484 17.1 9.16484 16.575 9.46484Z" fill="#0276F0"/>
</svg>
