<svg width="24" height="25" viewBox="0 0 24 25" fill="none" xmlns="http://www.w3.org/2000/svg">
<path d="M11.988 0.839844C5.364 0.839844 0 6.21584 0 12.8398C0 19.4638 5.364 24.8398 11.988 24.8398C18.624 24.8398 24 19.4638 24 12.8398C24 6.21584 18.624 0.839844 11.988 0.839844ZM20.304 8.03984H16.764C16.38 6.53984 15.828 5.09984 15.108 3.76784C17.316 4.52384 19.152 6.05984 20.304 8.03984ZM12 3.28784C12.996 4.72784 13.776 6.32384 14.292 8.03984H9.708C10.224 6.32384 11.004 4.72784 12 3.28784ZM2.712 15.2398C2.52 14.4718 2.4 13.6678 2.4 12.8398C2.4 12.0118 2.52 11.2078 2.712 10.4398H6.768C6.672 11.2318 6.6 12.0238 6.6 12.8398C6.6 13.6558 6.672 14.4478 6.768 15.2398H2.712ZM3.696 17.6398H7.236C7.62 19.1398 8.172 20.5798 8.892 21.9118C6.684 21.1558 4.848 19.6318 3.696 17.6398ZM7.236 8.03984H3.696C4.848 6.04784 6.684 4.52384 8.892 3.76784C8.172 5.09984 7.62 6.53984 7.236 8.03984ZM12 22.3918C11.004 20.9518 10.224 19.3558 9.708 17.6398H14.292C13.776 19.3558 12.996 20.9518 12 22.3918ZM14.808 15.2398H9.192C9.084 14.4478 9 13.6558 9 12.8398C9 12.0238 9.084 11.2198 9.192 10.4398H14.808C14.916 11.2198 15 12.0238 15 12.8398C15 13.6558 14.916 14.4478 14.808 15.2398ZM15.108 21.9118C15.828 20.5798 16.38 19.1398 16.764 17.6398H20.304C19.152 19.6198 17.316 21.1558 15.108 21.9118ZM17.232 15.2398C17.328 14.4478 17.4 13.6558 17.4 12.8398C17.4 12.0238 17.328 11.2318 17.232 10.4398H21.288C21.48 11.2078 21.6 12.0118 21.6 12.8398C21.6 13.6678 21.48 14.4718 21.288 15.2398H17.232Z" fill="#06032B"/>
</svg>
