<svg width="28" height="28" viewBox="0 0 28 28" fill="none" xmlns="http://www.w3.org/2000/svg">
<path d="M19.6987 5.42258C19.76 6.05375 19.8022 6.68651 19.854 7.33885C19.9142 7.51661 19.7986 7.63512 19.6723 7.76157C17.7643 9.66778 15.8594 11.5772 13.9545 13.486C13.8837 13.5569 13.8071 13.6257 13.7501 13.7072C13.6032 13.9161 13.6149 14.1299 13.7892 14.3129C13.973 14.506 14.1938 14.5277 14.4152 14.3738C14.505 14.3114 14.5805 14.2272 14.6581 14.1489C16.5498 12.2549 18.4431 10.3624 20.3294 8.4631C20.4847 8.30703 20.6311 8.23561 20.8545 8.25889C21.4742 8.3229 22.097 8.35835 22.7171 8.41866C22.9681 8.443 23.1614 8.37211 23.3389 8.19275C24.444 7.07802 25.5544 5.96752 26.6658 4.85913C26.8343 4.69142 26.9447 4.51366 26.8639 4.26923C26.782 4.02004 26.5818 3.94968 26.3462 3.93116C25.7451 3.8846 25.1444 3.82852 24.5422 3.79149C24.3764 3.78144 24.3241 3.7317 24.314 3.56505C24.2776 2.96245 24.2226 2.36038 24.1762 1.7583C24.1582 1.52287 24.0879 1.3213 23.8391 1.23982C23.5956 1.15993 23.4181 1.26839 23.2496 1.43822C22.1435 2.55189 21.0352 3.66451 19.9211 4.77025C19.732 4.95807 19.6734 5.16228 19.6987 5.42258ZM20.761 5.30037C21.5856 4.47715 22.4086 3.65287 23.285 2.77569C23.3162 3.2365 23.3384 3.61637 23.3685 3.99518C23.4134 4.55598 23.5507 4.6946 24.1091 4.73957C24.4884 4.77025 24.8682 4.79141 25.2464 4.81734C25.2776 4.9332 25.1851 4.96812 25.1349 5.01891C24.3912 5.76859 23.6416 6.51298 22.901 7.26584C22.7763 7.39228 22.6553 7.44096 22.4773 7.42244C21.9977 7.37377 21.5164 7.34043 21.0352 7.31239C20.8751 7.30287 20.8101 7.24679 20.8001 7.08225C20.7695 6.56007 20.7256 6.03841 20.6839 5.51676C20.677 5.43052 20.6987 5.3628 20.761 5.30037Z" fill="black"/>
<path d="M26.0982 8.0023C25.9688 7.74041 25.6518 7.63355 25.3904 7.76317C25.1289 7.89279 25.0222 8.21022 25.1516 8.47211C26.0068 10.1984 26.44 12.0581 26.44 13.9997C26.44 17.3275 25.1458 20.4564 22.7961 22.8097C20.4465 25.1629 17.3224 26.4591 13.9997 26.4591C10.677 26.4591 7.55295 25.1629 5.2033 22.8097C2.85364 20.4564 1.55943 17.3281 1.55943 13.9997C1.55943 10.6714 2.85364 7.54308 5.2033 5.18981C7.55295 2.83655 10.677 1.54035 13.9997 1.54035C15.8819 1.54035 17.6901 1.95037 19.3741 2.75984C19.6367 2.88628 19.9526 2.77518 20.0788 2.51171C20.2051 2.24824 20.0941 1.93238 19.8311 1.80594C18.0033 0.927698 16.0414 0.482758 13.9997 0.482758C10.3944 0.482758 7.00516 1.889 4.45582 4.44172C1.90702 6.99444 0.50293 10.3889 0.50293 13.9997C0.50293 17.6106 1.90702 21.005 4.45582 23.5583C7.00516 26.1115 10.3944 27.5172 13.9997 27.5172C17.605 27.5172 20.9943 26.111 23.5436 23.5583C26.0924 21.005 27.4965 17.6106 27.4965 13.9997C27.4965 11.8935 27.0264 9.8757 26.0982 8.0023Z" fill="black"/>
<path d="M17.3977 5.7638C17.4928 5.48763 17.3465 5.1866 17.0707 5.09084C16.085 4.75012 15.0512 4.57712 13.9989 4.57712C8.81154 4.57712 4.59082 8.80432 4.59082 13.9997C4.59082 19.1951 8.81154 23.4223 13.9989 23.4223C19.1864 23.4223 23.4071 19.1956 23.4071 13.9997C23.4071 12.831 23.1958 11.6904 22.7795 10.6095C22.6744 10.337 22.3685 10.201 22.0965 10.3063C21.8244 10.4116 21.6887 10.7179 21.7938 10.9904C22.163 11.9496 22.3506 12.9622 22.3506 13.9997C22.3506 18.6121 18.6042 22.3642 13.9989 22.3642C9.39367 22.3642 5.64732 18.6121 5.64732 13.9997C5.64732 9.38734 9.39367 5.63524 13.9989 5.63524C14.9334 5.63524 15.851 5.78867 16.7258 6.09129C17.002 6.18652 17.3026 6.03997 17.3977 5.7638Z" fill="black"/>
<path d="M13.9972 9.69212C14.059 9.69212 14.1208 9.69318 14.1826 9.69635C14.5096 9.71011 14.8334 9.7609 15.145 9.84713C15.4266 9.92438 15.7171 9.75931 15.7948 9.47732C15.8724 9.19533 15.7071 8.90435 15.4255 8.82657C15.0368 8.71917 14.6337 8.65622 14.2275 8.63876C11.2756 8.51231 8.77225 10.8148 8.64652 13.7707C8.5208 16.7265 10.8192 19.2343 13.7705 19.3602C13.8487 19.3634 13.9269 19.365 14.0046 19.365C15.349 19.365 16.6257 18.8676 17.622 17.9518C18.6764 16.9826 19.2902 15.6599 19.3515 14.2283C19.3732 13.7193 19.3235 13.213 19.2036 12.7226C19.1344 12.439 18.8486 12.2649 18.5649 12.3343C18.2818 12.4036 18.108 12.6898 18.1772 12.9739C18.2733 13.367 18.313 13.7738 18.2955 14.1833C18.2464 15.333 17.7535 16.3943 16.9073 17.1725C16.061 17.9508 14.9623 18.3518 13.8149 18.3031C11.4457 18.2021 9.60001 16.189 9.70144 13.8162C9.80075 11.5052 11.7093 9.69212 13.9972 9.69212Z" fill="black"/>
</svg>
