<svg width="29" height="29" viewBox="0 0 29 29" fill="none" xmlns="http://www.w3.org/2000/svg">
<g clip-path="url(#clip0_2010_9912)">
<path d="M20.3866 14.8429C20.3383 14.678 20.2143 14.5433 20.0496 14.483C20.0163 14.4709 19.7468 14.3755 19.3281 14.3142C21.1168 12.4109 20.5262 10.1873 20.3866 9.75302C20.3383 9.58803 20.2143 9.45334 20.0496 9.39307C19.9728 9.36496 18.634 8.8929 17.1086 9.42375C17.1948 9.07041 17.2451 8.68197 17.2451 8.25573C17.2451 5.52863 15.18 4.32999 14.7655 4.1172C14.6148 4.03463 14.4317 4.02708 14.2727 4.10102C14.1702 4.14865 11.761 5.30162 11.761 8.25573C11.761 8.68284 11.8115 9.07211 11.898 9.42599C10.37 8.89159 9.02757 9.36491 8.95068 9.39307C8.7859 9.45334 8.66193 9.58803 8.61364 9.75302C8.47402 10.1873 7.88345 12.4109 9.67217 14.3142C9.25348 14.3755 8.98393 14.4709 8.95068 14.483C8.7859 14.5433 8.66187 14.678 8.61358 14.843C8.47107 15.2863 7.85824 17.5943 9.78663 19.5227C10.9026 20.6387 12.1411 20.9049 13.0691 20.9049C13.4126 20.9049 13.7129 20.8683 13.9493 20.8249V24.4033C13.9493 24.7052 14.1942 24.9501 14.4962 24.9501C14.7982 24.9501 15.0431 24.7052 15.0431 24.4033V20.8235C15.2806 20.8675 15.5838 20.9048 15.9311 20.9048C16.859 20.9048 18.0977 20.6385 19.2135 19.5227C21.1419 17.5942 20.5291 15.2863 20.3866 14.8429ZM13.9493 19.1201C13.9372 19.3683 13.9024 19.577 13.869 19.727C13.2845 19.8569 11.8219 20.0112 10.5601 18.7493C9.31719 17.5065 9.44746 16.0682 9.58505 15.4406C9.9526 15.3607 10.6698 15.2717 11.4639 15.5293C11.5162 15.5489 11.5683 15.5674 11.6201 15.5846C12.0407 15.7441 12.4773 16.0044 12.8911 16.4182C13.6797 17.2067 13.9152 18.0735 13.9493 18.7552V19.1201ZM13.9493 14.0303C13.9372 14.2785 13.9024 14.4872 13.869 14.6371C13.5069 14.7177 12.8076 14.8071 12.0279 14.5637C11.9489 14.5333 11.8703 14.5055 11.7923 14.4804C11.3844 14.3193 10.9621 14.0614 10.56 13.6594C9.31719 12.4166 9.44746 10.9783 9.58505 10.3508C10.1691 10.2238 11.6357 10.0729 12.8911 11.3284C12.8991 11.3363 12.9063 11.3444 12.9142 11.3523C12.9621 11.4061 13.0102 11.4576 13.0583 11.507C13.7129 12.2459 13.9177 13.0348 13.9493 13.6654V14.0303V14.0303ZM14.5039 11.2864C14.3325 11.1765 14.0856 10.9953 13.8347 10.7334C13.8091 10.7054 13.7832 10.6773 13.7567 10.6494C13.2998 10.1418 12.8547 9.36321 12.8547 8.25573C12.8547 6.47309 13.9954 5.54816 14.5003 5.22616C15.0409 5.57211 16.1513 6.49704 16.1513 8.25573C16.1513 9.30081 15.7592 10.0507 15.333 10.5575C15.2444 10.6462 15.1615 10.7358 15.0834 10.8258C14.8647 11.0384 14.6553 11.1899 14.5039 11.2864ZM15.0465 13.8531C15.0457 13.211 15.2118 12.3614 15.8918 11.5635C15.9723 11.4834 16.0533 11.3973 16.1336 11.3047C17.3885 10.0704 18.834 10.2211 19.4149 10.3497C19.5526 10.9767 19.6837 12.4159 18.4401 13.6594C18.0388 14.0608 17.6173 14.3184 17.2101 14.4797C17.1308 14.5052 17.0509 14.5333 16.9705 14.5643C16.1909 14.8073 15.4921 14.7176 15.1313 14.6373C15.0909 14.455 15.048 14.1873 15.0464 13.867C15.0464 13.8624 15.0465 13.8577 15.0465 13.8531ZM18.4401 18.7493C17.178 20.0114 15.7154 19.8568 15.1322 19.7274C15.0051 19.1457 14.8513 17.6759 16.109 16.4182C16.5114 16.0158 16.9341 15.7578 17.3423 15.5967C17.4202 15.5717 17.4985 15.5441 17.5774 15.5137C18.3553 15.2709 19.053 15.3595 19.4149 15.4395C19.5526 16.0665 19.6837 17.5057 18.4401 18.7493Z" fill="black"/>
<path d="M17.4179 0.804664C16.4646 0.602539 15.4829 0.5 14.5 0.5C10.7605 0.5 7.24477 1.95622 4.60052 4.60052C1.95627 7.24477 0.5 10.7605 0.5 14.5C0.5 17.616 1.54836 20.6577 3.45838 23.1068C3.24351 23.4392 3.12784 23.8264 3.12784 24.2316C3.12784 24.7867 3.34402 25.3085 3.73652 25.701C4.12901 26.0935 4.65089 26.3097 5.20597 26.3097C5.76105 26.3097 6.28293 26.0935 6.67542 25.701C7.06797 25.3085 7.28409 24.7867 7.28409 24.2316C7.28409 23.6765 7.06791 23.1547 6.67542 22.7621C6.28293 22.3696 5.76105 22.1534 5.20597 22.1534C4.87697 22.1534 4.55984 22.2299 4.2742 22.3735C2.54323 20.1265 1.59375 17.3471 1.59375 14.5C1.59375 7.38346 7.38346 1.59375 14.5 1.59375C15.4068 1.59375 16.3122 1.68825 17.191 1.87463C17.4866 1.93724 17.7768 1.74852 17.8394 1.45309C17.9021 1.15762 17.7134 0.867336 17.4179 0.804664ZM4.50991 23.5355C4.7018 23.3435 4.95386 23.2476 5.20597 23.2476C5.45808 23.2476 5.71013 23.3436 5.90203 23.5355C6.08797 23.7214 6.19034 23.9686 6.19034 24.2315C6.19034 24.4945 6.08797 24.7417 5.90203 24.9276C5.51823 25.3115 4.8937 25.3114 4.50991 24.9276C4.32397 24.7417 4.22159 24.4945 4.22159 24.2315C4.22159 23.9686 4.32397 23.7214 4.50991 23.5355Z" fill="black"/>
<path d="M25.5415 5.89318C25.7563 5.56079 25.872 5.17361 25.872 4.76837C25.872 4.21329 25.6558 3.69141 25.2633 3.29892C24.8708 2.90637 24.349 2.69025 23.7939 2.69025C23.2388 2.69025 22.7169 2.90643 22.3244 3.29892C21.9319 3.69141 21.7158 4.21329 21.7158 4.76837C21.7158 5.32345 21.9319 5.84533 22.3244 6.23782C22.7169 6.63037 23.2388 6.8465 23.7939 6.8465C24.1229 6.8465 24.44 6.76999 24.7257 6.62638C26.4566 8.87343 27.4061 11.6529 27.4061 14.5C27.4061 21.6165 21.6164 27.4062 14.4999 27.4062C13.7343 27.4062 12.9672 27.3387 12.22 27.2056C11.9229 27.1527 11.6387 27.3506 11.5857 27.648C11.5327 27.9454 11.7308 28.2294 12.0281 28.2824C12.8386 28.4267 13.6701 28.5 14.4999 28.5C18.2394 28.5 21.7551 27.0437 24.3994 24.3995C27.0437 21.7553 28.4999 18.2395 28.4999 14.5C28.4999 11.384 27.4515 8.34231 25.5415 5.89318ZM24.49 5.46443C24.3041 5.65037 24.0569 5.75275 23.7939 5.75275C23.531 5.75275 23.2838 5.65043 23.0979 5.46443C22.714 5.08064 22.714 4.45616 23.0979 4.07231C23.2838 3.88637 23.531 3.784 23.7939 3.784C24.0569 3.784 24.3041 3.88637 24.49 4.07231C24.6759 4.25819 24.7783 4.50543 24.7783 4.76837C24.7783 5.03131 24.6759 5.2785 24.49 5.46443Z" fill="black"/>
<path d="M9.69492 26.4822L9.48842 26.9886L9.69339 26.4816C9.41323 26.3685 9.09462 26.5036 8.98141 26.7836C8.86821 27.0636 9.00345 27.3824 9.28345 27.4957L9.30035 27.5023C9.36483 27.527 9.43122 27.5387 9.49652 27.5387C9.7168 27.5387 9.925 27.4054 10.0083 27.1879C10.1164 26.9057 9.977 26.5902 9.69492 26.4822Z" fill="black"/>
<path d="M19.7404 1.51396L19.7306 1.51007C19.4502 1.39786 19.132 1.5343 19.0197 1.81474C18.9075 2.09518 19.044 2.41335 19.3244 2.52557L19.3306 2.52808C19.3978 2.55521 19.4671 2.568 19.5353 2.568C19.7517 2.568 19.9565 2.43878 20.0426 2.22588C20.1557 1.94582 20.0204 1.62711 19.7404 1.51396Z" fill="black"/>
</g>
<defs>
<clipPath id="clip0_2010_9912">
<rect width="28" height="28" fill="white" transform="translate(0.5 0.5)"/>
</clipPath>
</defs>
</svg>
