<svg width="28" height="28" viewBox="0 0 28 28" fill="none" xmlns="http://www.w3.org/2000/svg">
<path d="M19.7849 1.83074C17.8263 2.68385 15.9648 3.59258 14.4757 5.15841C13.6649 6.01099 12.8152 6.82576 11.9866 7.66159C11.881 7.76796 11.7726 7.83978 11.6195 7.85651C10.1126 8.02012 8.60636 8.1929 7.09899 8.35056C6.81596 8.38026 6.59222 8.47529 6.38951 8.67939C4.96679 10.1146 3.53597 11.5422 2.10839 12.9725C2.05771 13.0232 2.00434 13.0724 1.95906 13.128C1.67602 13.4746 1.83236 13.9276 2.26743 14.0227C2.36393 14.0437 2.46151 14.0572 2.55963 14.0713C3.5446 14.2133 4.5301 14.3553 5.51507 14.4962C5.61696 14.5108 5.70753 14.5205 5.78463 14.6317C5.9372 14.8515 6.11348 15.0523 6.32805 15.2122C6.63858 15.4438 6.60678 15.5027 6.42294 15.6106C5.7733 15.9929 5.12906 16.3833 4.48428 16.7731C4.09072 17.0113 4.03411 17.4718 4.3592 17.798C6.31889 19.7628 8.28019 21.7266 10.2415 23.6893C10.6264 24.0748 10.9871 24.0305 11.2664 23.5662C11.6459 22.9355 12.0297 22.307 12.3974 21.6694C12.509 21.4755 12.5802 21.4199 12.7495 21.6159C12.9484 21.8465 13.1727 22.0565 13.3969 22.2633C13.4821 22.3416 13.5263 22.4183 13.5425 22.5333C13.6891 23.5824 13.8455 24.6309 13.9932 25.6801C14.0288 25.9311 14.1237 26.132 14.3792 26.2108C14.6321 26.2886 14.8272 26.1827 15.0057 26.0035C16.4694 24.5332 17.9358 23.0646 19.4043 21.5986C19.5666 21.4366 19.6448 21.2504 19.6685 21.0274C19.8329 19.5004 20.0027 17.9734 20.1666 16.4465C20.1823 16.3029 20.2464 16.169 20.3488 16.0669C21.2718 15.1501 22.1851 14.2235 23.1086 13.3078C24.1086 12.3164 24.8763 11.1658 25.4888 9.90344C27.3999 5.96671 27.4954 2.2627 27.4593 0.96305C27.4517 0.689299 27.2231 0.473861 26.9492 0.48304C25.699 0.524616 22.2886 0.740054 19.7849 1.83074ZM6.32158 13.3348C6.22077 13.4363 6.1275 13.4984 5.9717 13.4746C5.20939 13.3585 4.44492 13.2527 3.68153 13.142C3.6384 13.1361 3.59743 13.1183 3.55592 13.1064C3.55915 13 3.6411 12.9628 3.69447 12.9098C4.79804 11.8024 5.90377 10.6972 7.00734 9.58973C7.09791 9.49902 7.18579 9.42937 7.32488 9.41479C8.38586 9.30086 9.44576 9.17884 10.5272 9.05681C10.5132 9.16696 10.4437 9.20259 10.3951 9.25119C9.03765 10.6124 7.678 11.972 6.32158 13.3348ZM11.6707 20.8033C11.351 21.313 11.041 21.8286 10.7434 22.3513C10.6426 22.5284 10.5806 22.5057 10.4555 22.3799C8.86567 20.7811 7.27258 19.1851 5.67518 17.5933C5.53771 17.4562 5.52639 17.3925 5.70861 17.2888C6.22293 16.9956 6.72592 16.683 7.23377 16.3784C7.28714 16.3466 7.34105 16.3164 7.40197 16.2807C7.45373 16.3266 7.50171 16.3655 7.54484 16.4092C8.90341 17.7693 10.2609 19.1311 11.6227 20.488C11.7273 20.5922 11.758 20.6634 11.6707 20.8033ZM18.8636 18.4567C18.78 19.2067 18.6943 19.9567 18.6124 20.7066C18.6005 20.8173 18.5687 20.9075 18.4851 20.9906C17.3336 22.1391 16.1858 23.2908 15.0364 24.4414C15.0121 24.4657 14.9814 24.4835 14.9216 24.5284C14.8526 24.0694 14.7873 23.6375 14.7237 23.2055C14.6703 22.841 14.6218 22.476 14.5658 22.1121C14.5442 21.9717 14.5566 21.8616 14.6693 21.7498C16.064 20.3616 17.4527 18.968 18.8431 17.576C18.8674 17.5517 18.8965 17.5318 18.9687 17.4718C18.9304 17.832 18.8981 18.1446 18.8636 18.4567ZM25.2284 7.72531C24.5755 9.56652 23.665 11.2447 22.2606 12.6361C19.9952 14.8801 17.7498 17.1441 15.5017 19.4059C15.3491 19.5593 15.272 19.5798 15.1081 19.4135C13.8212 18.109 12.523 16.8158 11.2286 15.5189C11.0798 15.3698 10.9256 15.2386 10.6938 15.2548C10.4178 15.2748 10.1892 15.5183 10.1957 15.7931C10.207 16.008 10.3364 16.1544 10.4787 16.2964C11.7618 17.5793 13.0401 18.867 14.3291 20.1435C14.5011 20.3136 14.5291 20.4178 14.3307 20.5771C14.1361 20.7336 13.9754 21.0392 13.7797 21.0571C13.5749 21.076 13.4131 20.7563 13.2374 20.5808C11.1979 18.5431 9.16326 16.4994 7.12001 14.4654C6.95397 14.3002 6.94696 14.2203 7.11786 14.0497C9.90401 11.2717 12.6864 8.49041 15.4596 5.69998C16.8333 4.31826 18.4943 3.43059 20.3063 2.78644C20.4227 2.74487 20.4842 2.77618 20.5613 2.85339C22.0956 4.39331 23.6315 5.93161 25.1696 7.46775C25.2505 7.54875 25.2677 7.61408 25.2284 7.72531ZM26.4613 1.76865C26.3244 3.30209 26.0624 4.81231 25.6629 6.29878C25.6564 6.32307 25.6419 6.34521 25.6419 6.34521C24.3216 5.02343 22.9981 3.69787 21.6691 2.36744C22.3414 2.1925 23.0342 2.02134 23.7383 1.89553C24.5685 1.74651 25.4036 1.63366 26.2435 1.55483C26.4209 1.53809 26.4775 1.58345 26.4613 1.76865Z" fill="black"/>
<path d="M6.53926 21.5171C6.28749 21.2574 5.97426 21.3092 5.61198 21.6715C3.97199 23.3135 2.33307 24.9571 0.690928 26.5964C0.481751 26.8048 0.481751 27.1444 0.692006 27.3523C0.69578 27.3561 0.699553 27.3598 0.703327 27.3636C0.911425 27.5693 1.24622 27.5683 1.45324 27.3615C3.09754 25.7179 4.73969 24.0721 6.38237 22.4269C6.7328 22.0754 6.78455 21.7698 6.53926 21.5171Z" fill="black"/>
<path d="M1.29619 24.2206C1.51669 24.2336 1.66225 24.1018 1.80404 23.9598C2.83699 22.9247 3.87048 21.8907 4.90235 20.8546C4.97783 20.779 5.0533 20.6969 5.1029 20.6041C5.22313 20.38 5.18054 20.1618 5.0091 19.9858C4.84359 19.8157 4.63225 19.7898 4.41391 19.8805C4.29584 19.9291 4.21012 20.0242 4.12117 20.1132C3.10116 21.1354 2.08007 22.1569 1.06059 23.1807C0.979186 23.2627 0.895083 23.3497 0.841171 23.4501C0.655175 23.7978 0.904248 24.212 1.29619 24.2206Z" fill="black"/>
<path d="M7.88358 22.9231C7.63667 22.8167 7.42803 22.908 7.25066 23.0856C6.1789 24.1574 5.10606 25.2292 4.03807 26.3048C3.7739 26.571 3.75773 26.8922 3.97769 27.1174C4.2025 27.348 4.51896 27.3393 4.78798 27.0721C5.86891 25.9965 6.94498 24.9155 8.02159 23.8356C8.13858 23.7179 8.21945 23.5802 8.20921 23.4215C8.20597 23.1726 8.08952 23.0117 7.88358 22.9231Z" fill="black"/>
<path d="M17.5352 7.27067C15.7486 7.26581 14.3 8.70854 14.293 10.5001C14.286 12.2614 15.7373 13.7252 17.5056 13.7408C19.2825 13.7565 20.7467 12.3024 20.7527 10.5168C20.7591 8.71772 19.3294 7.27553 17.5352 7.27067ZM17.5164 12.6593C16.3443 12.6437 15.3761 11.6701 15.3718 10.5039C15.3675 9.32516 16.3524 8.3457 17.5374 8.35056C18.7175 8.35542 19.6739 9.31706 19.6739 10.4985C19.675 11.6858 18.6868 12.6755 17.5164 12.6593Z" fill="black"/>
<path d="M9.2079 13.7257C8.91839 13.7241 8.67686 13.9649 8.67578 14.2559C8.67471 14.5513 8.90868 14.7851 9.20466 14.7856C9.49579 14.7861 9.74055 14.5464 9.74163 14.2592C9.74217 13.9751 9.49417 13.7273 9.2079 13.7257Z" fill="black"/>
</svg>
