<svg width="28" height="28" viewBox="0 0 28 28" fill="none" xmlns="http://www.w3.org/2000/svg">
<path d="M19.2213 17.9875C18.9218 17.886 18.6112 17.8822 18.3032 17.8454C17.8468 17.7903 17.4967 17.5707 17.3414 17.117C17.2117 16.7387 17.328 16.4095 17.6163 16.1525C17.9931 15.8158 18.4361 15.7415 18.909 15.9104C19.3606 16.0718 19.6147 16.3892 19.6472 16.8846C19.6691 17.2127 19.9397 17.4115 20.2584 17.3671C20.5616 17.3244 20.7446 17.0604 20.6998 16.6879C20.5941 15.8078 20.0988 15.2248 19.2848 14.9138C19.09 14.8395 18.9816 14.7775 18.9902 14.5375C19.0014 14.2346 18.75 14.0096 18.4681 14.008C18.1762 14.0064 17.9386 14.2394 17.9381 14.5589C17.9381 14.7411 17.8986 14.8315 17.7033 14.8961C16.7537 15.2103 16.1799 16.0354 16.2295 16.9738C16.2765 17.863 16.9773 18.6411 17.921 18.8671C18.1922 18.9323 18.4697 18.9072 18.7404 18.9617C19.4417 19.1028 19.8298 19.7756 19.5383 20.3548C19.312 20.8048 18.7553 21.0458 18.1917 20.9378C17.683 20.8406 17.3446 20.4708 17.2923 19.9546C17.2586 19.6249 17.0382 19.4084 16.7441 19.417C16.4382 19.4261 16.2258 19.6692 16.2269 20.0091C16.2301 20.8315 16.8295 21.6096 17.7038 21.9024C17.8703 21.958 17.9435 22.0173 17.9408 22.2091C17.937 22.5159 18.1756 22.7355 18.4617 22.7376C18.7473 22.7398 18.9944 22.5223 18.9896 22.2156C18.9864 22.0061 19.082 21.9542 19.2474 21.8981C20.1303 21.5967 20.7137 20.8043 20.7057 19.9348C20.6993 19.0616 20.1047 18.2873 19.2213 17.9875Z" fill="black"/>
<path d="M23.9416 13.9037C23.3187 13.1807 22.5811 12.6036 21.7206 12.1894C21.3358 12.0045 20.936 12.2311 20.9232 12.6287C20.9147 12.8943 21.0641 13.0557 21.2878 13.1668C21.7922 13.4169 22.2533 13.7327 22.6622 14.1196C24.5992 15.9515 25.0823 18.6437 23.9149 21.0858C23.7356 21.461 23.8028 21.7602 24.1001 21.9109C24.4007 22.0632 24.683 21.935 24.8698 21.5641C25.3657 20.5782 25.607 19.5318 25.6166 18.6742C25.6235 16.7862 25.0225 15.1585 23.9416 13.9037Z" fill="black"/>
<path d="M16.0944 23.7067C15.5868 23.4432 15.1134 23.1322 14.6987 22.7378C12.7648 20.9012 12.2764 18.2015 13.44 15.7957C13.6295 15.4034 13.5644 15.0994 13.2591 14.9497C12.949 14.798 12.6805 14.9289 12.4814 15.3275C12.1003 16.0906 11.8735 16.896 11.7859 17.7451C11.4934 20.5837 13.0088 23.3582 15.5537 24.6285C15.6568 24.6798 15.7576 24.7386 15.8553 24.738C16.1046 24.7492 16.2759 24.6568 16.3821 24.4575C16.5311 24.1764 16.4238 23.8777 16.0944 23.7067Z" fill="black"/>
<path d="M19.2636 12.5539C19.5683 12.5646 19.8198 12.338 19.8331 12.0414C19.8464 11.7475 19.6084 11.4979 19.3052 11.4878C19.001 11.4776 18.7485 11.7047 18.7367 11.9997C18.725 12.2958 18.9604 12.5432 19.2636 12.5539Z" fill="black"/>
<path d="M17.657 24.3083C17.3523 24.3056 17.1062 24.5402 17.1035 24.8362C17.1009 25.1317 17.3437 25.3722 17.6474 25.3749C17.9511 25.3775 18.1972 25.1414 18.1999 24.8458C18.2026 24.5503 17.9608 24.3104 17.657 24.3083Z" fill="black"/>
<path d="M21.0151 9.48985C21.0119 9.47596 21.0114 9.46046 21.0156 9.44229C21.0381 9.35198 21.1528 9.38244 21.2206 9.37549C21.3626 9.36106 21.5051 9.34824 21.6471 9.3616C22.5774 9.45031 23.3359 9.17189 23.9593 8.50338C24.673 7.73868 24.8486 6.45242 24.3127 5.55092C23.7843 4.66171 23.0098 4.19359 21.9631 4.19626C20.7893 4.19946 19.6156 4.19786 18.4418 4.19626C18.08 4.19572 18.0666 4.17114 18.1766 3.83502C18.6836 2.29439 17.9364 0.477491 16.1739 0.482835C11.5318 0.482835 6.88964 0.482835 2.24805 0.482835C1.9769 0.477491 0.162109 0.744682 0.162109 3.04253C0.162109 5.23349 2.41458 5.53435 2.97397 5.53061C4.08526 5.52366 5.19708 5.52634 6.30837 5.53008C6.61315 5.53115 6.64998 5.60115 6.53362 5.89613C6.3041 6.47967 6.31745 7.12788 6.54697 7.71143C6.64891 7.97114 6.61102 8.03366 6.34787 8.0406C6.05484 8.04862 5.7602 8.02938 5.4677 8.04648C4.41405 8.10847 3.63476 8.62308 3.20402 9.57375C2.78181 10.5057 2.89657 11.4158 3.54135 12.2339C3.78635 12.5449 3.79009 12.5684 3.54669 12.8682C2.77274 13.8189 2.77434 15.1495 3.55043 16.0921C3.78795 16.3807 3.78849 16.4208 3.55523 16.7045C2.7738 17.6547 2.76847 18.9735 3.54242 19.9274C3.79115 20.2341 3.79169 20.2593 3.54509 20.5607C2.86294 21.3954 2.77274 22.5705 3.33479 23.4811C3.852 24.3184 4.60781 24.7529 5.59367 24.7566C7.38924 24.763 10.2208 24.762 12.1424 24.7566C13.8056 26.4592 16.1232 27.5172 18.6836 27.5172C23.7314 27.5172 27.8376 23.4062 27.8376 18.3526C27.8376 14.1058 24.9372 10.5249 21.0151 9.48985ZM18.6836 26.4485C14.2246 26.4485 10.5971 22.8168 10.5971 18.3526C10.5971 13.8884 14.2246 10.2567 18.6836 10.2567C23.1427 10.2567 26.7701 13.8884 26.7701 18.3526C26.7701 22.8168 23.1427 26.4485 18.6836 26.4485ZM9.87123 15.8693C8.51975 15.8661 6.83146 15.8768 5.49812 15.8613C4.77381 15.8527 4.18827 15.2393 4.17013 14.5211C4.15144 13.7841 4.71083 13.1114 5.43941 13.1023C7.31291 13.0782 9.18695 13.0953 11.0605 13.0969C11.0631 13.0969 11.1186 13.0985 11.1854 13.1017C10.6025 13.9338 10.1536 14.8668 9.87123 15.8693ZM22.0266 5.39862C22.6361 5.39969 23.1373 5.75398 23.3423 6.30814C23.5409 6.84573 23.3968 7.43141 22.9665 7.81777C22.674 8.08068 22.326 8.17741 21.9364 8.17687C19.3492 8.17313 16.7621 8.17473 14.175 8.17473C12.4504 8.17473 10.7253 8.17901 9.00067 8.17313C8.03669 8.16993 7.37483 7.29033 7.64278 6.38616C7.82159 5.78284 8.35909 5.39862 9.0375 5.39808C11.1982 5.39648 13.3583 5.39755 15.5184 5.39755C17.6882 5.39755 19.8574 5.39541 22.0266 5.39862ZM2.66172 4.32611C1.8947 4.32504 1.29102 3.70035 1.28835 2.94527C1.28568 2.17896 1.89577 1.55587 2.67773 1.55374C4.86455 1.54732 7.0519 1.5516 9.23873 1.5516C11.3994 1.5516 13.5595 1.55 15.7197 1.55267C16.334 1.55374 16.8336 1.90055 17.0418 2.4531C17.2558 3.02115 17.0882 3.6421 16.6025 4.02953C16.3532 4.22832 16.0394 4.32772 15.7202 4.32772C11.3674 4.32932 7.01454 4.33146 2.66172 4.32611ZM4.2251 10.2423C4.39431 9.65551 4.92753 9.24938 5.55897 9.2451C6.51014 9.23922 7.46183 9.2435 8.413 9.2435C11.5013 9.2435 14.5902 9.2435 17.6786 9.2435C15.4827 9.48451 13.5174 10.5062 12.0677 12.025C12.0618 12.025 12.057 12.0255 12.0511 12.0255C9.98866 12.018 7.65879 12.0244 5.5958 12.0191C4.62809 12.0175 3.96409 11.1486 4.2251 10.2423ZM5.5499 16.9375C6.17173 16.9295 6.79356 16.9359 7.4154 16.9359C8.03296 16.9359 9.00761 16.9407 9.64011 16.9327C9.56806 17.3955 9.53016 17.87 9.53016 18.3531C9.53016 18.8164 9.56485 19.2717 9.63157 19.7169C8.39111 19.7104 6.78502 19.7195 5.54883 19.7104C4.77007 19.7046 4.16425 19.0772 4.17013 18.3098C4.176 17.5574 4.78235 16.9477 5.5499 16.9375ZM5.55203 23.5575C4.96063 23.5559 4.46156 23.1962 4.25926 22.6538C4.04789 22.0879 4.21549 21.4723 4.69481 21.0849C4.94194 20.8856 5.25419 20.7846 5.57125 20.784C6.8843 20.7803 8.54484 20.783 9.85575 20.7803C10.1317 21.786 10.5753 22.7228 11.1539 23.5591C9.43248 23.5601 7.12556 23.5617 5.55203 23.5575Z" fill="black"/>
</svg>
