<svg width="81" height="81" viewBox="0 0 81 81" fill="none" xmlns="http://www.w3.org/2000/svg">
<path d="M65.6484 29.134L65.6488 29.1347C67.3416 32.1397 68.4187 35.2983 68.8804 38.688C68.9186 38.9946 68.9378 39.3401 68.9571 39.7069L68.96 39.7624C68.9783 40.1115 68.9976 40.4783 69.0341 40.8453V45.0069C68.9572 45.4705 68.9186 45.9147 68.8802 46.3567L68.8802 46.3575C68.8416 46.8014 68.8032 47.2432 68.7266 47.7039C67.8032 52.712 65.6489 57.1807 62.3399 61.1107C59.4155 64.5014 55.876 67.121 51.7212 68.816L51.7208 68.8161C48.9497 69.9723 46.1037 70.7422 43.1053 70.8192L43.105 70.8192C40.7163 70.8963 38.408 70.8962 36.1008 70.5112C32.4839 69.8176 29.0983 68.5077 26.0205 66.5815C22.7883 64.5008 20.0185 61.8811 17.8642 58.7226C15.1705 54.715 13.4779 50.4003 12.9392 45.6237C12.5544 40.7677 13.0934 36.0683 15.0933 31.5236C16.556 28.3633 18.4029 25.5124 20.7879 23.0472C24.0966 19.657 28.0208 17.2684 32.5613 15.8042L32.5618 15.804C34.6388 15.1108 36.7147 14.726 38.8669 14.726H38.944V14.727L38.9538 14.725C39.1126 14.6932 39.257 14.7023 39.4066 14.7117C39.4311 14.7133 39.4559 14.7149 39.4808 14.7162C39.6536 14.7259 39.8332 14.7266 40.0327 14.6488H42.0158C42.176 14.7264 42.3354 14.7453 42.4996 14.7453C42.5795 14.7453 42.6616 14.7408 42.7452 14.7362L42.7564 14.7355C42.8444 14.7307 42.9347 14.726 43.0295 14.726L43.1066 14.726L43.1079 14.726C46.0275 14.649 48.7953 15.4183 51.4902 16.4977C54.5686 17.7307 57.3378 19.4256 59.645 21.6589L59.645 21.6589L59.6469 21.6605C62.1093 23.8181 64.1097 26.2835 65.6484 29.134ZM16.154 42.6951L16.154 42.6957C16.2313 56.3853 27.3536 67.5229 41.0253 67.5229C54.697 67.5229 65.8195 56.3853 65.8195 42.6954C65.8195 29.0055 54.697 17.8679 41.0253 17.8679C27.3536 17.8679 16.2313 29.0055 16.154 42.6951ZM41.0256 64.1809C29.1818 64.1039 19.5689 54.4775 19.6458 42.6957V42.6954C19.6458 30.8359 29.259 21.2098 41.1024 21.2098C52.8684 21.2098 62.4819 30.9129 62.4819 42.6954C62.4819 54.5546 52.7919 64.1808 41.0256 64.1809ZM59.2673 42.6954C59.2673 32.6333 51.074 24.4289 41.0253 24.4289C30.9766 24.4289 22.7833 32.6333 22.7833 42.6954C22.7833 52.7574 30.9766 60.9618 41.0253 60.9618C51.074 60.9618 59.2673 52.7574 59.2673 42.6954Z" fill="#D5D5D5" stroke="white" stroke-width="0.1"/>
<path d="M47.2055 38.3442L47.2061 38.344C47.9385 38.151 48.6517 37.958 49.3647 37.765L49.3648 37.765C50.0775 37.5721 50.7901 37.3793 51.5219 37.1865C51.8665 37.1098 52.1669 37.073 52.4461 37.1196C52.7238 37.166 52.9844 37.2955 53.2476 37.5591C53.7732 38.0854 53.8455 38.6812 53.6225 39.2023L53.622 39.2021L53.6201 39.2091C52.8651 42.0443 52.0587 44.8281 51.2427 47.645C51.0592 48.2783 50.8752 48.9133 50.6913 49.5509C50.5384 50.0484 50.3498 50.3839 50.0728 50.5965C49.7961 50.8089 49.4235 50.9046 48.8892 50.9046H48.8738H48.8585H48.8431H48.8278H48.8124H48.797H48.7817H48.7663H48.751H48.7356H48.7203H48.7049H48.6895H48.6742H48.6588H48.6435H48.6281H48.6128H48.5974H48.5821H48.5667H48.5513H48.536H48.5206H48.5053H48.4899H48.4746H48.4592H48.4438H48.4285H48.4131H48.3978H48.3824H48.3671H48.3517H48.3363H48.321H48.3056H48.2903H48.2749H48.2596H48.2442H48.2288H48.2135H48.1981H48.1828H48.1674H48.1521H48.1367H48.1213H48.106H48.0906H48.0753H48.0599H48.0446H48.0292H48.0139H47.9985H47.9831H47.9678H47.9524H47.9371H47.9217H47.9064H47.891H47.8756H47.8603H47.8449H47.8296H47.8142H47.7989H47.7835H47.7681H47.7528H47.7374H47.7221H47.7067H47.6914H47.676H47.6606H47.6453H47.6299H47.6146H47.5992H47.5839H47.5685H47.5532H47.5378H47.5224H47.5071H47.4917H47.4764H47.461H47.4457H47.4303H47.4149H47.3996H47.3842H47.3689H47.3535H47.3382H47.3228H47.3074H47.2921H47.2767H47.2614H47.246H47.2307H47.2153H47.1999H47.1846H47.1692H47.1539H47.1385H47.1232H47.1078H47.0924H47.0771H47.0617H47.0464H47.031H47.0157H47.0003H46.985H46.9696H46.9542H46.9389H46.9235H46.9082H46.8928H46.8775H46.8621H46.8467H46.8314H46.816H46.8007H46.7853H46.77H46.7546H46.7392H46.7239H46.7085H46.6932H46.6778H46.6625H46.6471H46.6317H46.6164H46.601H46.5857H46.5703H46.555H46.5396H46.5243H46.5089H46.4935H46.4782H46.4628H46.4475H46.4321H46.4168H46.4014H46.386H46.3707H46.3553H46.34H46.3246H46.3093H46.2939H46.2785H46.2632H46.2478H46.2325H46.2171H46.2018H46.1864H46.171H46.1557H46.1403H46.125H46.1096H46.0943H46.0789H46.0635H46.0482H46.0328H46.0175H46.0021H45.9868H45.9714H45.9561H45.9407H45.9253H45.91H45.8946H45.8793H45.8639H45.8486H45.8332H45.8178H45.8025H45.7871H45.7718H45.7564H45.7411H45.7257H45.7103H45.695H45.6796H45.6643H45.6489H45.6336H45.6182H45.6028H45.5875H45.5721H45.5568H45.5414H45.5261H45.5107H45.4953H45.48H45.4646H45.4493H45.4339H45.4186H45.4032H45.3879H45.3725H45.3571H45.3418H45.3264H45.3111H45.2957H45.2804H45.265H45.2496H45.2343H45.2189H45.2036H45.1882H45.1729H45.1575H45.1421H45.1268H45.1114H45.0961H45.0807H45.0654H45.05H45.0346H45.0193H45.0039H44.9886H44.9732H44.9579H44.9425H44.9272H44.9118H44.8964H44.8811H44.8657H44.8504H44.835H44.8197H44.8043H44.7889H44.7736H44.7582H44.7429H44.7275H44.7122H44.6968H44.6814H44.6661H44.6507H44.6354H44.62H44.6047H44.5893H44.5739H44.5586H44.5432H44.5279H44.5125H44.4972H44.4818H44.4664H44.4511H44.4357H44.4204H44.405H44.3897H44.3743H44.359H44.3436H44.3282H44.3129H44.2975H44.2822H44.2668H44.2515H44.2361H44.2207H44.2054H44.19H44.1747H44.1593H44.144H44.1286H44.1132H44.0979H44.0825H44.0672H44.0518H44.0365H44.0211H44.0057H43.9904H43.975H43.9597H43.9443H43.929H43.9136H43.8983H43.8829H43.8675H43.8522H43.8368H43.8215H43.8061H43.7908H43.7754H43.76H43.7447H43.7293H43.714H43.6986H43.6833H43.6679H43.6525H43.6372H43.6218H43.6065H43.5911H43.5758H43.5604H43.545H43.5297H43.5143H43.499H43.4836H43.4683H43.4529H43.4376H43.4222H43.4068H43.3915H43.3761H43.3608H43.3454H43.3301H43.3147H43.2993H43.284H43.2686H43.2533H43.2379H43.2226H43.2072H43.1918H43.1765H43.1611H43.1458H43.1304H43.1151H43.0997H43.0843H43.069H43.0536H43.0383H43.0229H43.0076H42.9922H42.9768H42.9615H42.9461H42.9308H42.9154H42.9001H42.8847H42.8694H42.854H42.8386H42.8233H42.8079H42.7926H42.7772H42.7619H42.7465H42.7311H42.7158H42.7004H42.6851H42.6697H42.6544H42.639H42.6236H42.6083H42.5929H42.5776H42.5622H42.5469H42.5315H42.5161H42.5008H42.4854H42.4701H42.4547H42.4394H42.424H42.4087H42.3933H42.3779H42.3626H42.3472H42.3319H42.3165H42.3012H42.2858H42.2704H42.2551H42.2397H42.2244H42.209H42.1937H42.1783H42.1629H42.1476H42.1322H42.1169H42.1015H42.0862H42.0708H42.0554H42.0401H42.0247H42.0094H41.994H41.9787H41.9633H41.9479H41.9326H41.9172H41.9019H41.8865H41.8712H41.8558H41.8405H41.8251H41.8097H41.7944H41.779H41.7637H41.7483H41.733H41.7176H41.7022H41.6869H41.6715H41.6562H41.6408H41.6255H41.6101H41.5947H41.5794H41.564H41.5487H41.5333H41.518H41.5026H41.4872H41.4719H41.4565H41.4412H41.4258H41.4105H41.3951H41.3798H41.3644H41.349H41.3337H41.3183H41.303H41.2876H41.2723H41.2569H41.2415H41.2262H41.2108H41.1955H41.1801H41.1648H41.1494H41.134H41.1187H41.1033H41.088H41.0726H41.0573H41.0419H41.0265H41.0116H40.9967H40.9818H40.9669H40.952H40.9371H40.9222H40.9073H40.8923H40.8774H40.8625H40.8476H40.8326H40.8177H40.8028H40.7878H40.7729H40.758H40.743H40.7281H40.7132H40.6982H40.6833H40.6683H40.6534H40.6384H40.6235H40.6085H40.5936H40.5786H40.5637H40.5487H40.5338H40.5188H40.5038H40.4889H40.4739H40.4589H40.444H40.429H40.414H40.3991H40.3841H40.3691H40.3541H40.3392H40.3242H40.3092H40.2942H40.2792H40.2642H40.2493H40.2343H40.2193H40.2043H40.1893H40.1743H40.1593H40.1443H40.1293H40.1143H40.0993H40.0843H40.0693H40.0543H40.0393H40.0243H40.0093H39.9943H39.9793H39.9643H39.9492H39.9342H39.9192H39.9042H39.8892H39.8742H39.8591H39.8441H39.8291H39.8141H39.799H39.784H39.769H39.7539H39.7389H39.7239H39.7089H39.6938H39.6788H39.6637H39.6487H39.6337H39.6186H39.6036H39.5885H39.5735H39.5585H39.5434H39.5284H39.5133H39.4983H39.4832H39.4682H39.4531H39.4381H39.423H39.408H39.3929H39.3778H39.3628H39.3477H39.3327H39.3176H39.3025H39.2875H39.2724H39.2574H39.2423H39.2272H39.2122H39.1971H39.182H39.1669H39.1519H39.1368H39.1217H39.1067H39.0916H39.0765H39.0614H39.0464H39.0313H39.0162H39.0011H38.986H38.971H38.9559H38.9408H38.9257H38.9106H38.8955H38.8804H38.8654H38.8503H38.8352H38.8201H38.805H38.7899H38.7748H38.7597H38.7446H38.7295H38.7144H38.6993H38.6843H38.6692H38.6541H38.639H38.6239H38.6088H38.5937H38.5786H38.5635H38.5484H38.5333H38.5182H38.503H38.4879H38.4728H38.4577H38.4426H38.4275H38.4124H38.3973H38.3822H38.3671H38.352H38.3369H38.3218H38.3066H38.2915H38.2764H38.2613H38.2462H38.2311H38.216H38.2009H38.1857H38.1706H38.1555H38.1404H38.1253H38.1102H38.095H38.0799H38.0648H38.0497H38.0346H38.0194H38.0043H37.9892H37.9741H37.959H37.9438H37.9287H37.9136H37.8985H37.8833H37.8682H37.8531H37.838H37.8228H37.8077H37.7926H37.7775H37.7623H37.7472H37.7321H37.717H37.7018H37.6867H37.6716H37.6565H37.6413H37.6262H37.6111H37.596H37.5808H37.5657H37.5506H37.5354H37.5203H37.5052H37.49H37.4749H37.4598H37.4447H37.4295H37.4144H37.3993H37.3841H37.369H37.3539H37.3387H37.3236H37.3085H37.2934H37.2782H37.2631H37.248H37.2328H37.2177H37.2026H37.1874H37.1723H37.1572H37.142H37.1269H37.1118H37.0967H37.0815H37.0664H37.0513H37.0361H37.021H37.0059H36.9907H36.9756H36.9605H36.9454H36.9302H36.9151H36.9H36.8848H36.8697H36.8546H36.8394H36.8243H36.8092H36.7941H36.7789H36.7638H36.7487H36.7335H36.7184H36.7033H36.6882H36.673H36.6579H36.6428H36.6277H36.6125H36.5974H36.5823H36.5672H36.552H36.5369H36.5218H36.5067H36.4915H36.4764H36.4613H36.4462H36.431H36.4159H36.4008H36.3857H36.3705H36.3554H36.3403H36.3252H36.3101H36.2949H36.2798H36.2647H36.2496H36.2345H36.2194H36.2042H36.1891H36.174H36.1589H36.1438H36.1287H36.1135H36.0984H36.0833H36.0682H36.0531H36.038H36.0229H36.0078H35.9926H35.9775H35.9624H35.9473H35.9322H35.9171H35.902H35.8869H35.8718H35.8567H35.8416H35.8265H35.8114H35.7963H35.7812H35.7661H35.751H35.7359H35.7208H35.7057H35.6906H35.6755H35.6604H35.6453H35.6302H35.6151H35.6H35.5849H35.5698H35.5547H35.5396H35.5245H35.5094H35.4944H35.4793H35.4642H35.4491H35.434H35.4189H35.4038H35.3888H35.3737H35.3586H35.3435H35.3284H35.3134H35.2983H35.2832H35.2681H35.253H35.238H35.2229H35.2078H35.1927H35.1777H35.1626H35.1475H35.1325H35.1174H35.1023H35.0873H35.0722H35.0571H35.0421H35.027H35.012H34.9969H34.9818H34.9668H34.9517H34.9367H34.9216H34.9066H34.8915H34.8765H34.8614H34.8464H34.8313H34.8163H34.8012H34.7862H34.7711H34.7561H34.741H34.726H34.711H34.6959H34.6809H34.6658H34.6508H34.6358H34.6207H34.6057H34.5907H34.5756H34.5606H34.5456H34.5306H34.5155H34.5005H34.4855H34.4705H34.4555H34.4404H34.4254H34.4104H34.3954H34.3804H34.3654H34.3503H34.3353H34.3203H34.3053H34.2903H34.2753H34.2603H34.2453H34.2303H34.2153H34.2003H34.1853H34.1703H34.1553H34.1403H34.1253H34.1104H34.0954H34.0804H34.0654H34.0504H34.0354H34.0204H34.0055H33.9905H33.9755H33.9605H33.9456H33.9306H33.9156H33.9006H33.8857H33.8707H33.8557H33.8408H33.8258H33.8109H33.7959H33.7809H33.766H33.751H33.7361H33.7211H33.7062H33.6912H33.6763H33.6613H33.6464H33.6315H33.6165H33.6016H33.5866H33.5717H33.5568H33.5418H33.5269H33.512H33.4971H33.4821H33.4672H33.4523H33.4374H33.4225H33.4075H33.3926H33.3777H33.3628H33.3479H33.333H33.3181C32.7446 50.9046 32.3331 50.8087 32.0274 50.5861C31.7222 50.3638 31.5146 50.0093 31.362 49.4743L31.3618 49.4739C30.8609 47.7761 30.3792 46.059 29.8974 44.3415L29.8974 44.3413C29.4158 42.6245 28.9341 40.9074 28.4331 39.2095C28.3573 38.867 28.3392 38.5662 28.3951 38.2862C28.4508 38.0073 28.5806 37.7457 28.8056 37.4821C29.0688 37.2568 29.3301 37.1269 29.6086 37.0711C29.888 37.0151 30.1883 37.0332 30.53 37.109C31.9936 37.5717 33.4571 37.9575 34.9192 38.3427C35.0764 38.4207 35.2061 38.4456 35.3298 38.4006C35.4507 38.3565 35.5546 38.249 35.6704 38.0944C35.6705 38.0943 35.6706 38.0942 35.6706 38.0941L39.601 33.0009C39.6011 33.0008 39.6012 33.0007 39.6013 33.0006C40.0579 32.4292 40.5651 32.1513 41.0555 32.1513C41.5454 32.1513 42.033 32.4287 42.4508 32.9992L42.4508 32.9992L42.4516 33.0002L46.3825 38.0941C46.3825 38.0942 46.3826 38.0942 46.3826 38.0943C46.5033 38.2554 46.6282 38.3411 46.7677 38.3734C46.9051 38.4051 47.0497 38.3832 47.2055 38.3442ZM34.1179 47.4948L34.1179 47.4948L34.1186 47.4969C34.1609 47.624 34.228 47.6953 34.3219 47.7305C34.4075 47.7627 34.5117 47.7627 34.6217 47.7627H34.6285H34.6534H34.6782H34.7031H34.7279H34.7527H34.7776H34.8025H34.8273H34.8522H34.877H34.9019H34.9267H34.9516H34.9765H35.0013H35.0262H35.0511H35.0759H35.1008H35.1257H35.1506H35.1755H35.2003H35.2252H35.2501H35.275H35.2999H35.3248H35.3496H35.3745H35.3994H35.4243H35.4492H35.4741H35.499H35.5239H35.5488H35.5737H35.5986H35.6235H35.6484H35.6733H35.6983H35.7232H35.7481H35.773H35.7979H35.8228H35.8477H35.8727H35.8976H35.9225H35.9474H35.9724H35.9973H36.0222H36.0472H36.0721H36.097H36.1219H36.1469H36.1718H36.1968H36.2217H36.2466H36.2716H36.2965H36.3215H36.3464H36.3714H36.3963H36.4213H36.4462H36.4712H36.4961H36.5211H36.546H36.571H36.596H36.6209H36.6459H36.6708H36.6958H36.7208H36.7457H36.7707H36.7957H36.8206H36.8456H36.8706H36.8956H36.9205H36.9455H36.9705H36.9955H37.0204H37.0454H37.0704H37.0954H37.1204H37.1453H37.1703H37.1953H37.2203H37.2453H37.2703H37.2953H37.3203H37.3453H37.3703H37.3952H37.4202H37.4452H37.4702H37.4952H37.5202H37.5452H37.5702H37.5952H37.6202H37.6452H37.6703H37.6953H37.7203H37.7453H37.7703H37.7953H37.8203H37.8453H37.8703H37.8953H37.9204H37.9454H37.9704H37.9954H38.0204H38.0454H38.0705H38.0955H38.1205H38.1455H38.1705H38.1956H38.2206H38.2456H38.2706H38.2957H38.3207H38.3457H38.3708H38.3958H38.4208H38.4458H38.4709H38.4959H38.5209H38.546H38.571H38.596H38.6211H38.6461H38.6711H38.6962H38.7212H38.7463H38.7713H38.7963H38.8214H38.8464H38.8715H38.8965H38.9215H38.9466H38.9716H38.9967H39.0217H39.0468H39.0718H39.0969H39.1219H39.147H39.172H39.1971H39.2221H39.2472H39.2722H39.2973H39.3223H39.3474H39.3724H39.3975H39.4225H39.4476H39.4726H39.4977H39.5227H39.5478H39.5729H39.5979H39.623H39.648H39.6731H39.6981H39.7232H39.7483H39.7733H39.7984H39.8234H39.8485H39.8735H39.8986H39.9237H39.9487H39.9738H39.9989H40.0239H40.049H40.074H40.0991H40.1242H40.1492H40.1743H40.1994H40.2244H40.2495H40.2745H40.2996H40.3247H40.3497H40.3748H40.3999H40.4249H40.45H40.4751H40.5001H40.5252H40.5503H40.5753H40.6004H40.6255H40.6505H40.6756H40.7007H40.7257H40.7508H40.7759H40.8009H40.826H40.8511H40.8761H40.9012H40.9263H40.9513H40.9764H41.0015H41.0265H41.0516H41.0767H41.1017H41.1268H41.1519H41.177H41.202H41.2271H41.2522H41.2772H41.3023H41.3274H41.3524H41.3775H41.4026H41.4276H41.4527H41.4778H41.5028H41.5279H41.553H41.578H41.6031H41.6282H41.6532H41.6783H41.7033H41.7284H41.7535H41.7785H41.8036H41.8287H41.8537H41.8788H41.9039H41.9289H41.954H41.9791H42.0041H42.0292H42.0542H42.0793H42.1044H42.1294H42.1545H42.1795H42.2046H42.2297H42.2547H42.2798H42.3048H42.3299H42.355H42.38H42.4051H42.4301H42.4552H42.4802H42.5053H42.5304H42.5554H42.5805H42.6055H42.6306H42.6556H42.6807H42.7057H42.7308H42.7558H42.7809H42.8059H42.831H42.856H42.8811H42.9061H42.9312H42.9562H42.9813H43.0063H43.0314H43.0564H43.0815H43.1065H43.1315H43.1566H43.1816H43.2067H43.2317H43.2568H43.2818H43.3068H43.3319H43.3569H43.3819H43.407H43.432H43.4571H43.4821H43.5071H43.5322H43.5572H43.5822H43.6073H43.6323H43.6573H43.6823H43.7074H43.7324H43.7574H43.7824H43.8075H43.8325H43.8575H43.8825H43.9076H43.9326H43.9576H43.9826H44.0077H44.0327H44.0577H44.0827H44.1077H44.1327H44.1577H44.1828H44.2078H44.2328H44.2578H44.2828H44.3078H44.3328H44.3578H44.3828H44.4078H44.4328H44.4578H44.4829H44.5079H44.5329H44.5579H44.5829H44.6078H44.6328H44.6578H44.6828H44.7078H44.7328H44.7578H44.7828H44.8078H44.8328H44.8578H44.8828H44.9077H44.9327H44.9577H44.9827H45.0077H45.0327H45.0576H45.0826H45.1076H45.1326H45.1575H45.1825H45.2075H45.2325H45.2574H45.2824H45.3074H45.3323H45.3573H45.3823H45.4072H45.4322H45.4571H45.4821H45.5071H45.532H45.557H45.5819H45.6069H45.6318H45.6568H45.6817H45.7067H45.7316H45.7566H45.7815H45.8064H45.8314H45.8563H45.8813H45.9062H45.9311H45.9561H45.981H46.0059H46.0309H46.0558H46.0807H46.1057H46.1306H46.1555H46.1804H46.2053H46.2303H46.2552H46.2801H46.305H46.3299H46.3548H46.3797H46.4047H46.4296H46.4545H46.4794H46.5043H46.5292H46.5541H46.579H46.6039H46.6288H46.6537H46.6786H46.7034H46.7283H46.7532H46.7781H46.803H46.8279H46.8528H46.8776H46.9025H46.9274H46.9523H46.9771H47.002H47.0269H47.0518H47.0766H47.1015H47.1263H47.1512H47.1761H47.2009H47.2258H47.2506H47.2755H47.3003H47.3252H47.35H47.3749H47.3997H47.4246C47.5812 47.7627 47.7094 47.7435 47.8089 47.6771C47.9099 47.6096 47.9725 47.4996 48.0126 47.3393C48.1071 46.9924 48.2152 46.6303 48.3257 46.2599C48.484 45.7296 48.6475 45.1822 48.7834 44.6377C48.8903 44.2364 49.0068 43.8339 49.1263 43.4212C49.3503 42.6475 49.5847 41.8375 49.7859 40.9309L49.8028 40.8549L49.7266 40.8712C49.0675 41.0126 48.4626 41.1837 47.8822 41.3478C47.5127 41.4523 47.1531 41.554 46.7958 41.6435L46.7957 41.6434L46.7941 41.6439C46.2588 41.7971 45.8857 41.8134 45.5631 41.6934C45.2392 41.5729 44.9573 41.312 44.6115 40.8889C44.6114 40.8888 44.6113 40.8886 44.6112 40.8885L41.3749 36.7219C41.3748 36.7218 41.3747 36.7217 41.3746 36.7216C41.3174 36.6451 41.2672 36.5796 41.2197 36.5321C41.1725 36.4848 41.1214 36.4484 41.061 36.4417C40.9993 36.4348 40.9406 36.4601 40.8814 36.5062C40.8224 36.5522 40.7568 36.6235 40.6791 36.7207L40.6791 36.7207L40.6777 36.7227C40.0358 37.6126 39.3629 38.47 38.6983 39.3169C38.3257 39.7917 37.9557 40.2632 37.5951 40.7354L37.5948 40.7357C37.1321 41.3535 36.8128 41.6689 36.4345 41.7891C36.0554 41.9094 35.6069 41.8371 34.8733 41.6438C34.1018 41.4121 33.2534 41.1804 32.3281 40.9488L32.2419 40.9272L32.2682 41.0121C32.7305 42.5037 33.1241 43.9261 33.518 45.3493C33.715 46.0614 33.9121 46.7736 34.1179 47.4948Z" fill="#D5D5D5" stroke="white" stroke-width="0.1"/>
<path d="M19.6457 42.6954C19.6457 30.8358 29.2591 21.2098 41.0252 21.2098C52.8684 21.2098 62.482 30.913 62.5589 42.6957C62.5588 54.5549 52.8686 64.1809 41.1023 64.1809C29.2591 64.1809 19.6457 54.4778 19.6457 42.6954ZM22.7833 42.6954C22.7833 52.7574 30.9766 60.9618 41.0252 60.9618C51.0739 60.9618 59.2672 52.7574 59.2672 42.6954C59.2672 32.6333 51.0739 24.4289 41.0252 24.4289C30.9766 24.4289 22.7833 32.6333 22.7833 42.6954Z" fill="#D5D5D5" stroke="white" stroke-width="0.1"/>
<line x1="6.86035" y1="16.9569" x2="6.86035" y2="23.3783" stroke="#5F6267" stroke-width="2" stroke-linecap="round"/>
<line x1="3.85254" y1="20.1296" x2="10.2739" y2="20.1296" stroke="#5F6267" stroke-width="2" stroke-linecap="round"/>
<line x1="73.4805" y1="63.488" x2="73.4805" y2="69.9095" stroke="#D5D5D5" stroke-width="2" stroke-linecap="round"/>
<line x1="70.4717" y1="66.6607" x2="76.8932" y2="66.6607" stroke="#D5D5D5" stroke-width="2" stroke-linecap="round"/>
<circle cx="76.144" cy="48.0707" r="1.74951" fill="#C4C4C4"/>
<circle cx="23.8853" cy="9.25995" r="1.74951" fill="#C4C4C4"/>
<circle cx="11.0229" cy="65.9113" r="1.74951" fill="#C4C4C4"/>
</svg>
